Ouroboros-Regular.ufo
<glyph name="exclam" format="2">
	<advance width="303"/>
	<unicode hex="0021"/>
	<outline>
		<contour>
			<point x="243" y="82" type="curve"/>
			<point x="243" y="31"/>
			<point x="202" y="-10"/>
			<point x="152" y="-10" type="curve"/>
			<point x="101" y="-10"/>
			<point x="60" y="31"/>
			<point x="60" y="82" type="curve"/>
			<point x="60" y="132"/>
			<point x="101" y="173"/>
			<point x="152" y="173" type="curve"/>
			<point x="202" y="173"/>
			<point x="243" y="132"/>
		</contour>
		<contour>
			<point x="167" y="233" type="curve"/>
			<point x="167" y="394"/>
			<point x="278" y="555"/>
			<point x="278" y="665" type="curve"/>
			<point x="278" y="742"/>
			<point x="221" y="800"/>
			<point x="152" y="800" type="curve"/>
			<point x="82" y="800"/>
			<point x="25" y="742"/>
			<point x="25" y="665" type="curve"/>
			<point x="25" y="555"/>
			<point x="136" y="394"/>
			<point x="136" y="233" type="curve"/>
			<point x="136" y="210"/>
			<point x="136" y="203"/>
			<point x="136" y="203" type="curve"/>
			<point x="167" y="203" type="line"/>
			<point x="167" y="203"/>
			<point x="167" y="207"/>
		</contour>
	</outline>
</glyph>
<glyph name="quotedbl" format="2">
	<advance width="438"/>
	<unicode hex="0022"/>
	<outline>
		<contour>
			<point x="125" y="408" type="curve"/>
			<point x="125" y="521"/>
			<point x="203" y="537"/>
			<point x="203" y="615" type="curve"/>
			<point x="203" y="669"/>
			<point x="163" y="710"/>
			<point x="114" y="710" type="curve"/>
			<point x="65" y="710"/>
			<point x="25" y="669"/>
			<point x="25" y="615" type="curve"/>
			<point x="25" y="537"/>
			<point x="103" y="521"/>
			<point x="103" y="408" type="curve"/>
			<point x="103" y="392"/>
			<point x="103" y="387"/>
			<point x="103" y="387" type="curve"/>
			<point x="114" y="387" type="line"/>
			<point x="125" y="387" type="line"/>
			<point x="125" y="387"/>
			<point x="125" y="389"/>
		</contour>
		<contour>
			<point x="335" y="408" type="curve"/>
			<point x="335" y="521"/>
			<point x="413" y="537"/>
			<point x="413" y="615" type="curve"/>
			<point x="413" y="669"/>
			<point x="373" y="710"/>
			<point x="324" y="710" type="curve"/>
			<point x="275" y="710"/>
			<point x="235" y="669"/>
			<point x="235" y="615" type="curve"/>
			<point x="235" y="537"/>
			<point x="313" y="521"/>
			<point x="313" y="408" type="curve"/>
			<point x="313" y="392"/>
			<point x="313" y="387"/>
			<point x="313" y="387" type="curve"/>
			<point x="324" y="387" type="line"/>
			<point x="335" y="387" type="line"/>
			<point x="335" y="387"/>
			<point x="335" y="389"/>
		</contour>
	</outline>
</glyph>
<glyph name="numbersign" format="2">
	<advance width="856"/>
	<unicode hex="0023"/>
	<outline>
		<contour>
			<point x="15" y="134" type="line"/>
			<point x="44" y="134" type="line"/>
			<point x="44" y="134"/>
			<point x="44" y="146"/>
			<point x="139" y="155" type="curve"/>
			<point x="73" y="33"/>
			<point x="60" y="40"/>
			<point x="60" y="40" type="curve"/>
			<point x="48" y="13" type="line"/>
			<point x="179" y="-48" type="line"/>
			<point x="191" y="-22" type="line"/>
			<point x="191" y="-22"/>
			<point x="174" y="-14"/>
			<point x="247" y="161" type="curve"/>
			<point x="288" y="162"/>
			<point x="336" y="163"/>
			<point x="393" y="163" type="curve" smooth="yes"/>
			<point x="424" y="163" type="line"/>
			<point x="354" y="33"/>
			<point x="340" y="40"/>
			<point x="340" y="40" type="curve"/>
			<point x="328" y="13" type="line"/>
			<point x="459" y="-48" type="line"/>
			<point x="471" y="-22" type="line"/>
			<point x="471" y="-22"/>
			<point x="454" y="-14"/>
			<point x="527" y="161" type="curve"/>
			<point x="742" y="154"/>
			<point x="742" y="134"/>
			<point x="742" y="134" type="curve"/>
			<point x="771" y="133" type="line"/>
			<point x="771" y="279" type="line"/>
			<point x="742" y="278" type="line" smooth="yes"/>
			<point x="742" y="278"/>
			<point x="742" y="260"/>
			<point x="568" y="253" type="curve"/>
			<point x="601" y="326" type="line" smooth="yes"/>
			<point x="617" y="361"/>
			<point x="632" y="391"/>
			<point x="646" y="419" type="curve"/>
			<point x="812" y="411"/>
			<point x="812" y="394"/>
			<point x="812" y="394" type="curve"/>
			<point x="841" y="393" type="line"/>
			<point x="841" y="539" type="line"/>
			<point x="812" y="538" type="line" smooth="yes"/>
			<point x="812" y="538"/>
			<point x="812" y="525"/>
			<point x="695" y="516" type="curve"/>
			<point x="769" y="654"/>
			<point x="783" y="647"/>
			<point x="783" y="647" type="curve"/>
			<point x="796" y="673" type="line"/>
			<point x="664" y="735" type="line"/>
			<point x="653" y="708" type="line"/>
			<point x="653" y="708"/>
			<point x="670" y="700"/>
			<point x="589" y="511" type="curve"/>
			<point x="553" y="511"/>
			<point x="512" y="510"/>
			<point x="463" y="510" type="curve" smooth="yes"/>
			<point x="412" y="510" type="line"/>
			<point x="489" y="654"/>
			<point x="503" y="647"/>
			<point x="503" y="647" type="curve"/>
			<point x="516" y="673" type="line"/>
			<point x="384" y="735" type="line"/>
			<point x="373" y="708" type="line"/>
			<point x="373" y="708"/>
			<point x="390" y="700"/>
			<point x="310" y="512" type="curve"/>
			<point x="114" y="519"/>
			<point x="114" y="539"/>
			<point x="114" y="539" type="curve" smooth="yes"/>
			<point x="85" y="539" type="line"/>
			<point x="85" y="394" type="line"/>
			<point x="114" y="394" type="line"/>
			<point x="114" y="394"/>
			<point x="114" y="411"/>
			<point x="268" y="419" type="curve"/>
			<point x="242" y="362" type="line" smooth="yes"/>
			<point x="223" y="321"/>
			<point x="206" y="286"/>
			<point x="191" y="255" type="curve"/>
			<point x="44" y="263"/>
			<point x="44" y="279"/>
			<point x="44" y="279" type="curve" smooth="yes"/>
			<point x="15" y="279" type="line"/>
		</contour>
		<contour>
			<point x="287" y="251" type="curve"/>
			<point x="321" y="326" type="line" smooth="yes"/>
			<point x="338" y="362"/>
			<point x="353" y="394"/>
			<point x="367" y="422" type="curve"/>
			<point x="396" y="423"/>
			<point x="428" y="423"/>
			<point x="463" y="423" type="curve" smooth="yes"/>
			<point x="495" y="423"/>
			<point x="524" y="423"/>
			<point x="550" y="422" type="curve"/>
			<point x="522" y="362" type="line" smooth="yes"/>
			<point x="502" y="319"/>
			<point x="484" y="283"/>
			<point x="469" y="250" type="curve"/>
			<point x="393" y="250" type="line" smooth="yes"/>
			<point x="353" y="250"/>
			<point x="318" y="250"/>
		</contour>
	</outline>
</glyph>
<glyph name="dollar" format="2">
	<advance width="657"/>
	<unicode hex="0024"/>
	<outline>
		<contour>
			<point x="532" y="648" type="curve"/>
			<point x="518" y="617" type="line"/>
			<point x="518" y="617"/>
			<point x="470" y="648"/>
			<point x="328" y="648" type="curve"/>
			<point x="249" y="648"/>
			<point x="192" y="614"/>
			<point x="192" y="558" type="curve"/>
			<point x="192" y="489"/>
			<point x="256" y="489"/>
			<point x="328" y="489" type="curve" smooth="yes"/>
			<point x="481" y="489"/>
			<point x="632" y="446"/>
			<point x="632" y="271" type="curve"/>
			<point x="632" y="105"/>
			<point x="495" y="1"/>
			<point x="328" y="1" type="curve"/>
			<point x="138" y="1"/>
			<point x="55" y="146"/>
			<point x="55" y="146" type="curve"/>
			<point x="85" y="178" type="line"/>
			<point x="85" y="178"/>
			<point x="155" y="72"/>
			<point x="292" y="72" type="curve"/>
			<point x="418" y="72"/>
			<point x="468" y="124"/>
			<point x="468" y="177" type="curve"/>
			<point x="468" y="231"/>
			<point x="418" y="252"/>
			<point x="328" y="252" type="curve"/>
			<point x="168" y="252"/>
			<point x="25" y="322"/>
			<point x="25" y="473" type="curve"/>
			<point x="25" y="612"/>
			<point x="143" y="700"/>
			<point x="328" y="700" type="curve"/>
			<point x="466" y="700"/>
			<point x="532" y="648"/>
		</contour>
		<contour>
			<point x="256" y="700" type="curve"/>
			<point x="256" y="729" type="line"/>
			<point x="401" y="729" type="line"/>
			<point x="401" y="700" type="line"/>
			<point x="401" y="700"/>
			<point x="372" y="700"/>
			<point x="372" y="350" type="curve"/>
			<point x="372" y="0"/>
			<point x="401" y="0"/>
			<point x="401" y="0" type="curve"/>
			<point x="401" y="-29" type="line"/>
			<point x="256" y="-29" type="line"/>
			<point x="256" y="0" type="line"/>
			<point x="256" y="0"/>
			<point x="285" y="0"/>
			<point x="285" y="350" type="curve"/>
			<point x="285" y="696"/>
			<point x="256" y="700"/>
		</contour>
	</outline>
</glyph>
<glyph name="percent" format="2">
	<advance width="507"/>
	<unicode hex="0025"/>
	<outline>
		<contour>
			<point x="208" y="409" type="curve"/>
			<point x="208" y="358"/>
			<point x="167" y="317"/>
			<point x="117" y="317" type="curve"/>
			<point x="66" y="317"/>
			<point x="25" y="358"/>
			<point x="25" y="409" type="curve"/>
			<point x="25" y="459"/>
			<point x="66" y="500"/>
			<point x="117" y="500" type="curve"/>
			<point x="167" y="500"/>
			<point x="208" y="459"/>
		</contour>
		<contour>
			<point x="482" y="172" type="curve"/>
			<point x="482" y="121"/>
			<point x="441" y="80"/>
			<point x="391" y="80" type="curve"/>
			<point x="340" y="80"/>
			<point x="299" y="121"/>
			<point x="299" y="172" type="curve"/>
			<point x="299" y="222"/>
			<point x="340" y="263"/>
			<point x="391" y="263" type="curve"/>
			<point x="441" y="263"/>
			<point x="482" y="222"/>
		</contour>
		<contour>
			<point x="46" y="185" type="line"/>
			<point x="46" y="185"/>
			<point x="66" y="164"/>
			<point x="223" y="321" type="curve"/>
			<point x="379" y="477"/>
			<point x="359" y="498"/>
			<point x="359" y="498" type="curve"/>
			<point x="379" y="518" type="line"/>
			<point x="482" y="416" type="line"/>
			<point x="461" y="395" type="line"/>
			<point x="461" y="395"/>
			<point x="441" y="416"/>
			<point x="284" y="259" type="curve"/>
			<point x="128" y="103"/>
			<point x="149" y="82"/>
			<point x="149" y="82" type="curve"/>
			<point x="128" y="62" type="line"/>
			<point x="25" y="164" type="line"/>
		</contour>
	</outline>
</glyph>
<glyph name="ampersand" format="2">
	<advance width="867"/>
	<unicode hex="0026"/>
	<outline>
		<contour>
			<point x="797" y="0" type="curve"/>
			<point x="797" y="29" type="line"/>
			<point x="739" y="29"/>
			<point x="674" y="47"/>
			<point x="610" y="82" type="curve"/>
			<point x="633" y="47" type="line"/>
			<point x="680" y="47" type="line"/>
			<point x="787" y="115"/>
			<point x="842" y="221"/>
			<point x="842" y="314" type="curve" smooth="yes"/>
			<point x="842" y="415"/>
			<point x="766" y="500"/>
			<point x="627" y="500" type="curve"/>
			<point x="627" y="487"/>
			<point x="627" y="471"/>
			<point x="627" y="471" type="curve"/>
			<point x="653" y="471"/>
			<point x="699" y="453"/>
			<point x="699" y="377" type="curve"/>
			<point x="699" y="297"/>
			<point x="629" y="202"/>
			<point x="538" y="141" type="curve"/>
			<point x="472" y="198"/>
			<point x="394" y="276"/>
			<point x="373" y="371" type="curve"/>
			<point x="353" y="309" type="line"/>
			<point x="457" y="360"/>
			<point x="609" y="412"/>
			<point x="609" y="542" type="curve"/>
			<point x="609" y="640"/>
			<point x="524" y="710"/>
			<point x="415" y="710" type="curve"/>
			<point x="280" y="710"/>
			<point x="214" y="604"/>
			<point x="214" y="471" type="curve"/>
			<point x="214" y="446"/>
			<point x="215" y="423"/>
			<point x="217" y="401" type="curve"/>
			<point x="122" y="355"/>
			<point x="25" y="292"/>
			<point x="25" y="181" type="curve"/>
			<point x="25" y="49"/>
			<point x="126" y="-60"/>
			<point x="318" y="-60" type="curve"/>
			<point x="491" y="-60"/>
			<point x="591" y="-13"/>
			<point x="666" y="36" type="curve"/>
			<point x="540" y="31" type="line"/>
			<point x="636" y="3"/>
			<point x="731" y="0"/>
		</contour>
		<contour>
			<point x="355" y="500" type="curve"/>
			<point x="355" y="560"/>
			<point x="379" y="595"/>
			<point x="420" y="595" type="curve"/>
			<point x="444" y="595"/>
			<point x="466" y="579"/>
			<point x="466" y="552" type="curve"/>
			<point x="466" y="515"/>
			<point x="419" y="488"/>
			<point x="357" y="461" type="curve"/>
			<point x="356" y="474"/>
			<point x="355" y="487"/>
		</contour>
		<contour>
			<point x="359" y="81" type="curve"/>
			<point x="281" y="81"/>
			<point x="226" y="112"/>
			<point x="226" y="171" type="curve"/>
			<point x="226" y="211"/>
			<point x="256" y="242"/>
			<point x="297" y="269" type="curve"/>
			<point x="258" y="301" type="line"/>
			<point x="288" y="200"/>
			<point x="348" y="133"/>
			<point x="418" y="88" type="curve"/>
			<point x="398" y="83"/>
			<point x="378" y="81"/>
		</contour>
	</outline>
</glyph>
<glyph name="quotesingle" format="2">
	<advance width="218"/>
	<unicode hex="0027"/>
	<outline>
		<contour>
			<point x="109" y="710" type="curve"/>
			<point x="63" y="710"/>
			<point x="25" y="669"/>
			<point x="25" y="619" type="curve"/>
			<point x="25" y="596"/>
			<point x="40" y="571"/>
			<point x="64" y="556" type="curve"/>
			<point x="68" y="553"/>
			<point x="107" y="539"/>
			<point x="107" y="528" type="curve"/>
			<point x="107" y="509"/>
			<point x="63" y="506"/>
			<point x="63" y="506" type="curve" smooth="yes"/>
			<point x="63" y="477" type="line"/>
			<point x="106" y="477"/>
			<point x="193" y="519"/>
			<point x="193" y="619" type="curve"/>
			<point x="193" y="669"/>
			<point x="155" y="710"/>
		</contour>
	</outline>
</glyph>
<glyph name="parenleft" format="2">
	<advance width="312"/>
	<unicode hex="0028"/>
	<outline>
		<contour>
			<point x="297" y="669" type="curve"/>
			<point x="266" y="700" type="line"/>
			<point x="266" y="700"/>
			<point x="25" y="604"/>
			<point x="25" y="333" type="curve"/>
			<point x="25" y="62"/>
			<point x="266" y="-34"/>
			<point x="266" y="-34" type="curve"/>
			<point x="297" y="-3" type="line"/>
			<point x="297" y="-3"/>
			<point x="202" y="83"/>
			<point x="202" y="333" type="curve"/>
			<point x="202" y="583"/>
			<point x="297" y="669"/>
		</contour>
	</outline>
</glyph>
<glyph name="parenright" format="2">
	<advance width="312"/>
	<unicode hex="0029"/>
	<outline>
		<contour>
			<point x="46" y="700" type="curve"/>
			<point x="15" y="669" type="line"/>
			<point x="15" y="669"/>
			<point x="110" y="583"/>
			<point x="110" y="333" type="curve"/>
			<point x="110" y="83"/>
			<point x="15" y="-3"/>
			<point x="15" y="-3" type="curve"/>
			<point x="46" y="-34" type="line"/>
			<point x="46" y="-34"/>
			<point x="287" y="62"/>
			<point x="287" y="333" type="curve"/>
			<point x="287" y="604"/>
			<point x="46" y="700"/>
		</contour>
	</outline>
</glyph>
<glyph name="asterisk" format="2">
	<advance width="395"/>
	<unicode hex="002A"/>
	<outline>
		<contour>
			<point x="265" y="532" type="curve"/>
			<point x="337" y="542"/>
			<point x="348" y="509"/>
			<point x="348" y="509" type="curve"/>
			<point x="370" y="516" type="line"/>
			<point x="319" y="671" type="line"/>
			<point x="297" y="664" type="line"/>
			<point x="297" y="664"/>
			<point x="308" y="631"/>
			<point x="243" y="597" type="curve"/>
			<point x="237" y="593"/>
			<point x="231" y="598"/>
			<point x="232" y="605" type="curve"/>
			<point x="244" y="677"/>
			<point x="279" y="677"/>
			<point x="279" y="677" type="curve"/>
			<point x="279" y="700" type="line"/>
			<point x="116" y="700" type="line"/>
			<point x="116" y="677" type="line"/>
			<point x="116" y="677"/>
			<point x="151" y="677"/>
			<point x="163" y="605" type="curve"/>
			<point x="164" y="598"/>
			<point x="157" y="593"/>
			<point x="152" y="596" type="curve"/>
			<point x="87" y="631"/>
			<point x="98" y="664"/>
			<point x="98" y="664" type="curve"/>
			<point x="76" y="671" type="line"/>
			<point x="25" y="516" type="line"/>
			<point x="47" y="508" type="line"/>
			<point x="47" y="508"/>
			<point x="58" y="542"/>
			<point x="131" y="531" type="curve"/>
			<point x="137" y="530"/>
			<point x="140" y="522"/>
			<point x="135" y="518" type="curve"/>
			<point x="83" y="467"/>
			<point x="54" y="487"/>
			<point x="54" y="487" type="curve"/>
			<point x="41" y="469" type="line"/>
			<point x="173" y="373" type="line"/>
			<point x="187" y="391" type="line"/>
			<point x="187" y="391"/>
			<point x="158" y="412"/>
			<point x="190" y="478" type="curve"/>
			<point x="193" y="483"/>
			<point x="202" y="483"/>
			<point x="205" y="478" type="curve"/>
			<point x="237" y="412"/>
			<point x="209" y="392"/>
			<point x="209" y="392" type="curve"/>
			<point x="222" y="373" type="line"/>
			<point x="354" y="469" type="line"/>
			<point x="341" y="488" type="line"/>
			<point x="341" y="488"/>
			<point x="313" y="467"/>
			<point x="260" y="518" type="curve"/>
			<point x="255" y="522"/>
			<point x="258" y="531"/>
		</contour>
	</outline>
</glyph>
<glyph name="plus" format="2">
	<advance width="493"/>
	<unicode hex="002B"/>
	<outline>
		<contour>
			<point x="54" y="361" type="line"/>
			<point x="54" y="361"/>
			<point x="54" y="332"/>
			<point x="247" y="332" type="curve"/>
			<point x="438" y="332"/>
			<point x="439" y="361"/>
			<point x="439" y="361" type="curve"/>
			<point x="468" y="361" type="line"/>
			<point x="468" y="196" type="line"/>
			<point x="439" y="196" type="line"/>
			<point x="439" y="196"/>
			<point x="438" y="225"/>
			<point x="247" y="225" type="curve"/>
			<point x="54" y="225"/>
			<point x="54" y="196"/>
			<point x="54" y="196" type="curve"/>
			<point x="25" y="196" type="line"/>
			<point x="25" y="361" type="line"/>
		</contour>
		<contour>
			<point x="329" y="471" type="line"/>
			<point x="329" y="471"/>
			<point x="300" y="471"/>
			<point x="300" y="278" type="curve"/>
			<point x="300" y="87"/>
			<point x="329" y="86"/>
			<point x="329" y="86" type="curve"/>
			<point x="329" y="57" type="line"/>
			<point x="164" y="57" type="line"/>
			<point x="164" y="86" type="line"/>
			<point x="164" y="86"/>
			<point x="193" y="87"/>
			<point x="193" y="278" type="curve"/>
			<point x="193" y="471"/>
			<point x="164" y="471"/>
			<point x="164" y="471" type="curve"/>
			<point x="164" y="500" type="line"/>
			<point x="329" y="500" type="line"/>
		</contour>
	</outline>
</glyph>
<glyph name="comma" format="2">
	<advance width="198"/>
	<unicode hex="002C"/>
	<outline>
		<contour>
			<point x="99" y="183" type="curve"/>
			<point x="53" y="183"/>
			<point x="25" y="139"/>
			<point x="25" y="99" type="curve"/>
			<point x="25" y="43"/>
			<point x="77" y="35"/>
			<point x="77" y="1" type="curve"/>
			<point x="77" y="-18"/>
			<point x="43" y="-21"/>
			<point x="43" y="-21" type="curve" smooth="yes"/>
			<point x="43" y="-50" type="line"/>
			<point x="86" y="-50"/>
			<point x="173" y="-1"/>
			<point x="173" y="99" type="curve"/>
			<point x="173" y="149"/>
			<point x="145" y="183"/>
		</contour>
	</outline>
</glyph>
<glyph name="hyphen" format="2">
	<advance width="398"/>
	<unicode hex="002D"/>
	<outline>
		<contour>
			<point x="199" y="294" type="curve"/>
			<point x="50" y="294"/>
			<point x="50" y="323"/>
			<point x="50" y="323" type="curve"/>
			<point x="25" y="323" type="line"/>
			<point x="25" y="178" type="line"/>
			<point x="50" y="178" type="line"/>
			<point x="50" y="178"/>
			<point x="50" y="207"/>
			<point x="199" y="207" type="curve"/>
			<point x="348" y="207"/>
			<point x="348" y="178"/>
			<point x="348" y="178" type="curve"/>
			<point x="373" y="178" type="line"/>
			<point x="373" y="323" type="line"/>
			<point x="348" y="323" type="line"/>
			<point x="348" y="323"/>
			<point x="348" y="294"/>
		</contour>
	</outline>
</glyph>
<glyph name="period" format="2">
	<advance width="233"/>
	<unicode hex="002E"/>
	<guideline x="117" y="183" angle="0"/>
	<outline>
		<contour>
			<point x="208" y="82" type="curve"/>
			<point x="208" y="31"/>
			<point x="167" y="-10"/>
			<point x="117" y="-10" type="curve"/>
			<point x="66" y="-10"/>
			<point x="25" y="31"/>
			<point x="25" y="82" type="curve"/>
			<point x="25" y="132"/>
			<point x="66" y="173"/>
			<point x="117" y="173" type="curve"/>
			<point x="167" y="173"/>
			<point x="208" y="132"/>
		</contour>
	</outline>
</glyph>
<glyph name="slash" format="2">
	<advance width="701"/>
	<unicode hex="002F"/>
	<outline>
		<contour>
			<point x="366" y="671" type="line"/>
			<point x="366" y="671"/>
			<point x="403" y="663"/>
			<point x="403" y="608" type="curve" smooth="yes"/>
			<point x="403" y="560"/>
			<point x="377" y="476"/>
			<point x="280" y="330" type="curve"/>
			<point x="81" y="31"/>
			<point x="15" y="29"/>
			<point x="15" y="29" type="curve"/>
			<point x="15" y="-1" type="line"/>
			<point x="341" y="-1" type="line"/>
			<point x="341" y="29" type="line"/>
			<point x="341" y="29"/>
			<point x="296" y="30"/>
			<point x="296" y="91" type="curve" smooth="yes"/>
			<point x="296" y="138"/>
			<point x="323" y="222"/>
			<point x="417" y="370" type="curve"/>
			<point x="595" y="649"/>
			<point x="686" y="671"/>
			<point x="686" y="671" type="curve"/>
			<point x="686" y="700" type="line"/>
			<point x="366" y="700" type="line"/>
		</contour>
	</outline>
</glyph>
<glyph name="zero" format="2">
	<advance width="685"/>
	<unicode hex="0030"/>
	<outline>
		<contour>
			<point x="246" y="700" type="curve"/>
			<point x="277" y="669"/>
			<point x="277" y="669"/>
			<point x="277" y="669" type="curve"/>
			<point x="277" y="669"/>
			<point x="192" y="601"/>
			<point x="192" y="360" type="curve"/>
			<point x="192" y="210"/>
			<point x="250" y="88"/>
			<point x="336" y="88" type="curve"/>
			<point x="422" y="88"/>
			<point x="475" y="184"/>
			<point x="475" y="350" type="curve"/>
			<point x="475" y="516"/>
			<point x="417" y="623"/>
			<point x="363" y="623" type="curve"/>
			<point x="306" y="623"/>
			<point x="292" y="543"/>
			<point x="292" y="543" type="curve"/>
			<point x="250" y="543" type="line"/>
			<point x="250" y="543"/>
			<point x="274" y="700"/>
			<point x="404" y="700" type="curve"/>
			<point x="546" y="700"/>
			<point x="660" y="543"/>
			<point x="660" y="350" type="curve"/>
			<point x="660" y="118"/>
			<point x="499" y="-39"/>
			<point x="336" y="-39" type="curve"/>
			<point x="171" y="-39"/>
			<point x="25" y="116"/>
			<point x="25" y="350" type="curve"/>
			<point x="25" y="563"/>
			<point x="171" y="677"/>
		</contour>
	</outline>
</glyph>
<glyph name="one" format="2">
	<advance width="614"/>
	<unicode hex="0031"/>
	<outline>
		<contour>
			<point x="589" y="671" type="curve"/>
			<point x="589" y="700" type="line"/>
			<point x="264" y="700" type="line"/>
			<point x="264" y="613"/>
			<point x="123" y="476"/>
			<point x="25" y="476" type="curve"/>
			<point x="68" y="297" type="line"/>
			<point x="97" y="297" type="line"/>
			<point x="97" y="297"/>
			<point x="97" y="462"/>
			<point x="202" y="462" type="curve"/>
			<point x="248" y="462"/>
			<point x="253" y="396"/>
			<point x="253" y="350" type="curve"/>
			<point x="253" y="34"/>
			<point x="64" y="29"/>
			<point x="64" y="29" type="curve"/>
			<point x="64" y="0" type="line"/>
			<point x="589" y="0" type="line"/>
			<point x="589" y="29" type="line"/>
			<point x="589" y="29"/>
			<point x="400" y="34"/>
			<point x="400" y="350" type="curve"/>
			<point x="400" y="665"/>
			<point x="589" y="671"/>
		</contour>
	</outline>
</glyph>
<glyph name="two" format="2">
	<advance width="678"/>
	<unicode hex="0032"/>
	<outline>
		<contour>
			<point x="619" y="338" type="curve"/>
			<point x="653" y="0" type="line"/>
			<point x="25" y="0" type="line"/>
			<point x="256" y="98" type="line"/>
			<point x="610" y="98"/>
			<point x="590" y="244"/>
			<point x="590" y="338" type="curve"/>
			<point x="619" y="338"/>
			<point x="619" y="338"/>
		</contour>
		<contour>
			<point x="25" y="29" type="curve"/>
			<point x="25" y="29"/>
			<point x="409" y="95"/>
			<point x="409" y="431" type="curve"/>
			<point x="409" y="517"/>
			<point x="361" y="567"/>
			<point x="305" y="567" type="curve"/>
			<point x="228" y="567"/>
			<point x="180" y="501"/>
			<point x="180" y="431" type="curve" smooth="yes"/>
			<point x="180" y="380"/>
			<point x="206" y="327"/>
			<point x="266" y="297" type="curve"/>
			<point x="250" y="271" type="line"/>
			<point x="250" y="271"/>
			<point x="185" y="284"/>
			<point x="128" y="324" type="curve" smooth="yes"/>
			<point x="66" y="366"/>
			<point x="40" y="423"/>
			<point x="40" y="482" type="curve" smooth="yes"/>
			<point x="40" y="633"/>
			<point x="155" y="729"/>
			<point x="305" y="729" type="curve"/>
			<point x="400" y="729"/>
			<point x="579" y="681"/>
			<point x="579" y="460" type="curve"/>
			<point x="579" y="244"/>
			<point x="349" y="0"/>
			<point x="25" y="0" type="curve"/>
			<point x="25" y="29"/>
			<point x="25" y="29"/>
		</contour>
	</outline>
</glyph>
<glyph name="three" format="2">
	<advance width="639"/>
	<unicode hex="0033"/>
	<outline>
		<contour>
			<point x="51" y="145" type="curve"/>
			<point x="25" y="116" type="line"/>
			<point x="25" y="116"/>
			<point x="118" y="-23"/>
			<point x="289" y="-23" type="curve" smooth="yes"/>
			<point x="453" y="-23"/>
			<point x="589" y="53"/>
			<point x="589" y="191" type="curve" smooth="yes"/>
			<point x="589" y="307"/>
			<point x="508" y="377"/>
			<point x="400" y="402" type="curve"/>
			<point x="565" y="668"/>
			<point x="614" y="668"/>
			<point x="614" y="668" type="curve"/>
			<point x="614" y="700" type="line"/>
			<point x="25" y="700" type="line"/>
			<point x="59" y="362" type="line"/>
			<point x="88" y="362" type="line"/>
			<point x="88" y="428"/>
			<point x="88" y="599"/>
			<point x="234" y="599" type="curve" smooth="yes"/>
			<point x="316" y="599"/>
			<point x="331" y="549"/>
			<point x="306" y="504" type="curve" smooth="yes"/>
			<point x="261" y="423"/>
			<point x="166" y="354"/>
			<point x="126" y="324" type="curve"/>
			<point x="153" y="296" type="line"/>
			<point x="153" y="296"/>
			<point x="184" y="322"/>
			<point x="237" y="322" type="curve" smooth="yes"/>
			<point x="339" y="322"/>
			<point x="400" y="274"/>
			<point x="400" y="191" type="curve" smooth="yes"/>
			<point x="400" y="109"/>
			<point x="333" y="56"/>
			<point x="237" y="56" type="curve" smooth="yes"/>
			<point x="118" y="56"/>
			<point x="51" y="145"/>
		</contour>
	</outline>
</glyph>
<glyph name="four" format="2">
	<advance width="736"/>
	<unicode hex="0034"/>
	<outline>
		<contour>
			<point x="260" y="671" type="line"/>
			<point x="260" y="671"/>
			<point x="386" y="685"/>
			<point x="386" y="350" type="curve"/>
			<point x="386" y="34"/>
			<point x="252" y="29"/>
			<point x="252" y="29" type="curve"/>
			<point x="252" y="0" type="line"/>
			<point x="686" y="0" type="line"/>
			<point x="686" y="29" type="line"/>
			<point x="686" y="29"/>
			<point x="533" y="34"/>
			<point x="533" y="350" type="curve"/>
			<point x="533" y="665"/>
			<point x="686" y="671"/>
			<point x="686" y="671" type="curve"/>
			<point x="686" y="700" type="line"/>
			<point x="260" y="700" type="line"/>
		</contour>
		<contour>
			<point x="682" y="426" type="line"/>
			<point x="682" y="426"/>
			<point x="676" y="292"/>
			<point x="361" y="292" type="curve"/>
			<point x="186" y="292" type="line"/>
			<point x="186" y="156" type="line"/>
			<point x="361" y="156" type="line"/>
			<point x="676" y="156"/>
			<point x="682" y="112"/>
			<point x="682" y="112" type="curve"/>
			<point x="711" y="112" type="line"/>
			<point x="711" y="426" type="line"/>
		</contour>
		<contour>
			<point x="260" y="671" type="line"/>
			<point x="268" y="671"/>
			<point x="276" y="664"/>
			<point x="276" y="652" type="curve" smooth="yes"/>
			<point x="276" y="562"/>
			<point x="72" y="185"/>
			<point x="10" y="185" type="curve"/>
			<point x="10" y="156" type="line"/>
			<point x="304" y="156" type="line"/>
			<point x="284" y="292" type="line"/>
			<point x="281" y="292"/>
			<point x="263" y="292"/>
			<point x="263" y="308" type="curve" smooth="yes"/>
			<point x="263" y="327"/>
			<point x="317" y="469"/>
			<point x="381" y="545" type="curve"/>
			<point x="483" y="685"/>
			<point x="516" y="671"/>
			<point x="516" y="671" type="curve"/>
			<point x="516" y="700" type="line"/>
			<point x="260" y="700" type="line"/>
		</contour>
	</outline>
</glyph>
<glyph name="five" format="2">
	<advance width="633"/>
	<unicode hex="0035"/>
	<outline>
		<contour>
			<point x="25" y="668" type="line"/>
			<point x="25" y="668"/>
			<point x="137" y="668"/>
			<point x="137" y="504" type="curve" smooth="yes"/>
			<point x="137" y="342"/>
			<point x="61" y="334"/>
			<point x="29" y="264" type="curve"/>
			<point x="56" y="236" type="line"/>
			<point x="56" y="236"/>
			<point x="108" y="322"/>
			<point x="241" y="322" type="curve" smooth="yes"/>
			<point x="343" y="322"/>
			<point x="404" y="274"/>
			<point x="404" y="191" type="curve" smooth="yes"/>
			<point x="404" y="109"/>
			<point x="337" y="56"/>
			<point x="241" y="56" type="curve" smooth="yes"/>
			<point x="122" y="56"/>
			<point x="55" y="145"/>
			<point x="55" y="145" type="curve"/>
			<point x="29" y="116" type="line"/>
			<point x="29" y="116"/>
			<point x="142" y="-23"/>
			<point x="313" y="-23" type="curve" smooth="yes"/>
			<point x="477" y="-23"/>
			<point x="593" y="53"/>
			<point x="593" y="191" type="curve" smooth="yes"/>
			<point x="593" y="340"/>
			<point x="459" y="413"/>
			<point x="307" y="413" type="curve" smooth="yes"/>
			<point x="300" y="413" type="line"/>
			<point x="289" y="438"/>
			<point x="283" y="468"/>
			<point x="283" y="504" type="curve" smooth="yes"/>
			<point x="283" y="551"/>
			<point x="311" y="599"/>
			<point x="399" y="599" type="curve" smooth="yes"/>
			<point x="545" y="599"/>
			<point x="545" y="428"/>
			<point x="545" y="362" type="curve"/>
			<point x="574" y="362" type="line"/>
			<point x="608" y="700" type="line"/>
			<point x="25" y="700" type="line"/>
			<point x="31" y="697" type="line"/>
			<point x="25" y="697" type="line"/>
		</contour>
	</outline>
</glyph>
<glyph name="six" format="2">
	<advance width="647"/>
	<unicode hex="0036"/>
	<outline>
		<contour>
			<point x="333" y="-21" type="curve"/>
			<point x="508" y="-21"/>
			<point x="622" y="114"/>
			<point x="622" y="259" type="curve" smooth="yes"/>
			<point x="622" y="421"/>
			<point x="510" y="518"/>
			<point x="401" y="518" type="curve"/>
			<point x="260" y="518"/>
			<point x="255" y="366"/>
			<point x="255" y="312" type="curve"/>
			<point x="285" y="312" type="line"/>
			<point x="285" y="363"/>
			<point x="313" y="411"/>
			<point x="363" y="411" type="curve"/>
			<point x="415" y="411"/>
			<point x="446" y="351"/>
			<point x="446" y="264" type="curve" smooth="yes"/>
			<point x="446" y="172"/>
			<point x="408" y="105"/>
			<point x="333" y="105" type="curve"/>
			<point x="265" y="105"/>
			<point x="216" y="189"/>
			<point x="215" y="368" type="curve" smooth="yes"/>
			<point x="215" y="546"/>
			<point x="298" y="639"/>
			<point x="401" y="639" type="curve"/>
			<point x="489" y="639"/>
			<point x="540" y="584"/>
			<point x="540" y="584" type="curve"/>
			<point x="565" y="610" type="line"/>
			<point x="565" y="610"/>
			<point x="511" y="718"/>
			<point x="362" y="718" type="curve"/>
			<point x="214" y="718"/>
			<point x="25" y="614"/>
			<point x="25" y="334" type="curve" smooth="yes"/>
			<point x="25" y="117"/>
			<point x="176" y="-21"/>
		</contour>
	</outline>
</glyph>
<glyph name="seven" format="2">
	<advance width="691"/>
	<unicode hex="0037"/>
	<outline>
		<contour>
			<point x="25" y="700" type="line"/>
			<point x="59" y="362" type="line"/>
			<point x="59" y="362"/>
			<point x="59" y="362"/>
			<point x="88" y="362" type="curve"/>
			<point x="88" y="428"/>
			<point x="88" y="599"/>
			<point x="226" y="599" type="curve" smooth="yes"/>
			<point x="304" y="599"/>
			<point x="334" y="562"/>
			<point x="334" y="508" type="curve" smooth="yes"/>
			<point x="334" y="484"/>
			<point x="328" y="457"/>
			<point x="317" y="428" type="curve" smooth="yes"/>
			<point x="229" y="197" type="line" smooth="yes"/>
			<point x="164" y="27"/>
			<point x="70" y="29"/>
			<point x="70" y="29" type="curve"/>
			<point x="70" y="0" type="line"/>
			<point x="468" y="0" type="line"/>
			<point x="468" y="29" type="line"/>
			<point x="403" y="29"/>
			<point x="352" y="54"/>
			<point x="352" y="111" type="curve" smooth="yes"/>
			<point x="352" y="134"/>
			<point x="360" y="163"/>
			<point x="377" y="197" type="curve" smooth="yes"/>
			<point x="517" y="474" type="line" smooth="yes"/>
			<point x="566" y="571"/>
			<point x="635" y="667"/>
			<point x="666" y="668" type="curve"/>
			<point x="666" y="700" type="line"/>
		</contour>
	</outline>
</glyph>
<glyph name="eight" format="2">
	<advance width="677"/>
	<unicode hex="0038"/>
	<outline>
		<contour>
			<point x="25" y="202" type="curve" smooth="yes"/>
			<point x="25" y="308"/>
			<point x="116" y="380"/>
			<point x="213" y="436" type="curve"/>
			<point x="150" y="478"/>
			<point x="101" y="528"/>
			<point x="101" y="594" type="curve" smooth="yes"/>
			<point x="101" y="751"/>
			<point x="335" y="760"/>
			<point x="335" y="760" type="curve"/>
			<point x="335" y="731" type="line"/>
			<point x="335" y="731"/>
			<point x="227" y="700"/>
			<point x="227" y="612" type="curve" smooth="yes"/>
			<point x="227" y="565"/>
			<point x="268" y="529"/>
			<point x="324" y="496" type="curve"/>
			<point x="393" y="532"/>
			<point x="456" y="574"/>
			<point x="456" y="609" type="curve" smooth="yes"/>
			<point x="456" y="641"/>
			<point x="420" y="652"/>
			<point x="389" y="652" type="curve" smooth="yes"/>
			<point x="356" y="652"/>
			<point x="328" y="641"/>
			<point x="307" y="631" type="curve"/>
			<point x="289" y="669" type="line"/>
			<point x="316" y="684"/>
			<point x="376" y="709"/>
			<point x="450" y="709" type="curve" smooth="yes"/>
			<point x="529" y="709"/>
			<point x="579" y="660"/>
			<point x="580" y="598" type="curve" smooth="yes"/>
			<point x="581" y="541"/>
			<point x="533" y="487"/>
			<point x="449" y="429" type="curve"/>
			<point x="550" y="376"/>
			<point x="652" y="312"/>
			<point x="652" y="202" type="curve" smooth="yes"/>
			<point x="652" y="68"/>
			<point x="517" y="-30"/>
			<point x="344" y="-30" type="curve" smooth="yes"/>
			<point x="168" y="-30"/>
			<point x="25" y="68"/>
		</contour>
		<contour>
			<point x="208" y="232" type="curve" smooth="yes"/>
			<point x="208" y="170"/>
			<point x="270" y="128"/>
			<point x="344" y="128" type="curve" smooth="yes"/>
			<point x="418" y="128"/>
			<point x="476" y="165"/>
			<point x="476" y="232" type="curve" smooth="yes"/>
			<point x="476" y="283"/>
			<point x="413" y="323"/>
			<point x="339" y="364" type="curve"/>
			<point x="268" y="323"/>
			<point x="208" y="283"/>
		</contour>
	</outline>
</glyph>
<glyph name="nine" format="2">
	<advance width="647"/>
	<unicode hex="0039"/>
	<outline>
		<contour>
			<point x="314" y="718" type="curve"/>
			<point x="139" y="718"/>
			<point x="25" y="583"/>
			<point x="25" y="438" type="curve"/>
			<point x="25" y="276"/>
			<point x="137" y="179"/>
			<point x="246" y="179" type="curve"/>
			<point x="387" y="179"/>
			<point x="392" y="331"/>
			<point x="392" y="385" type="curve"/>
			<point x="362" y="385" type="line"/>
			<point x="362" y="334"/>
			<point x="334" y="286"/>
			<point x="284" y="286" type="curve"/>
			<point x="232" y="286"/>
			<point x="201" y="346"/>
			<point x="201" y="433" type="curve"/>
			<point x="201" y="525"/>
			<point x="239" y="592"/>
			<point x="314" y="592" type="curve"/>
			<point x="382" y="592"/>
			<point x="431" y="508"/>
			<point x="432" y="329" type="curve"/>
			<point x="432" y="151"/>
			<point x="349" y="58"/>
			<point x="246" y="58" type="curve"/>
			<point x="158" y="58"/>
			<point x="107" y="113"/>
			<point x="107" y="113" type="curve"/>
			<point x="82" y="87" type="line"/>
			<point x="82" y="87"/>
			<point x="136" y="-21"/>
			<point x="285" y="-21" type="curve"/>
			<point x="433" y="-21"/>
			<point x="622" y="83"/>
			<point x="622" y="363" type="curve"/>
			<point x="622" y="580"/>
			<point x="471" y="718"/>
		</contour>
	</outline>
</glyph>
<glyph name="colon" format="2">
	<advance width="233"/>
	<unicode hex="003A"/>
	<outline>
		<contour>
			<point x="208" y="82" type="curve"/>
			<point x="208" y="31"/>
			<point x="167" y="-10"/>
			<point x="117" y="-10" type="curve"/>
			<point x="66" y="-10"/>
			<point x="25" y="31"/>
			<point x="25" y="82" type="curve"/>
			<point x="25" y="132"/>
			<point x="66" y="173"/>
			<point x="117" y="173" type="curve"/>
			<point x="167" y="173"/>
			<point x="208" y="132"/>
		</contour>
		<contour>
			<point x="208" y="352" type="curve"/>
			<point x="208" y="301"/>
			<point x="167" y="260"/>
			<point x="117" y="260" type="curve"/>
			<point x="66" y="260"/>
			<point x="25" y="301"/>
			<point x="25" y="352" type="curve"/>
			<point x="25" y="402"/>
			<point x="66" y="443"/>
			<point x="117" y="443" type="curve"/>
			<point x="167" y="443"/>
			<point x="208" y="402"/>
		</contour>
	</outline>
</glyph>
<glyph name="semicolon" format="2">
	<advance width="233"/>
	<unicode hex="003B"/>
	<outline>
		<contour>
			<point x="208" y="352" type="curve"/>
			<point x="208" y="301"/>
			<point x="167" y="260"/>
			<point x="117" y="260" type="curve"/>
			<point x="66" y="260"/>
			<point x="25" y="301"/>
			<point x="25" y="352" type="curve"/>
			<point x="25" y="402"/>
			<point x="66" y="443"/>
			<point x="117" y="443" type="curve"/>
			<point x="167" y="443"/>
			<point x="208" y="402"/>
		</contour>
		<contour>
			<point x="117" y="183" type="curve"/>
			<point x="71" y="183"/>
			<point x="43" y="139"/>
			<point x="43" y="99" type="curve"/>
			<point x="43" y="43"/>
			<point x="95" y="35"/>
			<point x="95" y="1" type="curve"/>
			<point x="95" y="-18"/>
			<point x="61" y="-21"/>
			<point x="61" y="-21" type="curve" smooth="yes"/>
			<point x="61" y="-50" type="line"/>
			<point x="104" y="-50"/>
			<point x="191" y="-1"/>
			<point x="191" y="99" type="curve"/>
			<point x="191" y="149"/>
			<point x="163" y="183"/>
		</contour>
	</outline>
</glyph>
<glyph name="equal" format="2">
	<advance width="493"/>
	<unicode hex="003D"/>
	<outline>
		<contour>
			<point x="54" y="253" type="line"/>
			<point x="54" y="253"/>
			<point x="54" y="224"/>
			<point x="247" y="224" type="curve"/>
			<point x="438" y="224"/>
			<point x="439" y="253"/>
			<point x="439" y="253" type="curve"/>
			<point x="468" y="253" type="line"/>
			<point x="468" y="88" type="line"/>
			<point x="439" y="88" type="line"/>
			<point x="439" y="88"/>
			<point x="438" y="117"/>
			<point x="247" y="117" type="curve"/>
			<point x="54" y="117"/>
			<point x="54" y="88"/>
			<point x="54" y="88" type="curve"/>
			<point x="25" y="88" type="line"/>
			<point x="25" y="253" type="line"/>
		</contour>
		<contour>
			<point x="54" y="468" type="line"/>
			<point x="54" y="468"/>
			<point x="54" y="439"/>
			<point x="247" y="439" type="curve"/>
			<point x="438" y="439"/>
			<point x="439" y="468"/>
			<point x="439" y="468" type="curve"/>
			<point x="468" y="468" type="line"/>
			<point x="468" y="303" type="line"/>
			<point x="439" y="303" type="line"/>
			<point x="439" y="303"/>
			<point x="438" y="332"/>
			<point x="247" y="332" type="curve"/>
			<point x="54" y="332"/>
			<point x="54" y="303"/>
			<point x="54" y="303" type="curve"/>
			<point x="25" y="303" type="line"/>
			<point x="25" y="468" type="line"/>
		</contour>
	</outline>
</glyph>
<glyph name="greater" format="2">
	<advance width="486"/>
	<unicode hex="003E"/>
	<outline>
		<contour>
			<point x="25" y="145" type="line"/>
			<point x="50" y="160" type="line"/>
			<point x="50" y="160"/>
			<point x="65" y="135"/>
			<point x="232" y="231" type="curve" smooth="yes"/>
			<point x="266" y="251"/>
			<point x="292" y="267"/>
			<point x="313" y="281" type="curve"/>
			<point x="292" y="295"/>
			<point x="266" y="311"/>
			<point x="232" y="331" type="curve" smooth="yes"/>
			<point x="66" y="429"/>
			<point x="50" y="402"/>
			<point x="50" y="402" type="curve"/>
			<point x="25" y="417" type="line"/>
			<point x="112" y="557" type="line"/>
			<point x="137" y="543" type="line"/>
			<point x="137" y="543"/>
			<point x="122" y="518"/>
			<point x="290" y="421" type="curve" smooth="yes"/>
			<point x="455" y="326"/>
			<point x="470" y="330"/>
			<point x="470" y="330" type="curve"/>
			<point x="471" y="232" type="line"/>
			<point x="471" y="232"/>
			<point x="456" y="236"/>
			<point x="291" y="141" type="curve" smooth="yes"/>
			<point x="123" y="44"/>
			<point x="138" y="19"/>
			<point x="138" y="19" type="curve"/>
			<point x="113" y="5" type="line"/>
		</contour>
	</outline>
</glyph>
<glyph name="question" format="2">
	<advance width="651"/>
	<unicode hex="003F"/>
	<outline>
		<contour>
			<point x="358" y="251" type="curve"/>
			<point x="358" y="312"/>
			<point x="626" y="349"/>
			<point x="626" y="540" type="curve"/>
			<point x="626" y="701"/>
			<point x="468" y="782"/>
			<point x="315" y="782" type="curve" smooth="yes"/>
			<point x="168" y="782"/>
			<point x="25" y="708"/>
			<point x="25" y="560" type="curve"/>
			<point x="25" y="428"/>
			<point x="141" y="367"/>
			<point x="239" y="367" type="curve"/>
			<point x="316" y="367"/>
			<point x="388" y="433"/>
			<point x="388" y="433" type="curve"/>
			<point x="361" y="460" type="line"/>
			<point x="361" y="460"/>
			<point x="320" y="424"/>
			<point x="266" y="424" type="curve"/>
			<point x="204" y="424"/>
			<point x="173" y="469"/>
			<point x="173" y="519" type="curve" smooth="yes"/>
			<point x="173" y="579"/>
			<point x="218" y="644"/>
			<point x="309" y="644" type="curve"/>
			<point x="409" y="644"/>
			<point x="450" y="571"/>
			<point x="450" y="519" type="curve"/>
			<point x="450" y="372"/>
			<point x="271" y="350"/>
			<point x="271" y="258" type="curve"/>
			<point x="271" y="212"/>
			<point x="310" y="184"/>
			<point x="350" y="184" type="curve"/>
			<point x="395" y="184"/>
			<point x="427" y="207"/>
			<point x="427" y="252" type="curve"/>
			<point x="408" y="252"/>
			<point x="398" y="252"/>
			<point x="398" y="252" type="curve"/>
			<point x="398" y="252"/>
			<point x="398" y="227"/>
			<point x="377" y="227" type="curve"/>
			<point x="365" y="227"/>
			<point x="358" y="236"/>
		</contour>
		<contour>
			<point x="442" y="62" type="curve"/>
			<point x="442" y="11"/>
			<point x="401" y="-30"/>
			<point x="351" y="-30" type="curve"/>
			<point x="300" y="-30"/>
			<point x="259" y="11"/>
			<point x="259" y="62" type="curve"/>
			<point x="259" y="112"/>
			<point x="300" y="153"/>
			<point x="351" y="153" type="curve"/>
			<point x="401" y="153"/>
			<point x="442" y="112"/>
		</contour>
	</outline>
</glyph>
<glyph name="at" format="2">
	<advance width="815"/>
	<unicode hex="0040"/>
	<outline>
		<contour>
			<point x="378" y="305" type="curve"/>
			<point x="399" y="305"/>
			<point x="410" y="296"/>
			<point x="410" y="296" type="curve"/>
			<point x="435" y="320" type="line"/>
			<point x="435" y="320"/>
			<point x="398" y="344"/>
			<point x="349" y="344" type="curve"/>
			<point x="282" y="344"/>
			<point x="237" y="315"/>
			<point x="237" y="247" type="curve"/>
			<point x="237" y="191"/>
			<point x="275" y="143"/>
			<point x="378" y="143" type="curve"/>
			<point x="486" y="143"/>
			<point x="506" y="183"/>
			<point x="506" y="183" type="curve"/>
			<point x="506" y="183"/>
			<point x="528" y="142"/>
			<point x="607" y="142" type="curve"/>
			<point x="718" y="142"/>
			<point x="790" y="268"/>
			<point x="790" y="400" type="curve"/>
			<point x="790" y="532"/>
			<point x="683" y="729"/>
			<point x="421" y="729" type="curve"/>
			<point x="155" y="729"/>
			<point x="25" y="530"/>
			<point x="25" y="334" type="curve"/>
			<point x="25" y="84"/>
			<point x="257" y="-29"/>
			<point x="416" y="-29" type="curve"/>
			<point x="569" y="-29"/>
			<point x="668" y="97"/>
			<point x="668" y="97" type="curve"/>
			<point x="651" y="114" type="line"/>
			<point x="651" y="114"/>
			<point x="589" y="47"/>
			<point x="440" y="47" type="curve"/>
			<point x="274" y="47"/>
			<point x="183" y="167"/>
			<point x="183" y="334" type="curve"/>
			<point x="183" y="477"/>
			<point x="260" y="610"/>
			<point x="421" y="610" type="curve"/>
			<point x="579" y="610"/>
			<point x="651" y="497"/>
			<point x="651" y="390" type="curve"/>
			<point x="651" y="260"/>
			<point x="638" y="209"/>
			<point x="607" y="209" type="curve"/>
			<point x="577" y="209"/>
			<point x="576" y="250"/>
			<point x="576" y="334" type="curve"/>
			<point x="576" y="475"/>
			<point x="469" y="507"/>
			<point x="415" y="507" type="curve"/>
			<point x="354" y="507"/>
			<point x="303" y="475"/>
			<point x="303" y="425" type="curve"/>
			<point x="303" y="373"/>
			<point x="355" y="359"/>
			<point x="375" y="359" type="curve"/>
			<point x="375" y="364"/>
			<point x="375" y="377"/>
			<point x="375" y="383" type="curve"/>
			<point x="364" y="383"/>
			<point x="349" y="390"/>
			<point x="349" y="407" type="curve"/>
			<point x="349" y="421"/>
			<point x="362" y="430"/>
			<point x="388" y="430" type="curve"/>
			<point x="428" y="430"/>
			<point x="451" y="405"/>
			<point x="451" y="327" type="curve"/>
			<point x="451" y="301" type="line"/>
			<point x="451" y="243"/>
			<point x="415" y="220"/>
			<point x="380" y="220" type="curve"/>
			<point x="360" y="220"/>
			<point x="334" y="235"/>
			<point x="334" y="263" type="curve"/>
			<point x="334" y="295"/>
			<point x="356" y="305"/>
		</contour>
	</outline>
</glyph>
<glyph name="A" format="2">
	<advance width="920"/>
	<unicode hex="0041"/>
	<anchor x="838" y="10" name="ogonek"/>
	<anchor x="455" y="0" name="bottom"/>
	<anchor x="455" y="700" name="top"/>
	<outline>
		<contour>
			<point x="657" y="495" type="curve" smooth="yes"/>
			<point x="657" y="628"/>
			<point x="689" y="671"/>
			<point x="714" y="671" type="curve"/>
			<point x="714" y="700" type="line"/>
			<point x="206" y="700" type="line"/>
			<point x="206" y="671" type="line"/>
			<point x="231" y="671"/>
			<point x="263" y="628"/>
			<point x="263" y="495" type="curve" smooth="yes"/>
			<point x="263" y="242"/>
			<point x="172" y="29"/>
			<point x="25" y="29" type="curve"/>
			<point x="25" y="0" type="line"/>
			<point x="442" y="0" type="line"/>
			<point x="442" y="29" type="line"/>
			<point x="422" y="29"/>
			<point x="357" y="44"/>
			<point x="357" y="118" type="curve"/>
			<point x="357" y="195"/>
			<point x="422" y="207"/>
			<point x="455" y="207" type="curve"/>
			<point x="488" y="207"/>
			<point x="553" y="190"/>
			<point x="553" y="118" type="curve"/>
			<point x="553" y="44"/>
			<point x="488" y="29"/>
			<point x="468" y="29" type="curve"/>
			<point x="468" y="0" type="line"/>
			<point x="895" y="0" type="line"/>
			<point x="895" y="29" type="line"/>
			<point x="748" y="29"/>
			<point x="657" y="242"/>
		</contour>
		<contour>
			<point x="455" y="289" type="curve"/>
			<point x="429" y="289"/>
			<point x="405" y="303"/>
			<point x="405" y="337" type="curve"/>
			<point x="405" y="415"/>
			<point x="450" y="492"/>
			<point x="450" y="540" type="curve"/>
			<point x="460" y="540" type="line"/>
			<point x="460" y="492"/>
			<point x="505" y="415"/>
			<point x="505" y="337" type="curve"/>
			<point x="505" y="303"/>
			<point x="481" y="289"/>
		</contour>
	</outline>
</glyph>
<glyph name="B" format="2">
	<advance width="842"/>
	<unicode hex="0042"/>
	<anchor x="436" y="700" name="top"/>
	<anchor x="436" y="0" name="bottom"/>
	<outline>
		<contour>
			<point x="25" y="29" type="curve"/>
			<point x="25" y="0" type="line"/>
			<point x="535" y="0" type="line" smooth="yes"/>
			<point x="693" y="0"/>
			<point x="817" y="116"/>
			<point x="817" y="266" type="curve" smooth="yes"/>
			<point x="817" y="420"/>
			<point x="711" y="496"/>
			<point x="633" y="521" type="curve"/>
			<point x="651" y="541"/>
			<point x="662" y="565"/>
			<point x="662" y="594" type="curve" smooth="yes"/>
			<point x="662" y="658"/>
			<point x="593" y="700"/>
			<point x="490" y="700" type="curve" smooth="yes"/>
			<point x="25" y="700" type="line"/>
			<point x="25" y="671" type="line"/>
			<point x="151" y="671"/>
			<point x="214" y="511"/>
			<point x="214" y="350" type="curve" smooth="yes"/>
			<point x="214" y="190"/>
			<point x="151" y="29"/>
		</contour>
		<contour>
			<point x="389" y="350" type="curve" smooth="yes"/>
			<point x="389" y="474"/>
			<point x="409" y="550"/>
			<point x="440" y="597" type="curve"/>
			<point x="455" y="616"/>
			<point x="472" y="626"/>
			<point x="490" y="626" type="curve" smooth="yes"/>
			<point x="524" y="626"/>
			<point x="536" y="597"/>
			<point x="536" y="575" type="curve" smooth="yes"/>
			<point x="536" y="510"/>
			<point x="425" y="462"/>
			<point x="425" y="462" type="curve"/>
			<point x="431" y="433" type="line"/>
			<point x="459" y="436"/>
			<point x="587" y="443"/>
			<point x="587" y="300" type="curve" smooth="yes"/>
			<point x="587" y="190"/>
			<point x="536" y="124"/>
			<point x="444" y="117" type="curve"/>
			<point x="413" y="165"/>
			<point x="389" y="238"/>
		</contour>
	</outline>
</glyph>
<glyph name="C" format="2">
	<advance width="765"/>
	<unicode hex="0043"/>
	<guideline x="237" y="592" angle="0"/>
	<anchor x="437" y="700" name="top"/>
	<anchor x="398" y="0" name="bottom"/>
	<outline>
		<contour>
			<point x="726" y="294" type="curve"/>
			<point x="693" y="308" type="line"/>
			<point x="662" y="223"/>
			<point x="605" y="155"/>
			<point x="490" y="155" type="curve"/>
			<point x="317" y="155"/>
			<point x="250" y="270"/>
			<point x="250" y="388" type="curve"/>
			<point x="250" y="514"/>
			<point x="349" y="592"/>
			<point x="452" y="592" type="curve" smooth="yes"/>
			<point x="585" y="592"/>
			<point x="674" y="496"/>
			<point x="674" y="351" type="curve"/>
			<point x="705" y="351" type="line"/>
			<point x="740" y="700" type="line"/>
			<point x="740" y="700"/>
			<point x="670" y="700"/>
			<point x="564" y="700" type="curve" smooth="yes"/>
			<point x="317" y="700"/>
			<point x="25" y="626"/>
			<point x="25" y="338" type="curve"/>
			<point x="25" y="106"/>
			<point x="227" y="-22"/>
			<point x="380" y="-22" type="curve"/>
			<point x="627" y="-22"/>
			<point x="713" y="188"/>
		</contour>
	</outline>
</glyph>
<glyph name="D" format="2">
	<advance width="872"/>
	<unicode hex="0044"/>
	<guideline x="214" y="477" angle="90"/>
	<anchor x="431" y="350" name="center"/>
	<anchor x="431" y="0" name="bottom"/>
	<anchor x="431" y="700" name="top"/>
	<outline>
		<contour>
			<point x="25" y="29" type="curve"/>
			<point x="25" y="0" type="line"/>
			<point x="398" y="0" type="line" smooth="yes"/>
			<point x="620" y="0"/>
			<point x="847" y="99"/>
			<point x="847" y="357" type="curve" smooth="yes"/>
			<point x="847" y="563"/>
			<point x="671" y="700"/>
			<point x="408" y="700" type="curve" smooth="yes"/>
			<point x="25" y="700" type="line"/>
			<point x="25" y="671" type="line"/>
			<point x="151" y="671"/>
			<point x="214" y="511"/>
			<point x="214" y="350" type="curve" smooth="yes"/>
			<point x="214" y="190"/>
			<point x="151" y="29"/>
		</contour>
		<contour>
			<point x="378" y="350" type="curve" smooth="yes"/>
			<point x="378" y="368" type="line" smooth="yes"/>
			<point x="378" y="406"/>
			<point x="395" y="612"/>
			<point x="497" y="612" type="curve" smooth="yes"/>
			<point x="564" y="612"/>
			<point x="611" y="546"/>
			<point x="611" y="407" type="curve" smooth="yes"/>
			<point x="611" y="242"/>
			<point x="495" y="123"/>
			<point x="430" y="123" type="curve"/>
			<point x="401" y="170"/>
			<point x="378" y="242"/>
		</contour>
	</outline>
</glyph>
<glyph name="E" format="2">
	<advance width="809"/>
	<unicode hex="0045"/>
	<anchor x="725" y="10" name="ogonek"/>
	<anchor x="450" y="700" name="top"/>
	<anchor x="25" y="700" name="topleft"/>
	<anchor x="410" y="0" name="bottom"/>
	<outline>
		<contour>
			<point x="25" y="29" type="curve"/>
			<point x="25" y="0" type="line"/>
			<point x="784" y="0" type="line"/>
			<point x="750" y="338" type="line"/>
			<point x="721" y="338" type="line"/>
			<point x="721" y="338"/>
			<point x="721" y="88"/>
			<point x="519" y="88" type="curve" smooth="yes"/>
			<point x="445" y="88"/>
			<point x="396" y="150"/>
			<point x="396" y="242" type="curve" smooth="yes"/>
			<point x="396" y="279"/>
			<point x="416" y="300"/>
			<point x="450" y="300" type="curve" smooth="yes"/>
			<point x="514" y="300"/>
			<point x="572" y="234"/>
			<point x="572" y="175" type="curve"/>
			<point x="601" y="175" type="line"/>
			<point x="601" y="525" type="line"/>
			<point x="572" y="525" type="line"/>
			<point x="572" y="466"/>
			<point x="514" y="401"/>
			<point x="450" y="401" type="curve" smooth="yes"/>
			<point x="418" y="401"/>
			<point x="396" y="418"/>
			<point x="396" y="458" type="curve" smooth="yes"/>
			<point x="396" y="550"/>
			<point x="445" y="612"/>
			<point x="519" y="612" type="curve" smooth="yes"/>
			<point x="721" y="612"/>
			<point x="721" y="362"/>
			<point x="721" y="362" type="curve"/>
			<point x="750" y="362" type="line"/>
			<point x="784" y="700" type="line"/>
			<point x="25" y="700" type="line"/>
			<point x="25" y="671" type="line"/>
			<point x="151" y="671"/>
			<point x="214" y="511"/>
			<point x="214" y="350" type="curve" smooth="yes"/>
			<point x="214" y="190"/>
			<point x="151" y="29"/>
		</contour>
	</outline>
</glyph>
<glyph name="F" format="2">
	<advance width="798"/>
	<unicode hex="0046"/>
	<anchor x="399" y="700" name="top"/>
	<anchor x="399" y="0" name="bottom"/>
	<outline>
		<contour>
			<point x="25" y="29" type="curve"/>
			<point x="25" y="0" type="line"/>
			<point x="568" y="0" type="line"/>
			<point x="568" y="30" type="line"/>
			<point x="568" y="30"/>
			<point x="385" y="30"/>
			<point x="385" y="243" type="curve" smooth="yes"/>
			<point x="385" y="293"/>
			<point x="416" y="300"/>
			<point x="439" y="300" type="curve" smooth="yes"/>
			<point x="503" y="300"/>
			<point x="562" y="234"/>
			<point x="562" y="175" type="curve"/>
			<point x="591" y="175" type="line"/>
			<point x="591" y="526" type="line"/>
			<point x="562" y="526" type="line"/>
			<point x="562" y="467"/>
			<point x="503" y="401"/>
			<point x="439" y="401" type="curve" smooth="yes"/>
			<point x="412" y="401"/>
			<point x="385" y="417"/>
			<point x="385" y="452" type="curve"/>
			<point x="385" y="452"/>
			<point x="376" y="613"/>
			<point x="509" y="613" type="curve" smooth="yes"/>
			<point x="710" y="613"/>
			<point x="710" y="363"/>
			<point x="710" y="363" type="curve"/>
			<point x="739" y="363" type="line"/>
			<point x="773" y="700" type="line"/>
			<point x="25" y="700" type="line"/>
			<point x="25" y="671" type="line"/>
			<point x="151" y="671"/>
			<point x="214" y="511"/>
			<point x="214" y="350" type="curve" smooth="yes"/>
			<point x="214" y="190"/>
			<point x="151" y="29"/>
		</contour>
	</outline>
</glyph>
<glyph name="G" format="2">
	<advance width="795"/>
	<unicode hex="0047"/>
	<anchor x="443" y="700" name="top"/>
	<anchor x="403" y="0" name="bottom"/>
	<outline>
		<contour>
			<point x="378" y="464" type="curve" smooth="yes"/>
			<point x="304" y="464" type="line"/>
			<point x="333" y="250" type="line"/>
			<point x="352" y="250" type="line"/>
			<point x="352" y="309"/>
			<point x="387" y="387"/>
			<point x="482" y="387" type="curve"/>
			<point x="532" y="387"/>
			<point x="586" y="351"/>
			<point x="586" y="290" type="curve"/>
			<point x="586" y="209"/>
			<point x="513" y="155"/>
			<point x="423" y="155" type="curve"/>
			<point x="284" y="155"/>
			<point x="219" y="259"/>
			<point x="219" y="378" type="curve"/>
			<point x="219" y="500"/>
			<point x="301" y="586"/>
			<point x="414" y="586" type="curve"/>
			<point x="626" y="586"/>
			<point x="704" y="452"/>
			<point x="704" y="351" type="curve"/>
			<point x="734" y="351" type="line"/>
			<point x="770" y="700" type="line"/>
			<point x="604" y="700" type="line" smooth="yes"/>
			<point x="284" y="700"/>
			<point x="25" y="626"/>
			<point x="25" y="338" type="curve"/>
			<point x="25" y="90"/>
			<point x="223" y="-22"/>
			<point x="402" y="-22" type="curve"/>
			<point x="568" y="-22"/>
			<point x="709" y="81"/>
			<point x="709" y="209" type="curve"/>
			<point x="709" y="361"/>
			<point x="607" y="464"/>
		</contour>
	</outline>
</glyph>
<glyph name="H" format="2">
	<advance width="988"/>
	<unicode hex="0048"/>
	<anchor x="489" y="350" name="center"/>
	<anchor x="489" y="700" name="top"/>
	<anchor x="25" y="700" name="topleft"/>
	<anchor x="489" y="0" name="bottom"/>
	<outline>
		<contour>
			<point x="25" y="29" type="curve"/>
			<point x="25" y="0" type="line"/>
			<point x="478" y="0" type="line"/>
			<point x="478" y="29" type="line"/>
			<point x="448" y="29"/>
			<point x="381" y="58"/>
			<point x="381" y="155" type="curve" smooth="yes"/>
			<point x="381" y="262"/>
			<point x="447" y="281"/>
			<point x="489" y="282" type="curve" smooth="yes"/>
			<point x="531" y="281"/>
			<point x="597" y="262"/>
			<point x="597" y="155" type="curve" smooth="yes"/>
			<point x="597" y="58"/>
			<point x="530" y="29"/>
			<point x="500" y="29" type="curve"/>
			<point x="500" y="0" type="line"/>
			<point x="963" y="0" type="line"/>
			<point x="963" y="29" type="line"/>
			<point x="837" y="29"/>
			<point x="774" y="190"/>
			<point x="774" y="350" type="curve" smooth="yes"/>
			<point x="774" y="511"/>
			<point x="837" y="671"/>
			<point x="963" y="671" type="curve"/>
			<point x="963" y="700" type="line"/>
			<point x="500" y="700" type="line"/>
			<point x="500" y="671" type="line"/>
			<point x="530" y="671"/>
			<point x="597" y="642"/>
			<point x="597" y="544" type="curve" smooth="yes"/>
			<point x="597" y="438"/>
			<point x="531" y="418"/>
			<point x="489" y="418" type="curve" smooth="yes"/>
			<point x="447" y="418"/>
			<point x="381" y="438"/>
			<point x="381" y="544" type="curve" smooth="yes"/>
			<point x="381" y="642"/>
			<point x="448" y="671"/>
			<point x="478" y="671" type="curve"/>
			<point x="478" y="700" type="line"/>
			<point x="25" y="700" type="line"/>
			<point x="25" y="671" type="line"/>
			<point x="151" y="671"/>
			<point x="214" y="511"/>
			<point x="214" y="350" type="curve" smooth="yes"/>
			<point x="214" y="190"/>
			<point x="151" y="29"/>
		</contour>
	</outline>
</glyph>
<glyph name="I" format="2">
	<advance width="604"/>
	<unicode hex="0049"/>
	<guideline x="385" y="350" angle="90"/>
	<guideline x="219" y="350" angle="90"/>
	<anchor x="536" y="10" name="ogonek"/>
	<anchor x="302" y="700" name="top"/>
	<anchor x="30" y="700" name="topleft"/>
	<anchor x="312" y="0" name="bottom"/>
	<outline>
		<contour>
			<point x="25" y="29" type="curve"/>
			<point x="25" y="0" type="line"/>
			<point x="579" y="0" type="line"/>
			<point x="579" y="29" type="line"/>
			<point x="463" y="29"/>
			<point x="385" y="157"/>
			<point x="385" y="350" type="curve" smooth="yes"/>
			<point x="385" y="543"/>
			<point x="463" y="671"/>
			<point x="579" y="671" type="curve"/>
			<point x="579" y="700" type="line"/>
			<point x="25" y="700" type="line"/>
			<point x="25" y="671" type="line"/>
			<point x="141" y="671"/>
			<point x="219" y="543"/>
			<point x="219" y="350" type="curve" smooth="yes"/>
			<point x="219" y="157"/>
			<point x="141" y="29"/>
		</contour>
	</outline>
</glyph>
<glyph name="J" format="2">
	<advance width="765"/>
	<unicode hex="004A"/>
	<anchor x="363" y="700" name="top"/>
	<anchor x="363" y="0" name="bottom"/>
	<outline>
		<contour>
			<point x="288" y="700" type="line"/>
			<point x="288" y="670" type="line"/>
			<point x="391" y="670"/>
			<point x="459" y="568"/>
			<point x="459" y="416" type="curve" smooth="yes"/>
			<point x="459" y="284"/>
			<point x="405" y="155"/>
			<point x="294" y="155" type="curve" smooth="yes"/>
			<point x="237" y="155"/>
			<point x="188" y="195"/>
			<point x="188" y="266" type="curve" smooth="yes"/>
			<point x="188" y="414"/>
			<point x="398" y="434"/>
			<point x="398" y="434" type="curve"/>
			<point x="398" y="464" type="line"/>
			<point x="351" y="464"/>
			<point x="15" y="470"/>
			<point x="15" y="201" type="curve" smooth="yes"/>
			<point x="15" y="53"/>
			<point x="143" y="-50"/>
			<point x="289" y="-50" type="curve" smooth="yes"/>
			<point x="431" y="-50"/>
			<point x="651" y="39"/>
			<point x="651" y="371" type="curve" smooth="yes"/>
			<point x="651" y="436" type="line" smooth="yes"/>
			<point x="651" y="630"/>
			<point x="698" y="670"/>
			<point x="740" y="670" type="curve"/>
			<point x="740" y="700" type="line"/>
		</contour>
	</outline>
</glyph>
<glyph name="K" format="2">
	<advance width="919"/>
	<unicode hex="004B"/>
	<anchor x="435" y="700" name="top"/>
	<anchor x="435" y="0" name="bottom"/>
	<outline>
		<contour>
			<point x="25" y="29" type="curve"/>
			<point x="25" y="0" type="line"/>
			<point x="477" y="0" type="line"/>
			<point x="477" y="29" type="line"/>
			<point x="477" y="29"/>
			<point x="381" y="29"/>
			<point x="381" y="276" type="curve"/>
			<point x="484" y="276"/>
			<point x="536" y="145"/>
			<point x="536" y="87" type="curve" smooth="yes"/>
			<point x="536" y="29"/>
			<point x="502" y="29"/>
			<point x="502" y="29" type="curve"/>
			<point x="502" y="0" type="line"/>
			<point x="894" y="0" type="line"/>
			<point x="894" y="29" type="line"/>
			<point x="776" y="29"/>
			<point x="684" y="235"/>
			<point x="611" y="332" type="curve"/>
			<point x="671" y="500"/>
			<point x="806" y="671"/>
			<point x="894" y="671" type="curve"/>
			<point x="894" y="700" type="line"/>
			<point x="492" y="700" type="line"/>
			<point x="492" y="671" type="line"/>
			<point x="492" y="671"/>
			<point x="539" y="671"/>
			<point x="539" y="565" type="curve" smooth="yes"/>
			<point x="539" y="476"/>
			<point x="493" y="388"/>
			<point x="450" y="388" type="curve" smooth="yes"/>
			<point x="404" y="388"/>
			<point x="380" y="436"/>
			<point x="380" y="508" type="curve" smooth="yes"/>
			<point x="380" y="671"/>
			<point x="467" y="671"/>
			<point x="467" y="671" type="curve"/>
			<point x="467" y="700" type="line"/>
			<point x="25" y="700" type="line"/>
			<point x="25" y="671" type="line"/>
			<point x="151" y="671"/>
			<point x="214" y="511"/>
			<point x="214" y="350" type="curve" smooth="yes"/>
			<point x="214" y="190"/>
			<point x="151" y="29"/>
		</contour>
	</outline>
</glyph>
<glyph name="L" format="2">
	<advance width="788"/>
	<unicode hex="004C"/>
	<anchor x="399" y="350" name="center"/>
	<anchor x="309" y="700" name="top"/>
	<anchor x="763" y="700" name="topright"/>
	<anchor x="399" y="0" name="bottom"/>
	<outline>
		<contour>
			<point x="25" y="29" type="curve"/>
			<point x="25" y="0" type="line"/>
			<point x="763" y="0" type="line"/>
			<point x="729" y="451" type="line"/>
			<point x="700" y="451" type="line"/>
			<point x="700" y="451"/>
			<point x="700" y="88"/>
			<point x="534" y="88" type="curve" smooth="yes"/>
			<point x="414" y="88"/>
			<point x="391" y="255"/>
			<point x="391" y="350" type="curve" smooth="yes"/>
			<point x="391" y="511"/>
			<point x="452" y="671"/>
			<point x="578" y="671" type="curve"/>
			<point x="578" y="700" type="line"/>
			<point x="25" y="700" type="line"/>
			<point x="25" y="671" type="line"/>
			<point x="151" y="671"/>
			<point x="214" y="511"/>
			<point x="214" y="350" type="curve" smooth="yes"/>
			<point x="214" y="190"/>
			<point x="151" y="29"/>
		</contour>
	</outline>
</glyph>
<glyph name="M" format="2">
	<advance width="1034"/>
	<unicode hex="004D"/>
	<anchor x="512" y="700" name="top"/>
	<anchor x="512" y="0" name="bottom"/>
	<outline>
		<contour>
			<point x="25" y="29" type="curve"/>
			<point x="25" y="0" type="line"/>
			<point x="476" y="0" type="line"/>
			<point x="476" y="29" type="line"/>
			<point x="476" y="29"/>
			<point x="362" y="29"/>
			<point x="362" y="197" type="curve" smooth="yes"/>
			<point x="362" y="279"/>
			<point x="389" y="334"/>
			<point x="429" y="334" type="curve" smooth="yes"/>
			<point x="487" y="334"/>
			<point x="501" y="201"/>
			<point x="501" y="1" type="curve"/>
			<point x="523" y="1" type="line"/>
			<point x="523" y="201"/>
			<point x="537" y="334"/>
			<point x="595" y="334" type="curve" smooth="yes"/>
			<point x="636" y="334"/>
			<point x="663" y="279"/>
			<point x="663" y="197" type="curve" smooth="yes"/>
			<point x="663" y="29"/>
			<point x="548" y="29"/>
			<point x="548" y="29" type="curve"/>
			<point x="548" y="0" type="line"/>
			<point x="1009" y="0" type="line"/>
			<point x="1009" y="29" type="line"/>
			<point x="883" y="29"/>
			<point x="820" y="190"/>
			<point x="820" y="350" type="curve" smooth="yes"/>
			<point x="820" y="511"/>
			<point x="883" y="671"/>
			<point x="1009" y="671" type="curve"/>
			<point x="1009" y="700" type="line"/>
			<point x="524" y="700" type="line"/>
			<point x="524" y="671" type="line"/>
			<point x="558" y="671"/>
			<point x="580" y="643"/>
			<point x="580" y="600" type="curve" smooth="yes"/>
			<point x="580" y="540"/>
			<point x="512" y="446"/>
			<point x="512" y="446" type="curve"/>
			<point x="512" y="446"/>
			<point x="444" y="540"/>
			<point x="444" y="600" type="curve" smooth="yes"/>
			<point x="444" y="643"/>
			<point x="466" y="671"/>
			<point x="500" y="671" type="curve"/>
			<point x="500" y="700" type="line"/>
			<point x="25" y="700" type="line"/>
			<point x="25" y="671" type="line"/>
			<point x="151" y="671"/>
			<point x="214" y="511"/>
			<point x="214" y="350" type="curve" smooth="yes"/>
			<point x="214" y="190"/>
			<point x="151" y="29"/>
		</contour>
	</outline>
</glyph>
<glyph name="N" format="2">
	<advance width="1019"/>
	<unicode hex="004E"/>
	<guideline x="252" y="398" angle="0"/>
	<anchor x="500" y="700" name="top"/>
	<anchor x="500" y="0" name="bottom"/>
	<outline>
		<contour>
			<point x="25" y="29" type="curve"/>
			<point x="25" y="0" type="line"/>
			<point x="487" y="0" type="line"/>
			<point x="487" y="29" type="line"/>
			<point x="418" y="29"/>
			<point x="372" y="115"/>
			<point x="372" y="244" type="curve" smooth="yes"/>
			<point x="372" y="340"/>
			<point x="406" y="398"/>
			<point x="454" y="398" type="curve" smooth="yes"/>
			<point x="479" y="398"/>
			<point x="508" y="383"/>
			<point x="538" y="347" type="curve" smooth="yes"/>
			<point x="574" y="305"/>
			<point x="609" y="236"/>
			<point x="609" y="152" type="curve" smooth="yes"/>
			<point x="609" y="78"/>
			<point x="570" y="29"/>
			<point x="512" y="29" type="curve"/>
			<point x="512" y="0" type="line"/>
			<point x="994" y="0" type="line"/>
			<point x="994" y="29" type="line"/>
			<point x="868" y="29"/>
			<point x="805" y="190"/>
			<point x="805" y="350" type="curve" smooth="yes"/>
			<point x="805" y="511"/>
			<point x="868" y="671"/>
			<point x="994" y="671" type="curve"/>
			<point x="994" y="700" type="line"/>
			<point x="586" y="700" type="line"/>
			<point x="586" y="671" type="line"/>
			<point x="634" y="671"/>
			<point x="666" y="613"/>
			<point x="666" y="527" type="curve" smooth="yes"/>
			<point x="666" y="502"/>
			<point x="664" y="472"/>
			<point x="658" y="438" type="curve"/>
			<point x="601" y="468"/>
			<point x="512" y="526"/>
			<point x="512" y="612" type="curve" smooth="yes"/>
			<point x="512" y="647"/>
			<point x="532" y="671"/>
			<point x="561" y="671" type="curve"/>
			<point x="561" y="700" type="line"/>
			<point x="25" y="700" type="line"/>
			<point x="25" y="671" type="line"/>
			<point x="151" y="671"/>
			<point x="214" y="511"/>
			<point x="214" y="350" type="curve" smooth="yes"/>
			<point x="214" y="190"/>
			<point x="151" y="29"/>
		</contour>
	</outline>
</glyph>
<glyph name="O" format="2">
	<advance width="901"/>
	<unicode hex="004F"/>
	<anchor x="451" y="350" name="center"/>
	<anchor x="807" y="10" name="ogonek"/>
	<anchor x="451" y="710" name="top"/>
	<anchor x="876" y="670" name="topright"/>
	<anchor x="25" y="700" name="topleft"/>
	<anchor x="441" y="0" name="bottom"/>
	<outline>
		<contour>
			<point x="429" y="148" type="curve"/>
			<point x="273" y="148"/>
			<point x="151" y="276"/>
			<point x="151" y="418" type="curve"/>
			<point x="151" y="584"/>
			<point x="282" y="700"/>
			<point x="421" y="700" type="curve"/>
			<point x="421" y="711"/>
			<point x="421" y="719"/>
			<point x="421" y="729" type="curve"/>
			<point x="190" y="729"/>
			<point x="25" y="545"/>
			<point x="25" y="346" type="curve"/>
			<point x="25" y="143"/>
			<point x="218" y="-30"/>
			<point x="440" y="-30" type="curve" smooth="yes"/>
			<point x="699" y="-30"/>
			<point x="876" y="143"/>
			<point x="876" y="363" type="curve"/>
			<point x="876" y="545"/>
			<point x="715" y="700"/>
			<point x="511" y="700" type="curve"/>
			<point x="327" y="700"/>
			<point x="237" y="584"/>
			<point x="237" y="489" type="curve"/>
			<point x="237" y="330"/>
			<point x="379" y="296"/>
			<point x="379" y="296" type="curve"/>
			<point x="392" y="321" type="line"/>
			<point x="392" y="321"/>
			<point x="354" y="330"/>
			<point x="354" y="380" type="curve"/>
			<point x="354" y="458"/>
			<point x="413" y="509"/>
			<point x="485" y="509" type="curve"/>
			<point x="583" y="509"/>
			<point x="643" y="433"/>
			<point x="643" y="341" type="curve"/>
			<point x="643" y="243"/>
			<point x="557" y="148"/>
		</contour>
	</outline>
</glyph>
<glyph name="P" format="2">
	<advance width="789"/>
	<unicode hex="0050"/>
	<guideline x="-21" y="613" angle="0"/>
	<guideline x="552" y="137" angle="90"/>
	<anchor x="400" y="700" name="top"/>
	<anchor x="400" y="0" name="bottom"/>
	<outline>
		<contour>
			<point x="25" y="29" type="curve"/>
			<point x="25" y="0" type="line"/>
			<point x="578" y="0" type="line"/>
			<point x="578" y="29" type="line"/>
			<point x="452" y="29"/>
			<point x="391" y="190"/>
			<point x="391" y="350" type="curve" smooth="yes"/>
			<point x="391" y="533"/>
			<point x="434" y="613"/>
			<point x="479" y="613" type="curve" smooth="yes"/>
			<point x="526" y="613"/>
			<point x="552" y="546"/>
			<point x="552" y="475" type="curve" smooth="yes"/>
			<point x="552" y="339"/>
			<point x="501" y="248"/>
			<point x="425" y="248" type="curve"/>
			<point x="425" y="219" type="line"/>
			<point x="627" y="219"/>
			<point x="764" y="334"/>
			<point x="764" y="475" type="curve" smooth="yes"/>
			<point x="764" y="616"/>
			<point x="651" y="700"/>
			<point x="479" y="700" type="curve" smooth="yes"/>
			<point x="25" y="700" type="line"/>
			<point x="25" y="671" type="line"/>
			<point x="151" y="671"/>
			<point x="214" y="511"/>
			<point x="214" y="350" type="curve" smooth="yes"/>
			<point x="214" y="190"/>
			<point x="151" y="29"/>
		</contour>
	</outline>
</glyph>
<glyph name="Q" format="2">
	<advance width="887"/>
	<unicode hex="0051"/>
	<anchor x="444" y="700" name="top"/>
	<anchor x="444" y="0" name="bottom"/>
	<outline>
		<contour>
			<point x="25" y="336" type="curve" smooth="yes"/>
			<point x="25" y="535"/>
			<point x="180" y="729"/>
			<point x="411" y="729" type="curve"/>
			<point x="411" y="700" type="line"/>
			<point x="272" y="700"/>
			<point x="141" y="584"/>
			<point x="141" y="408" type="curve" smooth="yes"/>
			<point x="141" y="246"/>
			<point x="263" y="138"/>
			<point x="419" y="138" type="curve" smooth="yes"/>
			<point x="547" y="138"/>
			<point x="633" y="233"/>
			<point x="633" y="331" type="curve" smooth="yes"/>
			<point x="633" y="423"/>
			<point x="573" y="499"/>
			<point x="475" y="499" type="curve" smooth="yes"/>
			<point x="403" y="499"/>
			<point x="344" y="448"/>
			<point x="344" y="370" type="curve" smooth="yes"/>
			<point x="344" y="320"/>
			<point x="382" y="311"/>
			<point x="382" y="311" type="curve"/>
			<point x="369" y="286" type="line"/>
			<point x="369" y="286"/>
			<point x="227" y="320"/>
			<point x="227" y="479" type="curve" smooth="yes"/>
			<point x="227" y="574"/>
			<point x="317" y="700"/>
			<point x="501" y="700" type="curve" smooth="yes"/>
			<point x="705" y="700"/>
			<point x="856" y="535"/>
			<point x="856" y="353" type="curve" smooth="yes"/>
			<point x="856" y="158"/>
			<point x="714" y="12"/>
			<point x="518" y="-22" type="curve"/>
			<point x="592" y="-57"/>
			<point x="667" y="-97"/>
			<point x="728" y="-97" type="curve" smooth="yes"/>
			<point x="796" y="-97"/>
			<point x="802" y="-58"/>
			<point x="802" y="-23" type="curve" smooth="yes"/>
			<point x="802" y="24"/>
			<point x="774" y="52"/>
			<point x="774" y="52" type="curve"/>
			<point x="791" y="74" type="line"/>
			<point x="791" y="74"/>
			<point x="872" y="22"/>
			<point x="872" y="-94" type="curve" smooth="yes"/>
			<point x="872" y="-155"/>
			<point x="834" y="-246"/>
			<point x="719" y="-246" type="curve" smooth="yes"/>
			<point x="545" y="-246"/>
			<point x="458" y="-29"/>
			<point x="297" y="-29" type="curve" smooth="yes"/>
			<point x="213" y="-29"/>
			<point x="191" y="-80"/>
			<point x="191" y="-80" type="curve"/>
			<point x="165" y="-69" type="line"/>
			<point x="165" y="-69"/>
			<point x="185" y="-20"/>
			<point x="249" y="10" type="curve"/>
			<point x="117" y="69"/>
			<point x="25" y="192"/>
		</contour>
	</outline>
</glyph>
<glyph name="R" format="2">
	<advance width="906"/>
	<unicode hex="0052"/>
	<guideline x="487" y="29" angle="90"/>
	<guideline x="563" y="-13" angle="90"/>
	<anchor x="455" y="700" name="top"/>
	<anchor x="455" y="0" name="bottom"/>
	<outline>
		<contour>
			<point x="764" y="475" type="curve" smooth="yes"/>
			<point x="764" y="616"/>
			<point x="651" y="700"/>
			<point x="479" y="700" type="curve" smooth="yes"/>
			<point x="25" y="700" type="line"/>
			<point x="25" y="671" type="line"/>
			<point x="151" y="671"/>
			<point x="214" y="511"/>
			<point x="214" y="350" type="curve" smooth="yes"/>
			<point x="214" y="190"/>
			<point x="151" y="29"/>
			<point x="25" y="29" type="curve"/>
			<point x="25" y="0" type="line"/>
			<point x="487" y="0" type="line"/>
			<point x="487" y="29" type="line"/>
			<point x="429" y="29"/>
			<point x="391" y="157"/>
			<point x="391" y="350" type="curve" smooth="yes"/>
			<point x="391" y="533"/>
			<point x="434" y="613"/>
			<point x="479" y="613" type="curve" smooth="yes"/>
			<point x="522" y="613"/>
			<point x="552" y="556"/>
			<point x="552" y="475" type="curve" smooth="yes"/>
			<point x="552" y="342"/>
			<point x="498" y="248"/>
			<point x="422" y="248" type="curve"/>
			<point x="422" y="219" type="line"/>
			<point x="508" y="219"/>
			<point x="566" y="143"/>
			<point x="566" y="87" type="curve" smooth="yes"/>
			<point x="566" y="56"/>
			<point x="548" y="29"/>
			<point x="509" y="29" type="curve"/>
			<point x="509" y="0" type="line"/>
			<point x="881" y="0" type="line"/>
			<point x="881" y="29" type="line"/>
			<point x="804" y="29"/>
			<point x="700" y="135"/>
			<point x="621" y="293" type="curve"/>
			<point x="597" y="249" type="line"/>
			<point x="697" y="288"/>
			<point x="764" y="379"/>
		</contour>
	</outline>
</glyph>
<glyph name="S" format="2">
	<advance width="688"/>
	<unicode hex="0053"/>
	<anchor x="402" y="700" name="top"/>
	<anchor x="274" y="0" name="bottom"/>
	<outline>
		<contour>
			<point x="663" y="700" type="line"/>
			<point x="452" y="700" type="line" smooth="yes"/>
			<point x="320" y="700"/>
			<point x="159" y="680"/>
			<point x="159" y="570" type="curve" smooth="yes"/>
			<point x="159" y="443"/>
			<point x="426" y="380"/>
			<point x="426" y="262" type="curve" smooth="yes"/>
			<point x="426" y="180"/>
			<point x="364" y="155"/>
			<point x="322" y="155" type="curve" smooth="yes"/>
			<point x="240" y="155"/>
			<point x="149" y="226"/>
			<point x="149" y="319" type="curve" smooth="yes"/>
			<point x="149" y="414"/>
			<point x="215" y="414"/>
			<point x="215" y="414" type="curve"/>
			<point x="215" y="444" type="line"/>
			<point x="105" y="444"/>
			<point x="25" y="380"/>
			<point x="25" y="243" type="curve" smooth="yes"/>
			<point x="25" y="67"/>
			<point x="213" y="-50"/>
			<point x="375" y="-50" type="curve" smooth="yes"/>
			<point x="553" y="-50"/>
			<point x="657" y="50"/>
			<point x="657" y="166" type="curve" smooth="yes"/>
			<point x="657" y="368"/>
			<point x="388" y="441"/>
			<point x="388" y="543" type="curve" smooth="yes"/>
			<point x="388" y="589"/>
			<point x="425" y="609"/>
			<point x="454" y="609" type="curve" smooth="yes"/>
			<point x="597" y="609"/>
			<point x="597" y="350"/>
			<point x="597" y="350" type="curve"/>
			<point x="627" y="350" type="line"/>
		</contour>
	</outline>
</glyph>
<glyph name="T" format="2">
	<advance width="828"/>
	<unicode hex="0054"/>
	<anchor x="414" y="350" name="center"/>
	<anchor x="414" y="0" name="bottom"/>
	<anchor x="414" y="700" name="top"/>
	<outline>
		<contour>
			<point x="25" y="700" type="line"/>
			<point x="59" y="362" type="line"/>
			<point x="59" y="362"/>
			<point x="59" y="362"/>
			<point x="88" y="362" type="curve"/>
			<point x="88" y="456"/>
			<point x="88" y="602"/>
			<point x="191" y="602" type="curve"/>
			<point x="269" y="602"/>
			<point x="321" y="501"/>
			<point x="321" y="350" type="curve"/>
			<point x="321" y="157"/>
			<point x="247" y="29"/>
			<point x="137" y="29" type="curve"/>
			<point x="137" y="0" type="line"/>
			<point x="691" y="0" type="line"/>
			<point x="691" y="29" type="line"/>
			<point x="581" y="29"/>
			<point x="507" y="157"/>
			<point x="507" y="350" type="curve"/>
			<point x="507" y="501"/>
			<point x="559" y="602"/>
			<point x="637" y="602" type="curve"/>
			<point x="740" y="602"/>
			<point x="740" y="456"/>
			<point x="740" y="362" type="curve"/>
			<point x="769" y="362"/>
			<point x="769" y="362"/>
			<point x="769" y="362" type="curve"/>
			<point x="803" y="700" type="line"/>
		</contour>
	</outline>
</glyph>
<glyph name="U" format="2">
	<advance width="909"/>
	<unicode hex="0055"/>
	<guideline x="655" y="158" angle="0"/>
	<anchor x="528" y="10" name="ogonek"/>
	<anchor x="455" y="700" name="top"/>
	<anchor x="859" y="670" name="topright"/>
	<anchor x="455" y="0" name="bottom"/>
	<outline>
		<contour>
			<point x="467" y="700" type="line"/>
			<point x="468" y="670" type="line"/>
			<point x="538" y="670"/>
			<point x="585" y="572"/>
			<point x="585" y="424" type="curve" smooth="yes"/>
			<point x="585" y="232"/>
			<point x="533" y="158"/>
			<point x="455" y="158" type="curve" smooth="yes"/>
			<point x="377" y="158"/>
			<point x="325" y="232"/>
			<point x="325" y="424" type="curve" smooth="yes"/>
			<point x="325" y="572"/>
			<point x="372" y="670"/>
			<point x="442" y="670" type="curve"/>
			<point x="442" y="700" type="line"/>
			<point x="20" y="700" type="line"/>
			<point x="20" y="670" type="line"/>
			<point x="84" y="670"/>
			<point x="126" y="557"/>
			<point x="126" y="387" type="curve" smooth="yes"/>
			<point x="126" y="127"/>
			<point x="244" y="-20"/>
			<point x="455" y="-20" type="curve" smooth="yes"/>
			<point x="659" y="-20"/>
			<point x="774" y="127"/>
			<point x="774" y="387" type="curve" smooth="yes"/>
			<point x="774" y="557"/>
			<point x="820" y="670"/>
			<point x="889" y="670" type="curve"/>
			<point x="889" y="700" type="line"/>
		</contour>
	</outline>
</glyph>
<glyph name="V" format="2">
	<advance width="1009"/>
	<unicode hex="0056"/>
	<anchor x="515" y="700" name="top"/>
	<anchor x="515" y="0" name="bottom"/>
	<outline>
		<contour>
			<point x="502" y="700" type="line"/>
			<point x="502" y="671" type="line"/>
			<point x="502" y="671"/>
			<point x="417" y="671"/>
			<point x="417" y="571" type="curve"/>
			<point x="417" y="466"/>
			<point x="509" y="228"/>
			<point x="509" y="160" type="curve"/>
			<point x="519" y="160" type="line"/>
			<point x="519" y="228"/>
			<point x="611" y="466"/>
			<point x="611" y="571" type="curve"/>
			<point x="611" y="671"/>
			<point x="527" y="671"/>
			<point x="527" y="671" type="curve"/>
			<point x="527" y="700" type="line"/>
			<point x="989" y="700" type="line"/>
			<point x="989" y="671" type="line"/>
			<point x="989" y="671"/>
			<point x="718" y="671"/>
			<point x="718" y="204" type="curve"/>
			<point x="718" y="29"/>
			<point x="808" y="29"/>
			<point x="808" y="29" type="curve"/>
			<point x="808" y="0" type="line"/>
			<point x="201" y="0" type="line"/>
			<point x="200" y="0" type="line"/>
			<point x="200" y="29" type="line"/>
			<point x="200" y="29"/>
			<point x="291" y="29"/>
			<point x="291" y="204" type="curve"/>
			<point x="291" y="671"/>
			<point x="20" y="671"/>
			<point x="20" y="671" type="curve"/>
			<point x="20" y="700" type="line"/>
		</contour>
	</outline>
</glyph>
<glyph name="X" format="2">
	<advance width="981"/>
	<unicode hex="0058"/>
	<guideline x="582" y="447" angle="0"/>
	<guideline x="593" y="247" angle="0"/>
	<guideline x="593" y="295" angle="0"/>
	<guideline x="594" y="410" angle="0"/>
	<anchor x="491" y="700" name="top"/>
	<anchor x="491" y="0" name="bottom"/>
	<outline>
		<contour>
			<point x="956" y="700" type="curve"/>
			<point x="503" y="700" type="line"/>
			<point x="503" y="671" type="line"/>
			<point x="503" y="671"/>
			<point x="550" y="671"/>
			<point x="550" y="619" type="curve"/>
			<point x="550" y="577"/>
			<point x="526" y="515"/>
			<point x="482" y="447" type="curve"/>
			<point x="435" y="410" type="line"/>
			<point x="310" y="232"/>
			<point x="107" y="29"/>
			<point x="25" y="29" type="curve"/>
			<point x="25" y="0"/>
			<point x="25" y="0"/>
			<point x="25" y="0" type="curve"/>
			<point x="479" y="0" type="line"/>
			<point x="479" y="29" type="line"/>
			<point x="479" y="29"/>
			<point x="430" y="34"/>
			<point x="430" y="70" type="curve"/>
			<point x="430" y="103"/>
			<point x="454" y="170"/>
			<point x="499" y="247" type="curve"/>
			<point x="547" y="296" type="line"/>
			<point x="660" y="470"/>
			<point x="827" y="671"/>
			<point x="956" y="671" type="curve"/>
			<point x="956" y="700"/>
			<point x="956" y="700"/>
		</contour>
		<contour>
			<point x="25" y="700" type="line"/>
			<point x="25" y="700"/>
			<point x="25" y="700"/>
			<point x="25" y="671" type="curve"/>
			<point x="75" y="671"/>
			<point x="323" y="469"/>
			<point x="435" y="295" type="curve"/>
			<point x="483" y="246" type="line"/>
			<point x="528" y="169"/>
			<point x="550" y="103"/>
			<point x="550" y="70" type="curve"/>
			<point x="550" y="34"/>
			<point x="503" y="29"/>
			<point x="503" y="29" type="curve"/>
			<point x="503" y="0" type="line"/>
			<point x="956" y="0" type="line"/>
			<point x="956" y="0"/>
			<point x="956" y="0"/>
			<point x="956" y="29" type="curve"/>
			<point x="905" y="29"/>
			<point x="671" y="232"/>
			<point x="547" y="410" type="curve"/>
			<point x="499" y="447" type="line"/>
			<point x="455" y="515"/>
			<point x="430" y="577"/>
			<point x="430" y="619" type="curve"/>
			<point x="430" y="671"/>
			<point x="478" y="671"/>
			<point x="478" y="671" type="curve"/>
			<point x="478" y="700" type="line"/>
		</contour>
	</outline>
</glyph>
<glyph name="Y" format="2">
	<advance width="941"/>
	<unicode hex="0059"/>
	<anchor x="471" y="700" name="top"/>
	<anchor x="471" y="0" name="bottom"/>
	<anchor x="20" y="700" name="topleft"/>
	<outline>
		<contour>
			<point x="483" y="671" type="line"/>
			<point x="483" y="671"/>
			<point x="531" y="671"/>
			<point x="531" y="617" type="curve" smooth="yes"/>
			<point x="531" y="590"/>
			<point x="496" y="500"/>
			<point x="475" y="394" type="curve" smooth="yes"/>
			<point x="475" y="394"/>
			<point x="465" y="394"/>
			<point x="465" y="394" type="curve"/>
			<point x="444" y="500"/>
			<point x="411" y="590"/>
			<point x="411" y="617" type="curve" smooth="yes"/>
			<point x="411" y="671"/>
			<point x="458" y="671"/>
			<point x="458" y="671" type="curve"/>
			<point x="458" y="700" type="line"/>
			<point x="20" y="700" type="line"/>
			<point x="20" y="671" type="line"/>
			<point x="107" y="671"/>
			<point x="340" y="527"/>
			<point x="340" y="287" type="curve"/>
			<point x="340" y="33"/>
			<point x="203" y="29"/>
			<point x="203" y="29" type="curve"/>
			<point x="203" y="0" type="line"/>
			<point x="737" y="0" type="line"/>
			<point x="737" y="29" type="line"/>
			<point x="737" y="29"/>
			<point x="600" y="33"/>
			<point x="600" y="287" type="curve"/>
			<point x="600" y="527"/>
			<point x="833" y="671"/>
			<point x="921" y="671" type="curve"/>
			<point x="921" y="700" type="line"/>
			<point x="483" y="700" type="line"/>
		</contour>
	</outline>
</glyph>
<glyph name="Z" format="2">
	<advance width="791"/>
	<unicode hex="005A"/>
	<anchor x="396" y="350" name="center"/>
	<anchor x="396" y="0" name="bottom"/>
	<anchor x="411" y="700" name="top"/>
	<outline>
		<contour>
			<point x="380" y="700" type="line"/>
			<point x="380" y="0" type="line"/>
			<point x="766" y="0" type="line"/>
			<point x="721" y="338" type="line"/>
			<point x="692" y="338" type="line"/>
			<point x="692" y="338"/>
			<point x="692" y="88"/>
			<point x="547" y="88" type="curve"/>
			<point x="512" y="88"/>
			<point x="462" y="111"/>
			<point x="462" y="201" type="curve" smooth="yes"/>
			<point x="462" y="214"/>
			<point x="468" y="294"/>
			<point x="503" y="379" type="curve" smooth="yes"/>
			<point x="586" y="581"/>
			<point x="705" y="671"/>
			<point x="764" y="671" type="curve"/>
			<point x="764" y="700" type="line"/>
		</contour>
		<contour>
			<point x="441" y="0" type="line"/>
			<point x="441" y="700" type="line"/>
			<point x="25" y="700" type="line"/>
			<point x="70" y="362" type="line"/>
			<point x="99" y="362" type="line"/>
			<point x="99" y="362"/>
			<point x="99" y="612"/>
			<point x="244" y="612" type="curve"/>
			<point x="279" y="612"/>
			<point x="329" y="589"/>
			<point x="329" y="499" type="curve" smooth="yes"/>
			<point x="329" y="486"/>
			<point x="323" y="406"/>
			<point x="288" y="321" type="curve" smooth="yes"/>
			<point x="205" y="119"/>
			<point x="86" y="29"/>
			<point x="27" y="29" type="curve"/>
			<point x="27" y="0" type="line"/>
		</contour>
	</outline>
</glyph>
<glyph name="bracketleft" format="2">
	<advance width="342"/>
	<unicode hex="005B"/>
	<outline>
		<contour>
			<point x="171" y="541" type="curve"/>
			<point x="171" y="671"/>
			<point x="243" y="671"/>
			<point x="317" y="671" type="curve"/>
			<point x="317" y="700" type="line"/>
			<point x="25" y="700" type="line"/>
			<point x="25" y="0" type="line"/>
			<point x="317" y="0" type="line"/>
			<point x="317" y="29" type="line"/>
			<point x="243" y="29"/>
			<point x="171" y="29"/>
			<point x="171" y="159" type="curve"/>
			<point x="171" y="205"/>
			<point x="171" y="495"/>
		</contour>
	</outline>
</glyph>
<glyph name="bracketright" format="2">
	<advance width="342"/>
	<unicode hex="005D"/>
	<outline>
		<contour>
			<point x="171" y="541" type="curve"/>
			<point x="171" y="495"/>
			<point x="171" y="205"/>
			<point x="171" y="159" type="curve"/>
			<point x="171" y="29"/>
			<point x="99" y="29"/>
			<point x="25" y="29" type="curve"/>
			<point x="25" y="0" type="line"/>
			<point x="317" y="0" type="line"/>
			<point x="317" y="700" type="line"/>
			<point x="25" y="700" type="line"/>
			<point x="25" y="671" type="line"/>
			<point x="99" y="671"/>
			<point x="171" y="671"/>
		</contour>
	</outline>
</glyph>
<glyph name="asciicircum" format="2">
	<advance width="447"/>
	<unicode hex="005E"/>
	<anchor x="224" y="775" name="top"/>
	<anchor x="224" y="500" name="_top"/>
	<outline>
		<contour>
			<point x="422" y="529" type="curve"/>
			<point x="269" y="529"/>
			<point x="331" y="775"/>
			<point x="224" y="775" type="curve" smooth="yes"/>
			<point x="117" y="775"/>
			<point x="174" y="530"/>
			<point x="25" y="530" type="curve"/>
			<point x="25" y="530"/>
			<point x="25" y="519"/>
			<point x="25" y="501" type="curve"/>
			<point x="118" y="501"/>
			<point x="177" y="534"/>
			<point x="220" y="644" type="curve"/>
			<point x="227" y="644" type="line"/>
			<point x="270" y="534"/>
			<point x="328" y="500"/>
			<point x="422" y="500" type="curve"/>
			<point x="422" y="518"/>
			<point x="422" y="529"/>
		</contour>
	</outline>
</glyph>
<glyph name="underscore" format="2">
	<advance width="600"/>
	<unicode hex="005F"/>
	<outline>
		<contour>
			<point x="54" y="116" type="line"/>
			<point x="54" y="116"/>
			<point x="54" y="87"/>
			<point x="300" y="87" type="curve"/>
			<point x="546" y="87"/>
			<point x="546" y="116"/>
			<point x="546" y="116" type="curve"/>
			<point x="575" y="116" type="line"/>
			<point x="575" y="-29" type="line"/>
			<point x="546" y="-29" type="line"/>
			<point x="546" y="-29"/>
			<point x="546" y="0"/>
			<point x="300" y="0" type="curve"/>
			<point x="54" y="0"/>
			<point x="54" y="-29"/>
			<point x="54" y="-29" type="curve"/>
			<point x="25" y="-29" type="line"/>
			<point x="25" y="116" type="line"/>
		</contour>
	</outline>
</glyph>
<glyph name="a" format="2">
	<advance width="587"/>
	<unicode hex="0061"/>
	<anchor x="524" y="10" name="ogonek"/>
	<anchor x="294" y="0" name="bottom"/>
	<anchor x="294" y="500" name="top"/>
	<outline>
		<contour>
			<point x="490" y="197" type="curve"/>
			<point x="490" y="230"/>
			<point x="490" y="247"/>
			<point x="490" y="277" type="curve"/>
			<point x="490" y="472"/>
			<point x="361" y="509"/>
			<point x="280" y="509" type="curve"/>
			<point x="189" y="509"/>
			<point x="113" y="472"/>
			<point x="113" y="398" type="curve"/>
			<point x="113" y="319"/>
			<point x="191" y="309"/>
			<point x="220" y="309" type="curve"/>
			<point x="220" y="316"/>
			<point x="220" y="329"/>
			<point x="220" y="339" type="curve"/>
			<point x="204" y="339"/>
			<point x="181" y="347"/>
			<point x="181" y="372" type="curve"/>
			<point x="181" y="393"/>
			<point x="201" y="415"/>
			<point x="239" y="415" type="curve"/>
			<point x="300" y="415"/>
			<point x="334" y="347"/>
			<point x="334" y="261" type="curve"/>
			<point x="334" y="222" type="line"/>
			<point x="334" y="135"/>
			<point x="280" y="102"/>
			<point x="228" y="102" type="curve"/>
			<point x="198" y="102"/>
			<point x="159" y="123"/>
			<point x="159" y="165" type="curve"/>
			<point x="159" y="213"/>
			<point x="204" y="228"/>
			<point x="238" y="228" type="curve"/>
			<point x="278" y="228"/>
			<point x="298" y="214"/>
			<point x="298" y="214" type="curve"/>
			<point x="320" y="242" type="line"/>
			<point x="320" y="242"/>
			<point x="255" y="286"/>
			<point x="181" y="286" type="curve"/>
			<point x="82" y="286"/>
			<point x="15" y="243"/>
			<point x="15" y="141" type="curve"/>
			<point x="15" y="58"/>
			<point x="88" y="-14"/>
			<point x="180" y="-14" type="curve"/>
			<point x="287" y="-14"/>
			<point x="334" y="46"/>
			<point x="334" y="46" type="curve"/>
			<point x="334" y="0" type="line"/>
			<point x="572" y="0" type="line"/>
			<point x="572" y="29" type="line"/>
			<point x="572" y="29"/>
			<point x="490" y="29"/>
		</contour>
	</outline>
</glyph>
<glyph name="b" format="2">
	<advance width="658"/>
	<unicode hex="0062"/>
	<anchor x="334" y="500" name="top"/>
	<anchor x="334" y="0" name="bottom"/>
	<outline>
		<contour>
			<point x="15" y="29" type="curve"/>
			<point x="15" y="0" type="line"/>
			<point x="242" y="0" type="line"/>
			<point x="242" y="30" type="line"/>
			<point x="278" y="-15"/>
			<point x="338" y="-29"/>
			<point x="390" y="-29" type="curve" smooth="yes"/>
			<point x="511" y="-29"/>
			<point x="633" y="77"/>
			<point x="633" y="256" type="curve" smooth="yes"/>
			<point x="633" y="383"/>
			<point x="551" y="510"/>
			<point x="442" y="510" type="curve" smooth="yes"/>
			<point x="308" y="510"/>
			<point x="296" y="357"/>
			<point x="296" y="294" type="curve"/>
			<point x="327" y="294" type="line"/>
			<point x="327" y="345"/>
			<point x="334" y="403"/>
			<point x="384" y="403" type="curve" smooth="yes"/>
			<point x="436" y="403"/>
			<point x="467" y="323"/>
			<point x="467" y="256" type="curve" smooth="yes"/>
			<point x="467" y="188"/>
			<point x="450" y="88"/>
			<point x="372" y="88" type="curve" smooth="yes"/>
			<point x="304" y="88"/>
			<point x="270" y="185"/>
			<point x="269" y="342" type="curve"/>
			<point x="269" y="377" type="line" smooth="yes"/>
			<point x="275" y="671"/>
			<point x="365" y="671"/>
			<point x="365" y="671" type="curve"/>
			<point x="365" y="700" type="line"/>
			<point x="15" y="700" type="line"/>
			<point x="15" y="671" type="line"/>
			<point x="15" y="671"/>
			<point x="134" y="671"/>
			<point x="134" y="350" type="curve" smooth="yes"/>
			<point x="134" y="29"/>
			<point x="15" y="29"/>
		</contour>
	</outline>
</glyph>
<glyph name="c" format="2">
	<advance width="499"/>
	<unicode hex="0063"/>
	<anchor x="252" y="500" name="top"/>
	<anchor x="252" y="0" name="bottom"/>
	<outline>
		<contour>
			<point x="378" y="500" type="curve"/>
			<point x="344" y="500"/>
			<point x="345" y="500"/>
			<point x="277" y="500" type="curve"/>
			<point x="122" y="500"/>
			<point x="25" y="398"/>
			<point x="25" y="229" type="curve"/>
			<point x="25" y="55"/>
			<point x="153" y="-19"/>
			<point x="278" y="-19" type="curve"/>
			<point x="397" y="-19"/>
			<point x="475" y="87"/>
			<point x="475" y="87" type="curve"/>
			<point x="450" y="113" type="line"/>
			<point x="450" y="113"/>
			<point x="399" y="48"/>
			<point x="321" y="48" type="curve"/>
			<point x="233" y="48"/>
			<point x="191" y="132"/>
			<point x="191" y="229" type="curve"/>
			<point x="191" y="328"/>
			<point x="240" y="386"/>
			<point x="299" y="386" type="curve"/>
			<point x="390" y="386"/>
			<point x="420" y="254"/>
			<point x="420" y="161" type="curve"/>
			<point x="449" y="161"/>
			<point x="449" y="161"/>
			<point x="449" y="161" type="curve"/>
			<point x="489" y="558" type="line"/>
			<point x="460" y="558" type="line"/>
			<point x="460" y="558"/>
			<point x="454" y="500"/>
		</contour>
	</outline>
</glyph>
<glyph name="d" format="2">
	<advance width="658"/>
	<unicode hex="0064"/>
	<anchor x="461" y="562" name="center"/>
	<anchor x="324" y="500" name="top"/>
	<anchor x="633" y="500" name="topright"/>
	<anchor x="324" y="0" name="bottom"/>
	<outline>
		<contour>
			<point x="643" y="0" type="line"/>
			<point x="643" y="29" type="line"/>
			<point x="643" y="29"/>
			<point x="524" y="29"/>
			<point x="524" y="350" type="curve" smooth="yes"/>
			<point x="524" y="671"/>
			<point x="643" y="671"/>
			<point x="643" y="671" type="curve"/>
			<point x="643" y="700" type="line"/>
			<point x="293" y="700" type="line"/>
			<point x="293" y="671" type="line"/>
			<point x="293" y="671"/>
			<point x="389" y="671"/>
			<point x="389" y="377" type="curve" smooth="yes"/>
			<point x="389" y="342" type="line"/>
			<point x="388" y="185"/>
			<point x="354" y="88"/>
			<point x="286" y="88" type="curve" smooth="yes"/>
			<point x="208" y="88"/>
			<point x="191" y="188"/>
			<point x="191" y="256" type="curve" smooth="yes"/>
			<point x="191" y="323"/>
			<point x="222" y="403"/>
			<point x="274" y="403" type="curve" smooth="yes"/>
			<point x="324" y="403"/>
			<point x="331" y="345"/>
			<point x="331" y="294" type="curve"/>
			<point x="362" y="294" type="line"/>
			<point x="362" y="357"/>
			<point x="350" y="510"/>
			<point x="216" y="510" type="curve" smooth="yes"/>
			<point x="107" y="510"/>
			<point x="25" y="383"/>
			<point x="25" y="256" type="curve" smooth="yes"/>
			<point x="25" y="77"/>
			<point x="147" y="-29"/>
			<point x="268" y="-29" type="curve" smooth="yes"/>
			<point x="320" y="-29"/>
			<point x="380" y="-15"/>
			<point x="416" y="30" type="curve"/>
			<point x="416" y="0" type="line"/>
		</contour>
	</outline>
</glyph>
<glyph name="e" format="2">
	<advance width="521"/>
	<unicode hex="0065"/>
	<anchor x="365" y="10" name="ogonek"/>
	<anchor x="261" y="0" name="bottom"/>
	<anchor x="297" y="510" name="top"/>
	<outline>
		<contour>
			<point x="25" y="253" type="curve"/>
			<point x="25" y="90"/>
			<point x="154" y="-19"/>
			<point x="279" y="-19" type="curve"/>
			<point x="418" y="-19"/>
			<point x="506" y="91"/>
			<point x="506" y="91" type="curve"/>
			<point x="481" y="117" type="line"/>
			<point x="481" y="117"/>
			<point x="430" y="62"/>
			<point x="342" y="62" type="curve"/>
			<point x="254" y="62"/>
			<point x="202" y="134"/>
			<point x="202" y="247" type="curve"/>
			<point x="202" y="334"/>
			<point x="248" y="410"/>
			<point x="300" y="410" type="curve"/>
			<point x="330" y="410"/>
			<point x="376" y="388"/>
			<point x="376" y="325" type="curve"/>
			<point x="376" y="277"/>
			<point x="340" y="242"/>
			<point x="297" y="242" type="curve"/>
			<point x="266" y="242"/>
			<point x="248" y="257"/>
			<point x="248" y="257" type="curve"/>
			<point x="226" y="229" type="line"/>
			<point x="226" y="229"/>
			<point x="260" y="188"/>
			<point x="324" y="188" type="curve"/>
			<point x="423" y="188"/>
			<point x="500" y="256"/>
			<point x="500" y="338" type="curve"/>
			<point x="500" y="466"/>
			<point x="389" y="526"/>
			<point x="297" y="526" type="curve"/>
			<point x="187" y="526"/>
			<point x="25" y="442"/>
		</contour>
	</outline>
</glyph>
<glyph name="f" format="2">
	<advance width="497"/>
	<unicode hex="0066"/>
	<anchor x="249" y="500" name="top"/>
	<anchor x="249" y="0" name="bottom"/>
	<outline>
		<contour>
			<point x="485" y="582" type="curve"/>
			<point x="498" y="700"/>
			<point x="430" y="770"/>
			<point x="323" y="770" type="curve"/>
			<point x="224" y="770"/>
			<point x="132" y="696"/>
			<point x="130" y="502" type="curve"/>
			<point x="49" y="502"/>
			<point x="49" y="552"/>
			<point x="49" y="552" type="curve"/>
			<point x="20" y="552" type="line"/>
			<point x="20" y="347" type="line"/>
			<point x="49" y="347" type="line"/>
			<point x="49" y="347"/>
			<point x="49" y="398"/>
			<point x="130" y="398" type="curve"/>
			<point x="130" y="365"/>
			<point x="130" y="303"/>
			<point x="130" y="265" type="curve"/>
			<point x="130" y="29"/>
			<point x="10" y="29"/>
			<point x="10" y="29" type="curve"/>
			<point x="10" y="0" type="line"/>
			<point x="412" y="0" type="line"/>
			<point x="412" y="29" type="line"/>
			<point x="412" y="29"/>
			<point x="292" y="29"/>
			<point x="292" y="350" type="curve"/>
			<point x="292" y="366"/>
			<point x="293" y="396"/>
			<point x="293" y="411" type="curve"/>
			<point x="300" y="411"/>
			<point x="305" y="411"/>
			<point x="306" y="411" type="curve"/>
			<point x="414" y="411"/>
			<point x="414" y="255"/>
			<point x="414" y="161" type="curve"/>
			<point x="443" y="161"/>
			<point x="443" y="161"/>
			<point x="443" y="161" type="curve"/>
			<point x="483" y="558" type="line"/>
			<point x="454" y="558" type="line"/>
			<point x="454" y="558"/>
			<point x="454" y="500"/>
			<point x="293" y="500" type="curve"/>
			<point x="293" y="641"/>
			<point x="368" y="661"/>
			<point x="401" y="661" type="curve"/>
			<point x="438" y="661"/>
			<point x="461" y="629"/>
			<point x="457" y="583" type="curve"/>
			<point x="471" y="583"/>
			<point x="485" y="582"/>
		</contour>
	</outline>
</glyph>
<glyph name="g" format="2">
	<advance width="670"/>
	<unicode hex="0067"/>
	<anchor x="335" y="500" name="top"/>
	<anchor x="335" y="0" name="bottom"/>
	<outline>
		<contour>
			<point x="660" y="471" type="curve"/>
			<point x="660" y="500" type="line"/>
			<point x="390" y="500" type="line"/>
			<point x="390" y="460" type="line"/>
			<point x="358" y="500"/>
			<point x="297" y="509"/>
			<point x="256" y="509" type="curve"/>
			<point x="111" y="509"/>
			<point x="12" y="404"/>
			<point x="12" y="259" type="curve"/>
			<point x="12" y="97"/>
			<point x="109" y="0"/>
			<point x="218" y="0" type="curve"/>
			<point x="390" y="0"/>
			<point x="379" y="152"/>
			<point x="379" y="206" type="curve"/>
			<point x="349" y="206" type="line"/>
			<point x="349" y="155"/>
			<point x="326" y="107"/>
			<point x="276" y="107" type="curve"/>
			<point x="224" y="107"/>
			<point x="178" y="167"/>
			<point x="178" y="254" type="curve"/>
			<point x="178" y="356"/>
			<point x="211" y="413"/>
			<point x="286" y="413" type="curve"/>
			<point x="384" y="413"/>
			<point x="420" y="307"/>
			<point x="420" y="150" type="curve"/>
			<point x="420" y="0"/>
			<point x="335" y="-122"/>
			<point x="174" y="-122" type="curve"/>
			<point x="86" y="-122"/>
			<point x="35" y="-67"/>
			<point x="35" y="-67" type="curve"/>
			<point x="10" y="-93" type="line"/>
			<point x="10" y="-93"/>
			<point x="94" y="-200"/>
			<point x="243" y="-200" type="curve"/>
			<point x="385" y="-200"/>
			<point x="569" y="-86"/>
			<point x="569" y="250" type="curve"/>
			<point x="569" y="471"/>
			<point x="660" y="471"/>
		</contour>
	</outline>
</glyph>
<glyph name="h" format="2">
	<advance width="725"/>
	<unicode hex="0068"/>
	<anchor x="192" y="570" name="center"/>
	<anchor x="363" y="0" name="bottom"/>
	<anchor x="363" y="500" name="top"/>
	<outline>
		<contour>
			<point x="628" y="206" type="curve"/>
			<point x="628" y="407"/>
			<point x="578" y="509"/>
			<point x="428" y="509" type="curve"/>
			<point x="350" y="509"/>
			<point x="302" y="489"/>
			<point x="270" y="452" type="curve"/>
			<point x="288" y="671"/>
			<point x="355" y="671"/>
			<point x="355" y="671" type="curve"/>
			<point x="355" y="700" type="line"/>
			<point x="15" y="700" type="line"/>
			<point x="15" y="671" type="line"/>
			<point x="15" y="671"/>
			<point x="134" y="671"/>
			<point x="134" y="350" type="curve"/>
			<point x="134" y="29"/>
			<point x="15" y="29"/>
			<point x="15" y="29" type="curve"/>
			<point x="15" y="0" type="line"/>
			<point x="365" y="0" type="line"/>
			<point x="365" y="29" type="line"/>
			<point x="365" y="29"/>
			<point x="273" y="29"/>
			<point x="273" y="217" type="curve"/>
			<point x="273" y="398"/>
			<point x="365" y="398"/>
			<point x="378" y="398" type="curve"/>
			<point x="390" y="398"/>
			<point x="482" y="398"/>
			<point x="482" y="206" type="curve"/>
			<point x="482" y="29"/>
			<point x="390" y="29"/>
			<point x="390" y="29" type="curve"/>
			<point x="390" y="0" type="line"/>
			<point x="709" y="0" type="line"/>
			<point x="709" y="29" type="line"/>
			<point x="719" y="29"/>
			<point x="628" y="29"/>
		</contour>
	</outline>
</glyph>
<glyph name="i" format="2">
	<advance width="417"/>
	<unicode hex="0069"/>
	<anchor x="209" y="0" name="bottom"/>
	<outline>
		<contour>
			<point x="300" y="659" type="curve"/>
			<point x="300" y="608"/>
			<point x="259" y="567"/>
			<point x="209" y="567" type="curve"/>
			<point x="158" y="567"/>
			<point x="117" y="608"/>
			<point x="117" y="659" type="curve"/>
			<point x="117" y="709"/>
			<point x="158" y="750"/>
			<point x="209" y="750" type="curve"/>
			<point x="259" y="750"/>
			<point x="300" y="709"/>
		</contour>
		<contour>
			<point x="282" y="250" type="curve"/>
			<point x="282" y="471"/>
			<point x="373" y="471"/>
			<point x="373" y="471" type="curve"/>
			<point x="373" y="500" type="line"/>
			<point x="15" y="500" type="line"/>
			<point x="15" y="471" type="line"/>
			<point x="15" y="471"/>
			<point x="135" y="471"/>
			<point x="135" y="250" type="curve"/>
			<point x="135" y="29"/>
			<point x="15" y="29"/>
			<point x="15" y="29" type="curve"/>
			<point x="15" y="0" type="line"/>
			<point x="402" y="0" type="line"/>
			<point x="402" y="29" type="line"/>
			<point x="402" y="29"/>
			<point x="282" y="29"/>
		</contour>
	</outline>
</glyph>
<glyph name="j" format="2">
	<advance width="339"/>
	<unicode hex="006A"/>
	<outline>
		<contour>
			<point x="263" y="659" type="curve"/>
			<point x="263" y="608"/>
			<point x="222" y="567"/>
			<point x="172" y="567" type="curve"/>
			<point x="121" y="567"/>
			<point x="80" y="608"/>
			<point x="80" y="659" type="curve"/>
			<point x="80" y="709"/>
			<point x="121" y="750"/>
			<point x="172" y="750" type="curve"/>
			<point x="222" y="750"/>
			<point x="263" y="709"/>
		</contour>
		<contour>
			<point x="94" y="345" type="curve"/>
			<point x="94" y="336"/>
			<point x="93" y="174"/>
			<point x="93" y="150" type="curve"/>
			<point x="93" y="-171"/>
			<point x="-50" y="-171"/>
			<point x="-50" y="-171" type="curve"/>
			<point x="-50" y="-200" type="line"/>
			<point x="53" y="-200"/>
			<point x="251" y="-200"/>
			<point x="251" y="120" type="curve"/>
			<point x="251" y="144"/>
			<point x="251" y="339"/>
			<point x="251" y="345" type="curve"/>
			<point x="251" y="471"/>
			<point x="324" y="471"/>
			<point x="324" y="471" type="curve"/>
			<point x="324" y="500" type="line"/>
			<point x="172" y="500" type="line"/>
			<point x="10" y="500" type="line"/>
			<point x="10" y="471" type="line"/>
			<point x="10" y="471"/>
			<point x="94" y="471"/>
		</contour>
	</outline>
</glyph>
<glyph name="k" format="2">
	<advance width="683"/>
	<unicode hex="006B"/>
	<anchor x="358" y="500" name="top"/>
	<anchor x="358" y="0" name="bottom"/>
	<outline>
		<contour>
			<point x="461" y="349" type="curve"/>
			<point x="554" y="471"/>
			<point x="631" y="471"/>
			<point x="668" y="471" type="curve"/>
			<point x="668" y="500" type="line"/>
			<point x="340" y="500" type="line"/>
			<point x="340" y="471" type="line"/>
			<point x="340" y="471"/>
			<point x="375" y="471"/>
			<point x="375" y="429" type="curve"/>
			<point x="375" y="388"/>
			<point x="333" y="306"/>
			<point x="288" y="306" type="curve"/>
			<point x="258" y="306"/>
			<point x="256" y="360"/>
			<point x="256" y="363" type="curve"/>
			<point x="257" y="671"/>
			<point x="365" y="671"/>
			<point x="365" y="671" type="curve"/>
			<point x="365" y="700" type="line"/>
			<point x="15" y="700" type="line"/>
			<point x="15" y="671" type="line"/>
			<point x="15" y="671"/>
			<point x="124" y="671"/>
			<point x="124" y="350" type="curve"/>
			<point x="124" y="29"/>
			<point x="15" y="29"/>
			<point x="15" y="29" type="curve"/>
			<point x="15" y="0" type="line"/>
			<point x="355" y="0" type="line"/>
			<point x="355" y="29" type="line"/>
			<point x="355" y="29"/>
			<point x="273" y="29"/>
			<point x="273" y="109" type="curve"/>
			<point x="273" y="140"/>
			<point x="284" y="184"/>
			<point x="306" y="184" type="curve"/>
			<point x="351" y="184"/>
			<point x="398" y="96"/>
			<point x="398" y="65" type="curve"/>
			<point x="398" y="29"/>
			<point x="380" y="29"/>
			<point x="380" y="29" type="curve"/>
			<point x="380" y="0" type="line"/>
			<point x="668" y="0" type="line"/>
			<point x="668" y="29" type="line"/>
			<point x="602" y="29"/>
			<point x="428" y="203"/>
			<point x="428" y="262" type="curve"/>
			<point x="428" y="294"/>
			<point x="457" y="344"/>
		</contour>
	</outline>
</glyph>
<glyph name="l" format="2">
	<advance width="417"/>
	<unicode hex="006C"/>
	<anchor x="209" y="250" name="center"/>
	<anchor x="209" y="700" name="top"/>
	<anchor x="392" y="500" name="topright"/>
	<anchor x="209" y="0" name="bottom"/>
	<outline>
		<contour>
			<point x="282" y="350" type="curve"/>
			<point x="282" y="670"/>
			<point x="373" y="671"/>
			<point x="373" y="671" type="curve"/>
			<point x="373" y="700" type="line"/>
			<point x="15" y="700" type="line"/>
			<point x="15" y="671" type="line"/>
			<point x="15" y="671"/>
			<point x="135" y="670"/>
			<point x="135" y="350" type="curve"/>
			<point x="135" y="28"/>
			<point x="15" y="28"/>
			<point x="15" y="28" type="curve"/>
			<point x="15" y="-1" type="line"/>
			<point x="402" y="-1" type="line"/>
			<point x="402" y="28" type="line"/>
			<point x="402" y="28"/>
			<point x="282" y="28"/>
		</contour>
	</outline>
</glyph>
<glyph name="m" format="2">
	<advance width="1050"/>
	<unicode hex="006D"/>
	<anchor x="530" y="500" name="top"/>
	<anchor x="530" y="0" name="bottom"/>
	<outline>
		<contour>
			<point x="709" y="0" type="line"/>
			<point x="709" y="29" type="line"/>
			<point x="709" y="29"/>
			<point x="628" y="30"/>
			<point x="628" y="206" type="curve"/>
			<point x="628" y="407"/>
			<point x="578" y="509"/>
			<point x="428" y="509" type="curve"/>
			<point x="312" y="509"/>
			<point x="249" y="439"/>
			<point x="242" y="406" type="curve"/>
			<point x="242" y="500" type="line"/>
			<point x="15" y="500" type="line"/>
			<point x="15" y="471" type="line"/>
			<point x="15" y="471"/>
			<point x="135" y="471"/>
			<point x="135" y="250" type="curve"/>
			<point x="135" y="30"/>
			<point x="15" y="29"/>
			<point x="15" y="29" type="curve"/>
			<point x="15" y="0" type="line"/>
			<point x="365" y="0" type="line"/>
			<point x="365" y="29" type="line"/>
			<point x="365" y="29"/>
			<point x="283" y="29"/>
			<point x="283" y="206" type="curve"/>
			<point x="283" y="398"/>
			<point x="365" y="398"/>
			<point x="378" y="398" type="curve"/>
			<point x="390" y="398"/>
			<point x="472" y="398"/>
			<point x="472" y="206" type="curve"/>
			<point x="472" y="29"/>
			<point x="390" y="29"/>
			<point x="390" y="29" type="curve"/>
			<point x="390" y="0" type="line"/>
		</contour>
		<contour>
			<point x="973" y="206" type="curve"/>
			<point x="973" y="407"/>
			<point x="923" y="509"/>
			<point x="773" y="509" type="curve"/>
			<point x="657" y="509"/>
			<point x="594" y="439"/>
			<point x="587" y="406" type="curve"/>
			<point x="587" y="206" type="line"/>
			<point x="628" y="206" type="line"/>
			<point x="628" y="398"/>
			<point x="710" y="398"/>
			<point x="723" y="398" type="curve"/>
			<point x="735" y="398"/>
			<point x="817" y="398"/>
			<point x="817" y="206" type="curve"/>
			<point x="817" y="29"/>
			<point x="735" y="29"/>
			<point x="735" y="29" type="curve"/>
			<point x="735" y="0" type="line"/>
			<point x="1034" y="0" type="line"/>
			<point x="1034" y="29" type="line"/>
			<point x="1044" y="29"/>
			<point x="973" y="30"/>
		</contour>
	</outline>
</glyph>
<glyph name="n" format="2">
	<advance width="734"/>
	<unicode hex="006E"/>
	<anchor x="363" y="500" name="top"/>
	<anchor x="363" y="0" name="bottom"/>
	<outline>
		<contour>
			<point x="719" y="0" type="line"/>
			<point x="719" y="29" type="line"/>
			<point x="709" y="29"/>
			<point x="638" y="30"/>
			<point x="638" y="206" type="curve" smooth="yes"/>
			<point x="638" y="407"/>
			<point x="588" y="509"/>
			<point x="438" y="509" type="curve" smooth="yes"/>
			<point x="322" y="509"/>
			<point x="259" y="439"/>
			<point x="252" y="406" type="curve"/>
			<point x="252" y="500" type="line"/>
			<point x="15" y="500" type="line"/>
			<point x="15" y="471" type="line"/>
			<point x="15" y="471"/>
			<point x="135" y="471"/>
			<point x="135" y="250" type="curve"/>
			<point x="135" y="30"/>
			<point x="15" y="29"/>
			<point x="15" y="29" type="curve"/>
			<point x="15" y="0" type="line"/>
			<point x="375" y="0" type="line"/>
			<point x="375" y="29" type="line"/>
			<point x="375" y="29"/>
			<point x="283" y="29"/>
			<point x="283" y="206" type="curve"/>
			<point x="283" y="398"/>
			<point x="375" y="398"/>
			<point x="388" y="398" type="curve"/>
			<point x="400" y="398"/>
			<point x="492" y="398"/>
			<point x="492" y="206" type="curve"/>
			<point x="492" y="29"/>
			<point x="400" y="29"/>
			<point x="400" y="29" type="curve"/>
			<point x="400" y="0" type="line"/>
		</contour>
	</outline>
</glyph>
<glyph name="o" format="2">
	<advance width="649"/>
	<unicode hex="006F"/>
	<anchor x="325" y="250" name="center"/>
	<anchor x="598" y="10" name="ogonek"/>
	<anchor x="330" y="520" name="top"/>
	<anchor x="654" y="460" name="topright"/>
	<anchor x="320" y="0" name="bottom"/>
	<outline>
		<contour>
			<point x="375" y="500" type="curve"/>
			<point x="237" y="500"/>
			<point x="179" y="411"/>
			<point x="179" y="340" type="curve"/>
			<point x="179" y="231"/>
			<point x="295" y="203"/>
			<point x="295" y="203" type="curve"/>
			<point x="309" y="229" type="line"/>
			<point x="309" y="229"/>
			<point x="271" y="244"/>
			<point x="271" y="287" type="curve"/>
			<point x="271" y="348"/>
			<point x="314" y="375"/>
			<point x="364" y="375" type="curve"/>
			<point x="421" y="375"/>
			<point x="471" y="324"/>
			<point x="471" y="259" type="curve"/>
			<point x="471" y="186"/>
			<point x="406" y="120"/>
			<point x="319" y="120" type="curve"/>
			<point x="210" y="120"/>
			<point x="125" y="200"/>
			<point x="125" y="317" type="curve"/>
			<point x="125" y="437"/>
			<point x="228" y="514"/>
			<point x="328" y="514" type="curve"/>
			<point x="328" y="524"/>
			<point x="328" y="532"/>
			<point x="328" y="543" type="curve"/>
			<point x="179" y="543"/>
			<point x="25" y="452"/>
			<point x="25" y="266" type="curve"/>
			<point x="25" y="108"/>
			<point x="161" y="-29"/>
			<point x="319" y="-29" type="curve"/>
			<point x="504" y="-29"/>
			<point x="624" y="108"/>
			<point x="624" y="249" type="curve"/>
			<point x="624" y="396"/>
			<point x="509" y="500"/>
		</contour>
	</outline>
</glyph>
<glyph name="p" format="2">
	<advance width="658"/>
	<unicode hex="0070"/>
	<anchor x="334" y="500" name="top"/>
	<anchor x="334" y="0" name="bottom"/>
	<outline>
		<contour>
			<point x="437" y="-10" type="curve"/>
			<point x="556" y="-10"/>
			<point x="633" y="112"/>
			<point x="633" y="244" type="curve"/>
			<point x="633" y="389"/>
			<point x="554" y="519"/>
			<point x="379" y="519" type="curve"/>
			<point x="327" y="519"/>
			<point x="277" y="505"/>
			<point x="242" y="470" type="curve"/>
			<point x="242" y="500" type="line"/>
			<point x="15" y="500" type="line"/>
			<point x="15" y="471" type="line"/>
			<point x="15" y="471"/>
			<point x="134" y="471"/>
			<point x="134" y="150" type="curve"/>
			<point x="134" y="-171"/>
			<point x="15" y="-171"/>
			<point x="15" y="-171" type="curve"/>
			<point x="15" y="-200" type="line"/>
			<point x="365" y="-200" type="line"/>
			<point x="365" y="-171" type="line"/>
			<point x="365" y="-171"/>
			<point x="275" y="-171"/>
			<point x="269" y="123" type="curve"/>
			<point x="269" y="135"/>
			<point x="269" y="147"/>
			<point x="269" y="158" type="curve"/>
			<point x="270" y="315"/>
			<point x="301" y="413"/>
			<point x="379" y="413" type="curve"/>
			<point x="454" y="413"/>
			<point x="477" y="346"/>
			<point x="477" y="244" type="curve"/>
			<point x="477" y="157"/>
			<point x="451" y="107"/>
			<point x="399" y="107" type="curve"/>
			<point x="349" y="107"/>
			<point x="326" y="155"/>
			<point x="326" y="206" type="curve"/>
			<point x="296" y="206" type="line"/>
			<point x="296" y="107"/>
			<point x="325" y="-10"/>
		</contour>
	</outline>
</glyph>
<glyph name="q" format="2">
	<advance width="658"/>
	<unicode hex="0071"/>
	<anchor x="324" y="500" name="top"/>
	<anchor x="324" y="0" name="bottom"/>
	<outline>
		<contour>
			<point x="221" y="-10" type="curve"/>
			<point x="333" y="-10"/>
			<point x="362" y="107"/>
			<point x="362" y="206" type="curve"/>
			<point x="332" y="206" type="line"/>
			<point x="332" y="155"/>
			<point x="309" y="107"/>
			<point x="259" y="107" type="curve"/>
			<point x="207" y="107"/>
			<point x="181" y="157"/>
			<point x="181" y="244" type="curve"/>
			<point x="181" y="346"/>
			<point x="204" y="413"/>
			<point x="279" y="413" type="curve"/>
			<point x="357" y="413"/>
			<point x="388" y="315"/>
			<point x="389" y="158" type="curve"/>
			<point x="389" y="147"/>
			<point x="389" y="135"/>
			<point x="389" y="123" type="curve"/>
			<point x="383" y="-171"/>
			<point x="293" y="-171"/>
			<point x="293" y="-171" type="curve"/>
			<point x="293" y="-200" type="line"/>
			<point x="643" y="-200" type="line"/>
			<point x="643" y="-171" type="line"/>
			<point x="643" y="-171"/>
			<point x="524" y="-171"/>
			<point x="524" y="150" type="curve"/>
			<point x="524" y="471"/>
			<point x="643" y="471"/>
			<point x="643" y="471" type="curve"/>
			<point x="643" y="500" type="line"/>
			<point x="416" y="500" type="line"/>
			<point x="416" y="470" type="line"/>
			<point x="381" y="505"/>
			<point x="331" y="519"/>
			<point x="279" y="519" type="curve"/>
			<point x="104" y="519"/>
			<point x="25" y="389"/>
			<point x="25" y="244" type="curve"/>
			<point x="25" y="112"/>
			<point x="102" y="-10"/>
		</contour>
	</outline>
</glyph>
<glyph name="r" format="2">
	<advance width="574"/>
	<unicode hex="0072"/>
	<anchor x="295" y="500" name="top"/>
	<anchor x="210" y="0" name="bottom"/>
	<outline>
		<contour>
			<point x="524" y="161" type="curve"/>
			<point x="564" y="558" type="line"/>
			<point x="535" y="558" type="line"/>
			<point x="535" y="558"/>
			<point x="532" y="500"/>
			<point x="244" y="500" type="curve"/>
			<point x="224" y="500"/>
			<point x="15" y="500"/>
			<point x="15" y="500" type="curve"/>
			<point x="15" y="471" type="line"/>
			<point x="15" y="471"/>
			<point x="134" y="466"/>
			<point x="134" y="250" type="curve" smooth="yes"/>
			<point x="134" y="24"/>
			<point x="15" y="29"/>
			<point x="15" y="29" type="curve"/>
			<point x="15" y="0" type="line"/>
			<point x="402" y="0" type="line"/>
			<point x="402" y="29" type="line"/>
			<point x="402" y="29"/>
			<point x="292" y="29"/>
			<point x="291" y="250" type="curve"/>
			<point x="291" y="335"/>
			<point x="318" y="411"/>
			<point x="388" y="411" type="curve"/>
			<point x="490" y="411"/>
			<point x="495" y="253"/>
			<point x="495" y="161" type="curve"/>
			<point x="524" y="161"/>
			<point x="524" y="161"/>
		</contour>
	</outline>
</glyph>
<glyph name="s" format="2">
	<advance width="587"/>
	<unicode hex="0073"/>
	<anchor x="324" y="500" name="top"/>
	<anchor x="214" y="0" name="bottom"/>
	<outline>
		<contour>
			<point x="548" y="558" type="line"/>
			<point x="548" y="558"/>
			<point x="518" y="500"/>
			<point x="266" y="500" type="curve"/>
			<point x="201" y="500"/>
			<point x="94" y="485"/>
			<point x="94" y="408" type="curve"/>
			<point x="94" y="318"/>
			<point x="303" y="264"/>
			<point x="303" y="191" type="curve"/>
			<point x="303" y="142"/>
			<point x="266" y="115"/>
			<point x="214" y="115" type="curve"/>
			<point x="156" y="115"/>
			<point x="97" y="145"/>
			<point x="97" y="211" type="curve"/>
			<point x="97" y="270"/>
			<point x="144" y="270"/>
			<point x="144" y="270" type="curve"/>
			<point x="144" y="270"/>
			<point x="144" y="285"/>
			<point x="144" y="299" type="curve"/>
			<point x="66" y="299"/>
			<point x="10" y="254"/>
			<point x="10" y="157" type="curve"/>
			<point x="10" y="23"/>
			<point x="142" y="-29"/>
			<point x="257" y="-29" type="curve"/>
			<point x="368" y="-29"/>
			<point x="488" y="23"/>
			<point x="488" y="116" type="curve"/>
			<point x="488" y="265"/>
			<point x="306" y="317"/>
			<point x="306" y="389" type="curve"/>
			<point x="306" y="421"/>
			<point x="335" y="435"/>
			<point x="355" y="435" type="curve"/>
			<point x="466" y="435"/>
			<point x="508" y="253"/>
			<point x="508" y="161" type="curve"/>
			<point x="537" y="161"/>
			<point x="537" y="161"/>
			<point x="537" y="161" type="curve"/>
			<point x="577" y="558" type="line"/>
		</contour>
	</outline>
</glyph>
<glyph name="t" format="2">
	<advance width="558"/>
	<unicode hex="0074"/>
	<anchor x="279" y="250" name="center"/>
	<anchor x="279" y="670" name="top"/>
	<anchor x="533" y="500" name="topright"/>
	<anchor x="279" y="0" name="bottom"/>
	<outline>
		<contour>
			<point x="44" y="610" type="curve"/>
			<point x="15" y="610" type="line"/>
			<point x="60" y="161" type="line"/>
			<point x="89" y="161" type="line"/>
			<point x="84" y="311"/>
			<point x="106" y="411"/>
			<point x="200" y="411" type="curve"/>
			<point x="201" y="392"/>
			<point x="201" y="372"/>
			<point x="201" y="350" type="curve" smooth="yes"/>
			<point x="201" y="157"/>
			<point x="153" y="29"/>
			<point x="80" y="29" type="curve"/>
			<point x="80" y="0" type="line"/>
			<point x="478" y="0" type="line"/>
			<point x="478" y="29" type="line"/>
			<point x="405" y="29"/>
			<point x="357" y="157"/>
			<point x="357" y="350" type="curve" smooth="yes"/>
			<point x="357" y="372"/>
			<point x="357" y="392"/>
			<point x="358" y="411" type="curve"/>
			<point x="452" y="411"/>
			<point x="474" y="311"/>
			<point x="469" y="161" type="curve"/>
			<point x="498" y="161" type="line"/>
			<point x="543" y="610" type="line"/>
			<point x="514" y="610" type="line"/>
			<point x="506" y="545"/>
			<point x="446" y="500"/>
			<point x="365" y="500" type="curve"/>
			<point x="365" y="585"/>
			<point x="397" y="641"/>
			<point x="446" y="641" type="curve"/>
			<point x="446" y="670" type="line"/>
			<point x="112" y="670" type="line"/>
			<point x="112" y="641" type="line"/>
			<point x="161" y="641"/>
			<point x="193" y="585"/>
			<point x="193" y="500" type="curve"/>
			<point x="112" y="500"/>
			<point x="52" y="545"/>
		</contour>
	</outline>
</glyph>
<glyph name="u" format="2">
	<advance width="724"/>
	<unicode hex="0075"/>
	<anchor x="647" y="10" name="ogonek"/>
	<anchor x="362" y="500" name="top"/>
	<anchor x="649" y="460" name="topright"/>
	<anchor x="362" y="0" name="bottom"/>
	<outline>
		<contour>
			<point x="15" y="500" type="line"/>
			<point x="15" y="470" type="line"/>
			<point x="23" y="470"/>
			<point x="96" y="470"/>
			<point x="96" y="294" type="curve" smooth="yes"/>
			<point x="96" y="93"/>
			<point x="146" y="-9"/>
			<point x="286" y="-9" type="curve" smooth="yes"/>
			<point x="402" y="-9"/>
			<point x="475" y="61"/>
			<point x="482" y="94" type="curve"/>
			<point x="482" y="0" type="line"/>
			<point x="709" y="0" type="line"/>
			<point x="709" y="29" type="line"/>
			<point x="709" y="29"/>
			<point x="589" y="29"/>
			<point x="589" y="250" type="curve"/>
			<point x="589" y="470"/>
			<point x="709" y="471"/>
			<point x="709" y="471" type="curve"/>
			<point x="709" y="500" type="line"/>
			<point x="359" y="500" type="line"/>
			<point x="359" y="471" type="line"/>
			<point x="359" y="471"/>
			<point x="451" y="471"/>
			<point x="451" y="294" type="curve" smooth="yes"/>
			<point x="451" y="102"/>
			<point x="359" y="102"/>
			<point x="346" y="102" type="curve" smooth="yes"/>
			<point x="334" y="102"/>
			<point x="242" y="102"/>
			<point x="242" y="294" type="curve" smooth="yes"/>
			<point x="242" y="471"/>
			<point x="334" y="471"/>
			<point x="334" y="471" type="curve"/>
			<point x="334" y="500" type="line"/>
		</contour>
	</outline>
</glyph>
<glyph name="v" format="2">
	<advance width="695"/>
	<unicode hex="0076"/>
	<anchor x="358" y="500" name="top"/>
	<anchor x="358" y="0" name="bottom"/>
	<outline>
		<contour>
			<point x="370" y="500" type="line"/>
			<point x="370" y="471" type="line"/>
			<point x="370" y="471"/>
			<point x="434" y="471"/>
			<point x="434" y="371" type="curve"/>
			<point x="434" y="266"/>
			<point x="364" y="190"/>
			<point x="364" y="122" type="curve"/>
			<point x="351" y="122" type="line"/>
			<point x="351" y="190"/>
			<point x="281" y="266"/>
			<point x="281" y="371" type="curve"/>
			<point x="281" y="471"/>
			<point x="345" y="471"/>
			<point x="345" y="471" type="curve"/>
			<point x="345" y="500" type="line"/>
			<point x="15" y="500" type="line"/>
			<point x="15" y="471" type="line"/>
			<point x="15" y="471"/>
			<point x="191" y="379"/>
			<point x="191" y="144" type="curve"/>
			<point x="191" y="29"/>
			<point x="141" y="29"/>
			<point x="151" y="29" type="curve"/>
			<point x="151" y="-1" type="line"/>
			<point x="563" y="-1" type="line"/>
			<point x="563" y="29" type="line"/>
			<point x="563" y="29"/>
			<point x="523" y="29"/>
			<point x="523" y="144" type="curve"/>
			<point x="523" y="379"/>
			<point x="680" y="471"/>
			<point x="680" y="471" type="curve"/>
			<point x="680" y="500" type="line"/>
		</contour>
	</outline>
</glyph>
<glyph name="w" format="2">
	<advance width="1150"/>
	<unicode hex="0077"/>
	<anchor x="575" y="500" name="top"/>
	<anchor x="575" y="0" name="bottom"/>
	<outline>
		<contour>
			<point x="815" y="500" type="line"/>
			<point x="815" y="471" type="line"/>
			<point x="815" y="471"/>
			<point x="879" y="471"/>
			<point x="879" y="371" type="curve"/>
			<point x="879" y="266"/>
			<point x="808" y="190"/>
			<point x="808" y="122" type="curve"/>
			<point x="797" y="122" type="line"/>
			<point x="797" y="190"/>
			<point x="726" y="266"/>
			<point x="726" y="371" type="curve"/>
			<point x="726" y="471"/>
			<point x="790" y="471"/>
			<point x="790" y="471" type="curve"/>
			<point x="790" y="500" type="line"/>
			<point x="370" y="500" type="line"/>
			<point x="370" y="471" type="line"/>
			<point x="370" y="471"/>
			<point x="434" y="471"/>
			<point x="434" y="371" type="curve"/>
			<point x="434" y="266"/>
			<point x="363" y="190"/>
			<point x="363" y="122" type="curve"/>
			<point x="352" y="122" type="line"/>
			<point x="352" y="190"/>
			<point x="281" y="266"/>
			<point x="281" y="371" type="curve"/>
			<point x="281" y="471"/>
			<point x="345" y="471"/>
			<point x="345" y="471" type="curve"/>
			<point x="345" y="500" type="line"/>
			<point x="15" y="500" type="line"/>
			<point x="15" y="471" type="line"/>
			<point x="15" y="471"/>
			<point x="191" y="379"/>
			<point x="191" y="144" type="curve"/>
			<point x="191" y="29"/>
			<point x="151" y="29"/>
			<point x="151" y="29" type="curve"/>
			<point x="151" y="-1" type="line"/>
			<point x="562" y="-1" type="line"/>
			<point x="562" y="29" type="line"/>
			<point x="562" y="29"/>
			<point x="523" y="29"/>
			<point x="523" y="94" type="curve"/>
			<point x="523" y="182"/>
			<point x="545" y="271"/>
			<point x="575" y="338" type="curve"/>
			<point x="606" y="269"/>
			<point x="627" y="184"/>
			<point x="627" y="94" type="curve"/>
			<point x="627" y="29"/>
			<point x="588" y="29"/>
			<point x="588" y="29" type="curve"/>
			<point x="588" y="-1" type="line"/>
			<point x="999" y="-1" type="line"/>
			<point x="999" y="29" type="line"/>
			<point x="999" y="29"/>
			<point x="959" y="29"/>
			<point x="959" y="144" type="curve"/>
			<point x="959" y="379"/>
			<point x="1135" y="471"/>
			<point x="1135" y="471" type="curve"/>
			<point x="1135" y="500" type="line"/>
		</contour>
	</outline>
</glyph>
<glyph name="x" format="2">
	<advance width="785"/>
	<unicode hex="0078"/>
	<anchor x="388" y="500" name="top"/>
	<anchor x="388" y="0" name="bottom"/>
	<outline>
		<contour>
			<point x="425" y="429" type="curve" smooth="yes"/>
			<point x="425" y="369"/>
			<point x="139" y="29"/>
			<point x="15" y="29" type="curve"/>
			<point x="15" y="0" type="line"/>
			<point x="375" y="0" type="line"/>
			<point x="375" y="29" type="line"/>
			<point x="375" y="29"/>
			<point x="350" y="29"/>
			<point x="350" y="89" type="curve"/>
			<point x="350" y="228"/>
			<point x="706" y="471"/>
			<point x="770" y="471" type="curve"/>
			<point x="770" y="500" type="line"/>
			<point x="400" y="500" type="line"/>
			<point x="400" y="471" type="line"/>
			<point x="400" y="471"/>
			<point x="425" y="471"/>
		</contour>
		<contour>
			<point x="350" y="429" type="curve"/>
			<point x="350" y="471"/>
			<point x="375" y="471"/>
			<point x="375" y="471" type="curve"/>
			<point x="375" y="500" type="line"/>
			<point x="25" y="500" type="line"/>
			<point x="25" y="471" type="line"/>
			<point x="88" y="471"/>
			<point x="425" y="228"/>
			<point x="425" y="89" type="curve"/>
			<point x="425" y="29"/>
			<point x="400" y="29"/>
			<point x="400" y="29" type="curve"/>
			<point x="400" y="0" type="line"/>
			<point x="750" y="0" type="line"/>
			<point x="750" y="29" type="line"/>
			<point x="625" y="29"/>
			<point x="350" y="369"/>
		</contour>
	</outline>
</glyph>
<glyph name="y" format="2">
	<advance width="695"/>
	<unicode hex="0079"/>
	<anchor x="363" y="500" name="top"/>
	<anchor x="347" y="-198" name="bottom"/>
	<outline>
		<contour>
			<point x="16" y="471" type="line"/>
			<point x="6" y="471"/>
			<point x="97" y="470"/>
			<point x="97" y="294" type="curve" smooth="yes"/>
			<point x="97" y="93"/>
			<point x="147" y="-9"/>
			<point x="287" y="-9" type="curve" smooth="yes"/>
			<point x="393" y="-9"/>
			<point x="464" y="47"/>
			<point x="480" y="85" type="curve"/>
			<point x="480" y="-51"/>
			<point x="398" y="-121"/>
			<point x="308" y="-121" type="curve" smooth="yes"/>
			<point x="220" y="-121"/>
			<point x="169" y="-66"/>
			<point x="169" y="-66" type="curve"/>
			<point x="144" y="-92" type="line"/>
			<point x="144" y="-92"/>
			<point x="198" y="-200"/>
			<point x="347" y="-200" type="curve" smooth="yes"/>
			<point x="495" y="-200"/>
			<point x="614" y="-96"/>
			<point x="614" y="184" type="curve" smooth="yes"/>
			<point x="614" y="294" type="line"/>
			<point x="614" y="471"/>
			<point x="680" y="471"/>
			<point x="680" y="471" type="curve"/>
			<point x="680" y="500" type="line"/>
			<point x="360" y="500" type="line"/>
			<point x="360" y="471" type="line"/>
			<point x="360" y="471"/>
			<point x="452" y="471"/>
			<point x="452" y="294" type="curve" smooth="yes"/>
			<point x="452" y="102"/>
			<point x="360" y="102"/>
			<point x="347" y="102" type="curve" smooth="yes"/>
			<point x="335" y="102"/>
			<point x="243" y="102"/>
			<point x="243" y="294" type="curve" smooth="yes"/>
			<point x="243" y="471"/>
			<point x="335" y="471"/>
			<point x="335" y="471" type="curve"/>
			<point x="335" y="500" type="line"/>
			<point x="16" y="500" type="line"/>
		</contour>
	</outline>
</glyph>
<glyph name="z" format="2">
	<advance width="699"/>
	<unicode hex="007A"/>
	<anchor x="347" y="500" name="top"/>
	<anchor x="347" y="0" name="bottom"/>
	<outline>
		<contour>
			<point x="684" y="471" type="curve"/>
			<point x="684" y="500" type="line"/>
			<point x="268" y="500" type="line"/>
			<point x="37" y="500"/>
			<point x="39" y="558"/>
			<point x="39" y="558" type="curve"/>
			<point x="10" y="558" type="line"/>
			<point x="50" y="162" type="line"/>
			<point x="50" y="162"/>
			<point x="50" y="162"/>
			<point x="79" y="162" type="curve"/>
			<point x="79" y="254"/>
			<point x="104" y="412"/>
			<point x="211" y="412" type="curve"/>
			<point x="248" y="412"/>
			<point x="281" y="391"/>
			<point x="281" y="341" type="curve" smooth="yes"/>
			<point x="281" y="113"/>
			<point x="90" y="30"/>
			<point x="10" y="30" type="curve"/>
			<point x="10" y="1" type="line"/>
			<point x="678" y="1" type="line"/>
			<point x="644" y="339" type="line"/>
			<point x="644" y="339"/>
			<point x="644" y="339"/>
			<point x="615" y="339" type="curve"/>
			<point x="615" y="247"/>
			<point x="590" y="89"/>
			<point x="483" y="89" type="curve"/>
			<point x="446" y="89"/>
			<point x="413" y="110"/>
			<point x="413" y="160" type="curve"/>
			<point x="413" y="388"/>
			<point x="604" y="471"/>
		</contour>
	</outline>
</glyph>
<glyph name="braceleft" format="2">
	<advance width="317"/>
	<unicode hex="007B"/>
	<outline>
		<contour>
			<point x="302" y="672" type="curve"/>
			<point x="302" y="700" type="line"/>
			<point x="302" y="700"/>
			<point x="84" y="700"/>
			<point x="84" y="540" type="curve"/>
			<point x="84" y="536"/>
			<point x="84" y="511"/>
			<point x="84" y="511" type="curve"/>
			<point x="84" y="365"/>
			<point x="15" y="365"/>
			<point x="15" y="365" type="curve"/>
			<point x="15" y="336" type="line"/>
			<point x="15" y="336"/>
			<point x="84" y="336"/>
			<point x="84" y="190" type="curve"/>
			<point x="84" y="190"/>
			<point x="84" y="165"/>
			<point x="84" y="161" type="curve"/>
			<point x="84" y="0"/>
			<point x="302" y="1"/>
			<point x="302" y="1" type="curve"/>
			<point x="302" y="30" type="line"/>
			<point x="302" y="30"/>
			<point x="232" y="30"/>
			<point x="232" y="166" type="curve"/>
			<point x="232" y="166"/>
			<point x="232" y="191"/>
			<point x="232" y="195" type="curve"/>
			<point x="232" y="304"/>
			<point x="176" y="339"/>
			<point x="133" y="351" type="curve"/>
			<point x="176" y="362"/>
			<point x="232" y="397"/>
			<point x="232" y="506" type="curve"/>
			<point x="232" y="510"/>
			<point x="232" y="535"/>
			<point x="232" y="535" type="curve"/>
			<point x="232" y="672"/>
			<point x="302" y="672"/>
		</contour>
	</outline>
</glyph>
<glyph name="bar" format="2">
	<advance width="225"/>
	<unicode hex="007C"/>
	<outline>
		<contour>
			<point x="200" y="671" type="curve"/>
			<point x="200" y="700" type="line"/>
			<point x="25" y="700" type="line"/>
			<point x="25" y="671" type="line"/>
			<point x="25" y="671"/>
			<point x="54" y="671"/>
			<point x="54" y="310" type="curve"/>
			<point x="54" y="-51"/>
			<point x="25" y="-51"/>
			<point x="25" y="-51" type="curve"/>
			<point x="25" y="-80" type="line"/>
			<point x="200" y="-80" type="line"/>
			<point x="200" y="-51" type="line"/>
			<point x="200" y="-51"/>
			<point x="171" y="-51"/>
			<point x="171" y="310" type="curve"/>
			<point x="171" y="671"/>
			<point x="200" y="671"/>
		</contour>
	</outline>
</glyph>
<glyph name="braceright" format="2">
	<advance width="317"/>
	<unicode hex="007D"/>
	<outline>
		<contour>
			<point x="15" y="700" type="curve"/>
			<point x="15" y="672" type="line"/>
			<point x="15" y="672"/>
			<point x="85" y="672"/>
			<point x="85" y="535" type="curve"/>
			<point x="85" y="535"/>
			<point x="85" y="510"/>
			<point x="85" y="506" type="curve"/>
			<point x="85" y="397"/>
			<point x="141" y="362"/>
			<point x="184" y="351" type="curve"/>
			<point x="141" y="339"/>
			<point x="85" y="304"/>
			<point x="85" y="195" type="curve"/>
			<point x="85" y="191"/>
			<point x="85" y="166"/>
			<point x="85" y="166" type="curve"/>
			<point x="85" y="30"/>
			<point x="15" y="30"/>
			<point x="15" y="30" type="curve"/>
			<point x="15" y="1" type="line"/>
			<point x="15" y="1"/>
			<point x="233" y="0"/>
			<point x="233" y="161" type="curve"/>
			<point x="233" y="165"/>
			<point x="233" y="190"/>
			<point x="233" y="190" type="curve"/>
			<point x="233" y="336"/>
			<point x="302" y="336"/>
			<point x="302" y="336" type="curve"/>
			<point x="302" y="365" type="line"/>
			<point x="302" y="365"/>
			<point x="233" y="365"/>
			<point x="233" y="511" type="curve"/>
			<point x="233" y="511"/>
			<point x="233" y="536"/>
			<point x="233" y="540" type="curve"/>
			<point x="233" y="700"/>
			<point x="15" y="700"/>
		</contour>
	</outline>
</glyph>
<glyph name="asciitilde" format="2">
	<advance width="523"/>
	<unicode hex="007E"/>
	<outline>
		<contour>
			<point x="498" y="351" type="curve"/>
			<point x="452" y="351" type="line"/>
			<point x="452" y="315"/>
			<point x="429" y="267"/>
			<point x="354" y="267" type="curve" smooth="yes"/>
			<point x="293" y="267"/>
			<point x="244" y="337"/>
			<point x="169" y="337" type="curve" smooth="yes"/>
			<point x="68" y="337"/>
			<point x="25" y="226"/>
			<point x="25" y="144" type="curve"/>
			<point x="71" y="144" type="line"/>
			<point x="71" y="180"/>
			<point x="94" y="228"/>
			<point x="169" y="228" type="curve" smooth="yes"/>
			<point x="243" y="228"/>
			<point x="293" y="159"/>
			<point x="354" y="159" type="curve" smooth="yes"/>
			<point x="455" y="159"/>
			<point x="498" y="269"/>
		</contour>
	</outline>
</glyph>
<glyph name="exclamdown" format="2">
	<advance width="303"/>
	<unicode hex="00A1"/>
	<outline>
		<contour>
			<point x="60" y="618" type="curve"/>
			<point x="60" y="669"/>
			<point x="101" y="710"/>
			<point x="151" y="710" type="curve"/>
			<point x="202" y="710"/>
			<point x="243" y="669"/>
			<point x="243" y="618" type="curve"/>
			<point x="243" y="568"/>
			<point x="202" y="527"/>
			<point x="151" y="527" type="curve"/>
			<point x="101" y="527"/>
			<point x="60" y="568"/>
		</contour>
		<contour>
			<point x="136" y="467" type="curve"/>
			<point x="136" y="306"/>
			<point x="25" y="145"/>
			<point x="25" y="35" type="curve"/>
			<point x="25" y="-42"/>
			<point x="82" y="-100"/>
			<point x="151" y="-100" type="curve"/>
			<point x="221" y="-100"/>
			<point x="278" y="-42"/>
			<point x="278" y="35" type="curve"/>
			<point x="278" y="145"/>
			<point x="167" y="306"/>
			<point x="167" y="467" type="curve"/>
			<point x="167" y="490"/>
			<point x="167" y="497"/>
			<point x="167" y="497" type="curve"/>
			<point x="151" y="497" type="line"/>
			<point x="136" y="497" type="line"/>
			<point x="136" y="497"/>
			<point x="136" y="493"/>
		</contour>
	</outline>
</glyph>
<glyph name="cent" format="2">
	<advance width="514"/>
	<unicode hex="00A2"/>
	<outline>
		<contour>
			<point x="216" y="700" type="line"/>
			<point x="216" y="700"/>
			<point x="245" y="696"/>
			<point x="245" y="350" type="curve"/>
			<point x="245" y="0"/>
			<point x="216" y="0"/>
			<point x="216" y="0" type="curve"/>
			<point x="216" y="-29" type="line"/>
			<point x="361" y="-29" type="line"/>
			<point x="361" y="0" type="line"/>
			<point x="361" y="0"/>
			<point x="332" y="0"/>
			<point x="332" y="350" type="curve"/>
			<point x="332" y="700"/>
			<point x="361" y="700"/>
			<point x="361" y="700" type="curve"/>
			<point x="361" y="729" type="line"/>
			<point x="216" y="729" type="line"/>
		</contour>
		<contour>
			<point x="378" y="600" type="curve"/>
			<point x="344" y="600"/>
			<point x="345" y="600"/>
			<point x="277" y="600" type="curve"/>
			<point x="122" y="600"/>
			<point x="25" y="498"/>
			<point x="25" y="329" type="curve"/>
			<point x="25" y="155"/>
			<point x="153" y="81"/>
			<point x="278" y="81" type="curve"/>
			<point x="397" y="81"/>
			<point x="475" y="187"/>
			<point x="475" y="187" type="curve"/>
			<point x="450" y="213" type="line"/>
			<point x="450" y="213"/>
			<point x="399" y="148"/>
			<point x="321" y="148" type="curve"/>
			<point x="233" y="148"/>
			<point x="191" y="232"/>
			<point x="191" y="329" type="curve"/>
			<point x="191" y="428"/>
			<point x="240" y="486"/>
			<point x="299" y="486" type="curve"/>
			<point x="390" y="486"/>
			<point x="420" y="354"/>
			<point x="420" y="261" type="curve"/>
			<point x="449" y="261"/>
			<point x="449" y="261"/>
			<point x="449" y="261" type="curve"/>
			<point x="489" y="658" type="line"/>
			<point x="460" y="658" type="line"/>
			<point x="460" y="658"/>
			<point x="454" y="600"/>
		</contour>
	</outline>
</glyph>
<glyph name="sterling" format="2">
	<advance width="725"/>
	<unicode hex="00A3"/>
	<outline>
		<contour>
			<point x="248" y="392" type="curve" smooth="yes"/>
			<point x="248" y="245" type="line" smooth="yes"/>
			<point x="248" y="103"/>
			<point x="231" y="80"/>
			<point x="203" y="80" type="curve" smooth="yes"/>
			<point x="181" y="80"/>
			<point x="166" y="102"/>
			<point x="166" y="124" type="curve" smooth="yes"/>
			<point x="166" y="145"/>
			<point x="183" y="167"/>
			<point x="208" y="167" type="curve" smooth="yes"/>
			<point x="242" y="167"/>
			<point x="293" y="110"/>
			<point x="380" y="58" type="curve"/>
			<point x="480" y="112" type="line"/>
			<point x="389" y="205" type="line"/>
			<point x="311" y="249"/>
			<point x="259" y="267"/>
			<point x="216" y="267" type="curve" smooth="yes"/>
			<point x="94" y="267"/>
			<point x="25" y="187"/>
			<point x="25" y="110" type="curve" smooth="yes"/>
			<point x="25" y="38"/>
			<point x="85" y="-30"/>
			<point x="181" y="-30" type="curve" smooth="yes"/>
			<point x="298" y="-30"/>
			<point x="434" y="62"/>
			<point x="434" y="422" type="curve" smooth="yes"/>
			<point x="434" y="500"/>
			<point x="432" y="627"/>
			<point x="514" y="627" type="curve" smooth="yes"/>
			<point x="562" y="627"/>
			<point x="586" y="593"/>
			<point x="586" y="559" type="curve"/>
			<point x="615" y="559" type="line"/>
			<point x="615" y="664"/>
			<point x="538" y="705"/>
			<point x="463" y="705" type="curve" smooth="yes"/>
			<point x="388" y="705"/>
			<point x="248" y="671"/>
		</contour>
		<contour>
			<point x="389" y="205" type="curve"/>
			<point x="380" y="58" type="line"/>
			<point x="452" y="8"/>
			<point x="539" y="-30"/>
			<point x="591" y="-30" type="curve" smooth="yes"/>
			<point x="649" y="-30"/>
			<point x="700" y="22"/>
			<point x="700" y="79" type="curve" smooth="yes"/>
			<point x="700" y="125"/>
			<point x="678" y="198"/>
			<point x="572" y="198" type="curve"/>
			<point x="573" y="174" type="line"/>
			<point x="596" y="174"/>
			<point x="618" y="151"/>
			<point x="618" y="136" type="curve" smooth="yes"/>
			<point x="618" y="123"/>
			<point x="610" y="106"/>
			<point x="595" y="106" type="curve" smooth="yes"/>
			<point x="567" y="106"/>
			<point x="469" y="161"/>
		</contour>
		<contour>
			<point x="174" y="460" type="curve"/>
			<point x="145" y="460" type="line"/>
			<point x="145" y="325" type="line"/>
			<point x="174" y="325" type="line"/>
			<point x="174" y="325"/>
			<point x="174" y="349"/>
			<point x="380" y="349" type="curve"/>
			<point x="586" y="349"/>
			<point x="586" y="325"/>
			<point x="586" y="325" type="curve"/>
			<point x="615" y="325" type="line"/>
			<point x="615" y="460" type="line"/>
			<point x="586" y="460" type="line"/>
			<point x="586" y="460"/>
			<point x="586" y="436"/>
			<point x="380" y="436" type="curve"/>
			<point x="174" y="436"/>
			<point x="174" y="460"/>
		</contour>
	</outline>
</glyph>
<glyph name="yen" format="2">
	<advance width="951"/>
	<unicode hex="00A5"/>
	<outline>
		<contour>
			<point x="493" y="671" type="curve"/>
			<point x="493" y="700" type="line"/>
			<point x="926" y="700" type="line"/>
			<point x="926" y="700"/>
			<point x="926" y="685"/>
			<point x="926" y="671" type="curve"/>
			<point x="838" y="671"/>
			<point x="585" y="527"/>
			<point x="585" y="287" type="curve"/>
			<point x="585" y="33"/>
			<point x="682" y="29"/>
			<point x="742" y="29" type="curve"/>
			<point x="742" y="0" type="line"/>
			<point x="208" y="0" type="line"/>
			<point x="208" y="29" type="line"/>
			<point x="268" y="29"/>
			<point x="365" y="33"/>
			<point x="365" y="287" type="curve"/>
			<point x="365" y="527"/>
			<point x="112" y="671"/>
			<point x="25" y="671" type="curve"/>
			<point x="25" y="685"/>
			<point x="25" y="700"/>
			<point x="25" y="700" type="curve"/>
			<point x="468" y="700" type="line"/>
			<point x="468" y="671" type="line"/>
			<point x="468" y="671"/>
			<point x="421" y="671"/>
			<point x="421" y="617" type="curve"/>
			<point x="421" y="577"/>
			<point x="480" y="454"/>
			<point x="480" y="454" type="curve"/>
			<point x="480" y="454"/>
			<point x="540" y="577"/>
			<point x="540" y="617" type="curve"/>
			<point x="540" y="671"/>
			<point x="493" y="671"/>
		</contour>
		<contour>
			<point x="229" y="243" type="line"/>
			<point x="229" y="243"/>
			<point x="229" y="214"/>
			<point x="475" y="214" type="curve"/>
			<point x="721" y="214"/>
			<point x="721" y="243"/>
			<point x="721" y="243" type="curve"/>
			<point x="750" y="243" type="line"/>
			<point x="750" y="98" type="line"/>
			<point x="721" y="98" type="line"/>
			<point x="721" y="98"/>
			<point x="721" y="127"/>
			<point x="475" y="127" type="curve"/>
			<point x="229" y="127"/>
			<point x="229" y="98"/>
			<point x="229" y="98" type="curve"/>
			<point x="200" y="98" type="line"/>
			<point x="200" y="243" type="line"/>
		</contour>
		<contour>
			<point x="229" y="423" type="line"/>
			<point x="229" y="423"/>
			<point x="229" y="394"/>
			<point x="475" y="394" type="curve"/>
			<point x="721" y="394"/>
			<point x="721" y="423"/>
			<point x="721" y="423" type="curve"/>
			<point x="750" y="423" type="line"/>
			<point x="750" y="278" type="line"/>
			<point x="721" y="278" type="line"/>
			<point x="721" y="278"/>
			<point x="721" y="307"/>
			<point x="475" y="307" type="curve"/>
			<point x="229" y="307"/>
			<point x="229" y="278"/>
			<point x="229" y="278" type="curve"/>
			<point x="200" y="278" type="line"/>
			<point x="200" y="423" type="line"/>
		</contour>
	</outline>
</glyph>
<glyph name="brokenbar" format="2">
	<advance width="215"/>
	<unicode hex="00A6"/>
	<outline>
		<contour>
			<point x="190" y="675" type="line"/>
			<point x="190" y="675"/>
			<point x="161" y="675"/>
			<point x="161" y="526" type="curve"/>
			<point x="161" y="377"/>
			<point x="190" y="377"/>
			<point x="190" y="377" type="curve"/>
			<point x="190" y="352" type="line"/>
			<point x="25" y="352" type="line"/>
			<point x="25" y="377" type="line"/>
			<point x="25" y="377"/>
			<point x="54" y="377"/>
			<point x="54" y="526" type="curve"/>
			<point x="54" y="675"/>
			<point x="25" y="675"/>
			<point x="25" y="675" type="curve"/>
			<point x="25" y="700" type="line"/>
			<point x="190" y="700" type="line"/>
		</contour>
		<contour>
			<point x="190" y="243" type="line"/>
			<point x="190" y="243"/>
			<point x="161" y="243"/>
			<point x="161" y="94" type="curve"/>
			<point x="161" y="-55"/>
			<point x="190" y="-55"/>
			<point x="190" y="-55" type="curve"/>
			<point x="190" y="-80" type="line"/>
			<point x="25" y="-80" type="line"/>
			<point x="25" y="-55" type="line"/>
			<point x="25" y="-55"/>
			<point x="54" y="-55"/>
			<point x="54" y="94" type="curve"/>
			<point x="54" y="243"/>
			<point x="25" y="243"/>
			<point x="25" y="243" type="curve"/>
			<point x="25" y="268" type="line"/>
			<point x="190" y="268" type="line"/>
		</contour>
	</outline>
</glyph>
<glyph name="copyright" format="2">
	<advance width="892"/>
	<unicode hex="00A9"/>
	<outline>
		<contour>
			<point x="445" y="729" type="curve"/>
			<point x="235" y="729"/>
			<point x="25" y="586"/>
			<point x="25" y="350" type="curve"/>
			<point x="25" y="113"/>
			<point x="235" y="-29"/>
			<point x="445" y="-29" type="curve"/>
			<point x="654" y="-29"/>
			<point x="867" y="113"/>
			<point x="867" y="350" type="curve"/>
			<point x="867" y="586"/>
			<point x="654" y="729"/>
		</contour>
		<contour>
			<point x="445" y="61" type="curve"/>
			<point x="299" y="61"/>
			<point x="162" y="173"/>
			<point x="162" y="350" type="curve"/>
			<point x="162" y="527"/>
			<point x="299" y="640"/>
			<point x="445" y="640" type="curve"/>
			<point x="593" y="640"/>
			<point x="732" y="527"/>
			<point x="732" y="350" type="curve"/>
			<point x="732" y="173"/>
			<point x="593" y="61"/>
		</contour>
		<contour>
			<point x="516" y="515" type="curve"/>
			<point x="491" y="515"/>
			<point x="492" y="515"/>
			<point x="444" y="515" type="curve"/>
			<point x="333" y="515"/>
			<point x="264" y="442"/>
			<point x="264" y="322" type="curve"/>
			<point x="264" y="197"/>
			<point x="355" y="144"/>
			<point x="444" y="144" type="curve"/>
			<point x="529" y="144"/>
			<point x="585" y="220"/>
			<point x="585" y="220" type="curve"/>
			<point x="567" y="239" type="line"/>
			<point x="567" y="239"/>
			<point x="531" y="192"/>
			<point x="475" y="192" type="curve"/>
			<point x="412" y="192"/>
			<point x="382" y="252"/>
			<point x="382" y="322" type="curve"/>
			<point x="382" y="392"/>
			<point x="417" y="434"/>
			<point x="459" y="434" type="curve"/>
			<point x="524" y="434"/>
			<point x="546" y="339"/>
			<point x="546" y="273" type="curve"/>
			<point x="566" y="273"/>
			<point x="566" y="273"/>
			<point x="566" y="273" type="curve"/>
			<point x="595" y="557" type="line"/>
			<point x="574" y="557" type="line"/>
			<point x="574" y="557"/>
			<point x="570" y="515"/>
		</contour>
	</outline>
</glyph>
<glyph name="guillemotleft" format="2">
	<advance width="454"/>
	<unicode hex="00AB"/>
	<outline>
		<contour>
			<point x="198" y="520" type="curve"/>
			<point x="198" y="357"/>
			<point x="25" y="389"/>
			<point x="25" y="292" type="curve" smooth="yes"/>
			<point x="25" y="195"/>
			<point x="198" y="212"/>
			<point x="198" y="63" type="curve"/>
			<point x="198" y="63"/>
			<point x="209" y="63"/>
			<point x="227" y="63" type="curve"/>
			<point x="227" y="156"/>
			<point x="186" y="225"/>
			<point x="146" y="288" type="curve"/>
			<point x="146" y="295" type="line"/>
			<point x="186" y="358"/>
			<point x="227" y="426"/>
			<point x="227" y="520" type="curve"/>
			<point x="209" y="520"/>
			<point x="198" y="520"/>
		</contour>
		<contour>
			<point x="400" y="520" type="curve"/>
			<point x="400" y="357"/>
			<point x="227" y="389"/>
			<point x="227" y="292" type="curve" smooth="yes"/>
			<point x="227" y="195"/>
			<point x="400" y="212"/>
			<point x="400" y="63" type="curve"/>
			<point x="400" y="63"/>
			<point x="411" y="63"/>
			<point x="429" y="63" type="curve"/>
			<point x="429" y="156"/>
			<point x="388" y="225"/>
			<point x="348" y="288" type="curve"/>
			<point x="348" y="295" type="line"/>
			<point x="388" y="358"/>
			<point x="429" y="426"/>
			<point x="429" y="520" type="curve"/>
			<point x="411" y="520"/>
			<point x="400" y="520"/>
		</contour>
	</outline>
</glyph>
<glyph name="logicalnot" format="2">
	<advance width="463"/>
	<unicode hex="00AC"/>
	<outline>
		<contour>
			<point x="409" y="278" type="curve"/>
			<point x="409" y="361" type="line"/>
			<point x="380" y="361" type="line"/>
			<point x="380" y="361"/>
			<point x="381" y="332"/>
			<point x="219" y="332" type="curve"/>
			<point x="53" y="332"/>
			<point x="53" y="361"/>
			<point x="53" y="361" type="curve"/>
			<point x="25" y="361" type="line"/>
			<point x="25" y="196" type="line"/>
			<point x="53" y="196" type="line"/>
			<point x="53" y="196"/>
			<point x="53" y="225"/>
			<point x="219" y="225" type="curve"/>
			<point x="259" y="225"/>
			<point x="289" y="224"/>
			<point x="311" y="221" type="curve"/>
			<point x="311" y="115"/>
			<point x="283" y="115"/>
			<point x="283" y="115" type="curve"/>
			<point x="283" y="86" type="line"/>
			<point x="438" y="86" type="line"/>
			<point x="438" y="115" type="line"/>
			<point x="438" y="115"/>
			<point x="410" y="115"/>
		</contour>
	</outline>
</glyph>
<glyph name="registered" format="2">
	<advance width="479"/>
	<unicode hex="00AE"/>
	<outline>
		<contour>
			<point x="239" y="737" type="curve"/>
			<point x="132" y="737"/>
			<point x="25" y="664"/>
			<point x="25" y="544" type="curve"/>
			<point x="25" y="423"/>
			<point x="132" y="351"/>
			<point x="239" y="351" type="curve"/>
			<point x="346" y="351"/>
			<point x="454" y="423"/>
			<point x="454" y="544" type="curve"/>
			<point x="454" y="664"/>
			<point x="346" y="737"/>
		</contour>
		<contour>
			<point x="239" y="389" type="curve"/>
			<point x="160" y="389"/>
			<point x="87" y="449"/>
			<point x="87" y="544" type="curve"/>
			<point x="87" y="639"/>
			<point x="160" y="700"/>
			<point x="239" y="700" type="curve"/>
			<point x="318" y="700"/>
			<point x="393" y="639"/>
			<point x="393" y="544" type="curve"/>
			<point x="393" y="449"/>
			<point x="318" y="389"/>
		</contour>
		<contour>
			<point x="290" y="522" type="curve"/>
			<point x="274" y="511" type="line"/>
			<point x="314" y="523"/>
			<point x="326" y="554"/>
			<point x="326" y="573" type="curve"/>
			<point x="326" y="609"/>
			<point x="296" y="631"/>
			<point x="249" y="631" type="curve"/>
			<point x="131" y="631" type="line"/>
			<point x="131" y="624" type="line"/>
			<point x="131" y="624"/>
			<point x="180" y="624"/>
			<point x="180" y="540" type="curve"/>
			<point x="180" y="456"/>
			<point x="131" y="456"/>
			<point x="131" y="456" type="curve"/>
			<point x="131" y="449" type="line"/>
			<point x="251" y="449" type="line"/>
			<point x="251" y="456" type="line"/>
			<point x="251" y="456"/>
			<point x="225" y="456"/>
			<point x="225" y="535" type="curve"/>
			<point x="225" y="586"/>
			<point x="242" y="608"/>
			<point x="249" y="608" type="curve"/>
			<point x="259" y="608"/>
			<point x="268" y="584"/>
			<point x="268" y="563" type="curve"/>
			<point x="268" y="523"/>
			<point x="235" y="513"/>
			<point x="235" y="513" type="curve"/>
			<point x="235" y="506" type="line"/>
			<point x="235" y="506"/>
			<point x="271" y="500"/>
			<point x="271" y="472" type="curve"/>
			<point x="271" y="456"/>
			<point x="257" y="456"/>
			<point x="257" y="456" type="curve"/>
			<point x="257" y="449" type="line"/>
			<point x="354" y="449" type="line"/>
			<point x="354" y="456" type="line"/>
			<point x="336" y="456"/>
			<point x="305" y="494"/>
		</contour>
	</outline>
</glyph>
<glyph name="macron" format="2">
	<advance width="450"/>
	<unicode hex="00AF"/>
	<outline>
		<contour>
			<point x="39" y="739" type="line"/>
			<point x="39" y="739"/>
			<point x="39" y="710"/>
			<point x="225" y="710" type="curve"/>
			<point x="411" y="710"/>
			<point x="411" y="739"/>
			<point x="411" y="739" type="curve"/>
			<point x="440" y="739" type="line"/>
			<point x="440" y="614" type="line"/>
			<point x="411" y="614" type="line"/>
			<point x="411" y="614"/>
			<point x="411" y="643"/>
			<point x="225" y="643" type="curve"/>
			<point x="39" y="643"/>
			<point x="39" y="614"/>
			<point x="39" y="614" type="curve"/>
			<point x="10" y="614" type="line"/>
			<point x="10" y="739" type="line"/>
		</contour>
	</outline>
</glyph>
<glyph name="plusminus" format="2">
	<advance width="493"/>
	<unicode hex="00B1"/>
	<outline>
		<contour>
			<point x="54" y="529" type="line"/>
			<point x="54" y="529"/>
			<point x="54" y="500"/>
			<point x="247" y="500" type="curve"/>
			<point x="438" y="500"/>
			<point x="439" y="529"/>
			<point x="439" y="529" type="curve"/>
			<point x="468" y="529" type="line"/>
			<point x="468" y="364" type="line"/>
			<point x="439" y="364" type="line"/>
			<point x="439" y="364"/>
			<point x="438" y="393"/>
			<point x="247" y="393" type="curve"/>
			<point x="54" y="393"/>
			<point x="54" y="364"/>
			<point x="54" y="364" type="curve"/>
			<point x="25" y="364" type="line"/>
			<point x="25" y="529" type="line"/>
		</contour>
		<contour>
			<point x="329" y="606" type="line"/>
			<point x="329" y="606"/>
			<point x="300" y="606"/>
			<point x="300" y="446" type="curve"/>
			<point x="300" y="288"/>
			<point x="329" y="287"/>
			<point x="329" y="287" type="curve"/>
			<point x="329" y="258" type="line"/>
			<point x="164" y="258" type="line"/>
			<point x="164" y="287" type="line"/>
			<point x="164" y="287"/>
			<point x="193" y="288"/>
			<point x="193" y="446" type="curve"/>
			<point x="193" y="606"/>
			<point x="164" y="606"/>
			<point x="164" y="606" type="curve"/>
			<point x="164" y="635" type="line"/>
			<point x="329" y="635" type="line"/>
		</contour>
		<contour>
			<point x="54" y="237" type="line"/>
			<point x="54" y="237"/>
			<point x="54" y="208"/>
			<point x="247" y="208" type="curve"/>
			<point x="438" y="208"/>
			<point x="439" y="237"/>
			<point x="439" y="237" type="curve"/>
			<point x="468" y="237" type="line"/>
			<point x="468" y="72" type="line"/>
			<point x="439" y="72" type="line"/>
			<point x="439" y="72"/>
			<point x="438" y="101"/>
			<point x="247" y="101" type="curve"/>
			<point x="54" y="101"/>
			<point x="54" y="72"/>
			<point x="54" y="72" type="curve"/>
			<point x="25" y="72" type="line"/>
			<point x="25" y="237" type="line"/>
		</contour>
	</outline>
</glyph>
<glyph name="paragraph" format="2">
	<advance width="1057"/>
	<unicode hex="00B6"/>
	<outline>
		<contour>
			<point x="25" y="474" type="curve" smooth="yes"/>
			<point x="25" y="296"/>
			<point x="240" y="268"/>
			<point x="365" y="268" type="curve"/>
			<point x="365" y="34"/>
			<point x="226" y="29"/>
			<point x="226" y="29" type="curve"/>
			<point x="226" y="0" type="line"/>
			<point x="1032" y="0" type="line"/>
			<point x="1032" y="29" type="line"/>
			<point x="1032" y="29"/>
			<point x="838" y="34"/>
			<point x="838" y="350" type="curve" smooth="yes"/>
			<point x="838" y="665"/>
			<point x="1032" y="671"/>
			<point x="1032" y="671" type="curve"/>
			<point x="1032" y="700" type="line"/>
			<point x="364" y="700" type="line" smooth="yes"/>
			<point x="240" y="700"/>
			<point x="25" y="653"/>
		</contour>
		<contour>
			<point x="541" y="350" type="curve" smooth="yes"/>
			<point x="541" y="492"/>
			<point x="559" y="616"/>
			<point x="619" y="615" type="curve" smooth="yes"/>
			<point x="665" y="615"/>
			<point x="702" y="492"/>
			<point x="702" y="350" type="curve" smooth="yes"/>
			<point x="702" y="208"/>
			<point x="663" y="84"/>
			<point x="619" y="84" type="curve" smooth="yes"/>
			<point x="559" y="85"/>
			<point x="541" y="208"/>
		</contour>
	</outline>
</glyph>
<glyph name="periodcentered" format="2">
	<advance width="233"/>
	<unicode hex="00B7"/>
	<outline>
		<contour>
			<point x="208" y="262" type="curve"/>
			<point x="208" y="312"/>
			<point x="167" y="353"/>
			<point x="117" y="353" type="curve"/>
			<point x="66" y="353"/>
			<point x="25" y="312"/>
			<point x="25" y="262" type="curve"/>
			<point x="25" y="211"/>
			<point x="66" y="170"/>
			<point x="117" y="170" type="curve"/>
			<point x="167" y="170"/>
			<point x="208" y="211"/>
		</contour>
	</outline>
</glyph>
<glyph name="AE" format="2">
	<advance width="1071"/>
	<unicode hex="00C6"/>
	<outline>
		<contour>
			<point x="462" y="29" type="curve"/>
			<point x="462" y="0" type="line"/>
			<point x="1051" y="0" type="line"/>
			<point x="1017" y="338" type="line"/>
			<point x="988" y="338" type="line"/>
			<point x="988" y="338"/>
			<point x="1018" y="88"/>
			<point x="816" y="88" type="curve"/>
			<point x="732" y="88"/>
			<point x="693" y="145"/>
			<point x="693" y="218" type="curve"/>
			<point x="693" y="276"/>
			<point x="730" y="300"/>
			<point x="757" y="300" type="curve"/>
			<point x="821" y="300"/>
			<point x="839" y="234"/>
			<point x="839" y="175" type="curve"/>
			<point x="861" y="175"/>
			<point x="868" y="175"/>
			<point x="868" y="175" type="curve"/>
			<point x="868" y="525" type="line"/>
			<point x="868" y="525"/>
			<point x="861" y="525"/>
			<point x="839" y="525" type="curve"/>
			<point x="839" y="466"/>
			<point x="811" y="401"/>
			<point x="747" y="401" type="curve"/>
			<point x="720" y="401"/>
			<point x="641" y="409"/>
			<point x="641" y="507" type="curve"/>
			<point x="641" y="573"/>
			<point x="678" y="612"/>
			<point x="776" y="612" type="curve"/>
			<point x="978" y="612"/>
			<point x="985" y="362"/>
			<point x="985" y="362" type="curve"/>
			<point x="1014" y="362" type="line"/>
			<point x="980" y="700" type="line"/>
			<point x="201" y="700" type="line"/>
			<point x="201" y="671" type="line"/>
			<point x="226" y="671"/>
			<point x="258" y="628"/>
			<point x="258" y="495" type="curve"/>
			<point x="258" y="242"/>
			<point x="167" y="29"/>
			<point x="20" y="29" type="curve"/>
			<point x="20" y="12"/>
			<point x="20" y="0"/>
			<point x="20" y="0" type="curve"/>
			<point x="437" y="0" type="line"/>
			<point x="437" y="29" type="line"/>
			<point x="437" y="29"/>
			<point x="352" y="29"/>
			<point x="352" y="128" type="curve"/>
			<point x="352" y="189"/>
			<point x="410" y="207"/>
			<point x="450" y="207" type="curve"/>
			<point x="489" y="207"/>
			<point x="547" y="189"/>
			<point x="547" y="128" type="curve"/>
			<point x="547" y="29"/>
			<point x="462" y="29"/>
		</contour>
		<contour>
			<point x="450" y="289" type="curve"/>
			<point x="424" y="289"/>
			<point x="400" y="303"/>
			<point x="400" y="337" type="curve"/>
			<point x="400" y="415"/>
			<point x="445" y="492"/>
			<point x="445" y="540" type="curve"/>
			<point x="455" y="540" type="line"/>
			<point x="455" y="492"/>
			<point x="499" y="415"/>
			<point x="499" y="337" type="curve"/>
			<point x="499" y="303"/>
			<point x="475" y="289"/>
		</contour>
	</outline>
</glyph>
<glyph name="Eth" format="2">
	<advance width="872"/>
	<unicode hex="00D0"/>
	<outline>
		<contour>
			<point x="156" y="413" type="curve"/>
			<point x="127" y="413" type="line"/>
			<point x="127" y="288" type="line"/>
			<point x="156" y="288" type="line"/>
			<point x="156" y="288"/>
			<point x="156" y="317"/>
			<point x="322" y="317" type="curve"/>
			<point x="488" y="317"/>
			<point x="488" y="288"/>
			<point x="488" y="288" type="curve"/>
			<point x="517" y="288" type="line"/>
			<point x="517" y="413" type="line"/>
			<point x="488" y="413" type="line"/>
			<point x="488" y="413"/>
			<point x="488" y="384"/>
			<point x="322" y="384" type="curve"/>
			<point x="156" y="384"/>
			<point x="156" y="413"/>
		</contour>
		<component base="D"/>
	</outline>
</glyph>
<glyph name="multiply" format="2">
	<advance width="480"/>
	<unicode hex="00D7"/>
	<outline>
		<contour>
			<point x="162" y="479" type="line"/>
			<point x="162" y="479"/>
			<point x="142" y="459"/>
			<point x="278" y="323" type="curve"/>
			<point x="413" y="187"/>
			<point x="434" y="207"/>
			<point x="434" y="207" type="curve"/>
			<point x="455" y="187" type="line"/>
			<point x="338" y="70" type="line"/>
			<point x="318" y="91" type="line"/>
			<point x="318" y="91"/>
			<point x="337" y="112"/>
			<point x="202" y="247" type="curve"/>
			<point x="66" y="383"/>
			<point x="45" y="363"/>
			<point x="45" y="363" type="curve"/>
			<point x="25" y="383" type="line"/>
			<point x="142" y="500" type="line"/>
		</contour>
		<contour>
			<point x="434" y="363" type="line"/>
			<point x="434" y="363"/>
			<point x="414" y="383"/>
			<point x="277" y="247" type="curve"/>
			<point x="142" y="112"/>
			<point x="162" y="91"/>
			<point x="162" y="91" type="curve"/>
			<point x="142" y="70" type="line"/>
			<point x="25" y="187" type="line"/>
			<point x="45" y="207" type="line"/>
			<point x="45" y="207"/>
			<point x="67" y="187"/>
			<point x="202" y="323" type="curve"/>
			<point x="338" y="459"/>
			<point x="318" y="479"/>
			<point x="318" y="479" type="curve"/>
			<point x="338" y="500" type="line"/>
			<point x="455" y="383" type="line"/>
		</contour>
	</outline>
</glyph>
<glyph name="Thorn" format="2">
	<advance width="785"/>
	<unicode hex="00DE"/>
	<outline>
		<contour>
			<point x="765" y="350" type="curve"/>
			<point x="765" y="529"/>
			<point x="550" y="576"/>
			<point x="426" y="576" type="curve"/>
			<point x="482" y="668"/>
			<point x="564" y="671"/>
			<point x="564" y="671" type="curve"/>
			<point x="564" y="700" type="line"/>
			<point x="20" y="700" type="line"/>
			<point x="20" y="671" type="line"/>
			<point x="20" y="671"/>
			<point x="209" y="665"/>
			<point x="209" y="350" type="curve"/>
			<point x="209" y="34"/>
			<point x="20" y="29"/>
			<point x="20" y="29" type="curve"/>
			<point x="20" y="0" type="line"/>
			<point x="564" y="0" type="line"/>
			<point x="564" y="29" type="line"/>
			<point x="564" y="29"/>
			<point x="481" y="31"/>
			<point x="425" y="124" type="curve"/>
			<point x="426" y="124" type="line"/>
			<point x="550" y="124"/>
			<point x="765" y="171"/>
		</contour>
		<contour>
			<point x="355" y="350" type="curve" smooth="yes"/>
			<point x="355" y="463"/>
			<point x="412" y="508"/>
			<point x="450" y="508" type="curve"/>
			<point x="504" y="508"/>
			<point x="553" y="448"/>
			<point x="553" y="350" type="curve"/>
			<point x="553" y="252"/>
			<point x="504" y="192"/>
			<point x="450" y="192" type="curve"/>
			<point x="412" y="192"/>
			<point x="355" y="237"/>
		</contour>
	</outline>
</glyph>
<glyph name="germandbls" format="2">
	<advance width="774"/>
	<unicode hex="00DF"/>
	<outline>
		<contour>
			<point x="558" y="527" type="curve"/>
			<point x="589" y="551"/>
			<point x="603" y="584"/>
			<point x="603" y="617" type="curve" smooth="yes"/>
			<point x="603" y="719"/>
			<point x="507" y="770"/>
			<point x="412" y="770" type="curve" smooth="yes"/>
			<point x="288" y="770"/>
			<point x="156" y="683"/>
			<point x="154" y="508" type="curve"/>
			<point x="78" y="523"/>
			<point x="78" y="558"/>
			<point x="78" y="558" type="curve"/>
			<point x="49" y="558" type="line"/>
			<point x="49" y="353" type="line"/>
			<point x="78" y="353" type="line"/>
			<point x="78" y="353"/>
			<point x="78" y="389"/>
			<point x="154" y="404" type="curve"/>
			<point x="154" y="265" type="line" smooth="yes"/>
			<point x="154" y="29"/>
			<point x="15" y="29"/>
			<point x="15" y="29" type="curve"/>
			<point x="15" y="0" type="line"/>
			<point x="429" y="0" type="line"/>
			<point x="429" y="29" type="line"/>
			<point x="420" y="39"/>
			<point x="310" y="27"/>
			<point x="311" y="350" type="curve" smooth="yes"/>
			<point x="311" y="500" type="line" smooth="yes"/>
			<point x="311" y="611"/>
			<point x="367" y="662"/>
			<point x="412" y="662" type="curve" smooth="yes"/>
			<point x="443" y="662"/>
			<point x="469" y="638"/>
			<point x="469" y="595" type="curve" smooth="yes"/>
			<point x="469" y="531"/>
			<point x="398" y="453"/>
			<point x="362" y="409" type="curve"/>
			<point x="395" y="385" type="line"/>
			<point x="395" y="385"/>
			<point x="422" y="433"/>
			<point x="475" y="433" type="curve"/>
			<point x="549" y="433"/>
			<point x="578" y="346"/>
			<point x="578" y="244" type="curve" smooth="yes"/>
			<point x="578" y="177"/>
			<point x="552" y="107"/>
			<point x="500" y="107" type="curve" smooth="yes"/>
			<point x="450" y="107"/>
			<point x="427" y="155"/>
			<point x="427" y="206" type="curve"/>
			<point x="397" y="206" type="line"/>
			<point x="397" y="107"/>
			<point x="426" y="-10"/>
			<point x="538" y="-10" type="curve" smooth="yes"/>
			<point x="657" y="-10"/>
			<point x="754" y="112"/>
			<point x="754" y="244" type="curve" smooth="yes"/>
			<point x="754" y="438"/>
			<point x="646" y="527"/>
		</contour>
	</outline>
</glyph>
<glyph name="atilde" format="2">
	<advance width="577"/>
	<unicode hex="00E3"/>
	<anchor x="519" y="10" name="ogonek"/>
	<anchor x="289" y="0" name="bottom"/>
	<anchor x="289" y="751" name="top"/>
	<outline>
		<contour>
			<point x="485" y="197" type="curve"/>
			<point x="485" y="230"/>
			<point x="485" y="247"/>
			<point x="485" y="277" type="curve"/>
			<point x="485" y="472"/>
			<point x="356" y="509"/>
			<point x="275" y="509" type="curve"/>
			<point x="184" y="509"/>
			<point x="108" y="472"/>
			<point x="108" y="398" type="curve"/>
			<point x="108" y="319"/>
			<point x="186" y="309"/>
			<point x="215" y="309" type="curve"/>
			<point x="215" y="316"/>
			<point x="215" y="329"/>
			<point x="215" y="339" type="curve"/>
			<point x="199" y="339"/>
			<point x="176" y="347"/>
			<point x="176" y="372" type="curve"/>
			<point x="176" y="393"/>
			<point x="196" y="415"/>
			<point x="234" y="415" type="curve"/>
			<point x="295" y="415"/>
			<point x="329" y="347"/>
			<point x="329" y="261" type="curve"/>
			<point x="329" y="222" type="line"/>
			<point x="329" y="135"/>
			<point x="275" y="102"/>
			<point x="223" y="102" type="curve"/>
			<point x="193" y="102"/>
			<point x="154" y="123"/>
			<point x="154" y="165" type="curve"/>
			<point x="154" y="213"/>
			<point x="199" y="228"/>
			<point x="233" y="228" type="curve"/>
			<point x="273" y="228"/>
			<point x="293" y="214"/>
			<point x="293" y="214" type="curve"/>
			<point x="315" y="242" type="line"/>
			<point x="315" y="242"/>
			<point x="250" y="286"/>
			<point x="176" y="286" type="curve"/>
			<point x="77" y="286"/>
			<point x="10" y="243"/>
			<point x="10" y="141" type="curve"/>
			<point x="10" y="58"/>
			<point x="83" y="-14"/>
			<point x="175" y="-14" type="curve"/>
			<point x="282" y="-14"/>
			<point x="329" y="46"/>
			<point x="329" y="46" type="curve"/>
			<point x="329" y="0" type="line"/>
			<point x="567" y="0" type="line"/>
			<point x="567" y="29" type="line"/>
			<point x="567" y="29"/>
			<point x="485" y="29"/>
		</contour>
		<contour>
			<point x="498" y="724" type="curve"/>
			<point x="472" y="724" type="line"/>
			<point x="472" y="688"/>
			<point x="459" y="640"/>
			<point x="384" y="640" type="curve" smooth="yes"/>
			<point x="323" y="640"/>
			<point x="284" y="710"/>
			<point x="209" y="710" type="curve" smooth="yes"/>
			<point x="128" y="710"/>
			<point x="85" y="619"/>
			<point x="85" y="537" type="curve"/>
			<point x="111" y="537" type="line"/>
			<point x="111" y="573"/>
			<point x="144" y="621"/>
			<point x="199" y="621" type="curve" smooth="yes"/>
			<point x="273" y="621"/>
			<point x="313" y="552"/>
			<point x="374" y="552" type="curve" smooth="yes"/>
			<point x="465" y="552"/>
			<point x="498" y="642"/>
		</contour>
	</outline>
</glyph>
<glyph name="ae" format="2">
	<advance width="831"/>
	<unicode hex="00E6"/>
	<outline>
		<contour>
			<point x="15" y="141" type="curve" smooth="yes"/>
			<point x="15" y="58"/>
			<point x="78" y="-26"/>
			<point x="220" y="-26" type="curve" smooth="yes"/>
			<point x="354" y="-26"/>
			<point x="415" y="27"/>
			<point x="430" y="42" type="curve"/>
			<point x="476" y="3"/>
			<point x="533" y="-19"/>
			<point x="589" y="-19" type="curve" smooth="yes"/>
			<point x="728" y="-19"/>
			<point x="816" y="91"/>
			<point x="816" y="91" type="curve"/>
			<point x="791" y="117" type="line"/>
			<point x="791" y="117"/>
			<point x="740" y="62"/>
			<point x="652" y="62" type="curve" smooth="yes"/>
			<point x="564" y="62"/>
			<point x="512" y="134"/>
			<point x="512" y="247" type="curve" smooth="yes"/>
			<point x="512" y="334"/>
			<point x="558" y="410"/>
			<point x="610" y="410" type="curve" smooth="yes"/>
			<point x="640" y="410"/>
			<point x="686" y="388"/>
			<point x="686" y="325" type="curve" smooth="yes"/>
			<point x="686" y="277"/>
			<point x="650" y="242"/>
			<point x="607" y="242" type="curve" smooth="yes"/>
			<point x="576" y="242"/>
			<point x="558" y="257"/>
			<point x="558" y="257" type="curve"/>
			<point x="536" y="229" type="line"/>
			<point x="536" y="229"/>
			<point x="570" y="188"/>
			<point x="634" y="188" type="curve" smooth="yes"/>
			<point x="733" y="188"/>
			<point x="810" y="256"/>
			<point x="810" y="338" type="curve" smooth="yes"/>
			<point x="810" y="466"/>
			<point x="699" y="526"/>
			<point x="607" y="526" type="curve" smooth="yes"/>
			<point x="553" y="526"/>
			<point x="487" y="506"/>
			<point x="433" y="463" type="curve"/>
			<point x="389" y="514"/>
			<point x="327" y="529"/>
			<point x="280" y="529" type="curve" smooth="yes"/>
			<point x="189" y="529"/>
			<point x="113" y="482"/>
			<point x="113" y="408" type="curve" smooth="yes"/>
			<point x="113" y="329"/>
			<point x="191" y="309"/>
			<point x="220" y="309" type="curve"/>
			<point x="220" y="339" type="line"/>
			<point x="204" y="339"/>
			<point x="181" y="347"/>
			<point x="181" y="372" type="curve" smooth="yes"/>
			<point x="181" y="393"/>
			<point x="201" y="415"/>
			<point x="239" y="415" type="curve" smooth="yes"/>
			<point x="300" y="415"/>
			<point x="334" y="347"/>
			<point x="334" y="261" type="curve" smooth="yes"/>
			<point x="334" y="222" type="line" smooth="yes"/>
			<point x="334" y="135"/>
			<point x="280" y="105"/>
			<point x="228" y="105" type="curve" smooth="yes"/>
			<point x="198" y="105"/>
			<point x="159" y="123"/>
			<point x="159" y="165" type="curve" smooth="yes"/>
			<point x="159" y="213"/>
			<point x="204" y="228"/>
			<point x="238" y="228" type="curve" smooth="yes"/>
			<point x="278" y="228"/>
			<point x="298" y="214"/>
			<point x="298" y="214" type="curve"/>
			<point x="320" y="242" type="line"/>
			<point x="320" y="242"/>
			<point x="255" y="286"/>
			<point x="181" y="286" type="curve" smooth="yes"/>
			<point x="82" y="286"/>
			<point x="15" y="243"/>
		</contour>
	</outline>
</glyph>
<glyph name="eth" format="2">
	<advance width="647"/>
	<unicode hex="00F0"/>
	<outline>
		<contour>
			<point x="472" y="646" type="curve"/>
			<point x="531" y="672"/>
			<point x="540" y="655"/>
			<point x="540" y="655" type="curve"/>
			<point x="565" y="670" type="line"/>
			<point x="503" y="778" type="line"/>
			<point x="478" y="763" type="line"/>
			<point x="478" y="763"/>
			<point x="490" y="743"/>
			<point x="418" y="696" type="curve"/>
			<point x="338" y="764"/>
			<point x="265" y="799"/>
			<point x="265" y="799" type="curve"/>
			<point x="246" y="769" type="line"/>
			<point x="246" y="769"/>
			<point x="297" y="731"/>
			<point x="346" y="657" type="curve"/>
			<point x="287" y="630"/>
			<point x="277" y="647"/>
			<point x="277" y="647" type="curve"/>
			<point x="252" y="633" type="line"/>
			<point x="314" y="525" type="line"/>
			<point x="339" y="539" type="line"/>
			<point x="339" y="539"/>
			<point x="330" y="556"/>
			<point x="381" y="594" type="curve"/>
			<point x="410" y="534"/>
			<point x="432" y="459"/>
			<point x="432" y="369" type="curve"/>
			<point x="432" y="190"/>
			<point x="382" y="106"/>
			<point x="314" y="106" type="curve"/>
			<point x="239" y="106"/>
			<point x="201" y="173"/>
			<point x="201" y="265" type="curve"/>
			<point x="201" y="352"/>
			<point x="232" y="412"/>
			<point x="284" y="412" type="curve"/>
			<point x="334" y="412"/>
			<point x="362" y="364"/>
			<point x="362" y="313" type="curve"/>
			<point x="392" y="313" type="line"/>
			<point x="392" y="367"/>
			<point x="387" y="519"/>
			<point x="246" y="519" type="curve"/>
			<point x="137" y="519"/>
			<point x="25" y="422"/>
			<point x="25" y="260" type="curve"/>
			<point x="25" y="115"/>
			<point x="139" y="-20"/>
			<point x="314" y="-20" type="curve"/>
			<point x="471" y="-20"/>
			<point x="622" y="98"/>
			<point x="622" y="315" type="curve"/>
			<point x="622" y="455"/>
			<point x="551" y="566"/>
		</contour>
	</outline>
</glyph>
<glyph name="divide" format="2">
	<advance width="493"/>
	<unicode hex="00F7"/>
	<outline>
		<contour>
			<point x="338" y="466" type="curve"/>
			<point x="338" y="415"/>
			<point x="297" y="374"/>
			<point x="247" y="374" type="curve"/>
			<point x="196" y="374"/>
			<point x="155" y="415"/>
			<point x="155" y="466" type="curve"/>
			<point x="155" y="516"/>
			<point x="196" y="557"/>
			<point x="247" y="557" type="curve"/>
			<point x="297" y="557"/>
			<point x="338" y="516"/>
		</contour>
		<contour>
			<point x="338" y="92" type="curve"/>
			<point x="338" y="41"/>
			<point x="297" y="0"/>
			<point x="247" y="0" type="curve"/>
			<point x="196" y="0"/>
			<point x="155" y="41"/>
			<point x="155" y="92" type="curve"/>
			<point x="155" y="142"/>
			<point x="196" y="183"/>
			<point x="247" y="183" type="curve"/>
			<point x="297" y="183"/>
			<point x="338" y="142"/>
		</contour>
		<contour>
			<point x="54" y="361" type="line"/>
			<point x="54" y="361"/>
			<point x="54" y="332"/>
			<point x="247" y="332" type="curve"/>
			<point x="438" y="332"/>
			<point x="439" y="361"/>
			<point x="439" y="361" type="curve"/>
			<point x="468" y="361" type="line"/>
			<point x="468" y="196" type="line"/>
			<point x="439" y="196" type="line"/>
			<point x="439" y="196"/>
			<point x="438" y="225"/>
			<point x="247" y="225" type="curve"/>
			<point x="54" y="225"/>
			<point x="54" y="196"/>
			<point x="54" y="196" type="curve"/>
			<point x="25" y="196" type="line"/>
			<point x="25" y="361" type="line"/>
		</contour>
	</outline>
</glyph>
<glyph name="thorn" format="2">
	<advance width="648"/>
	<unicode hex="00FE"/>
	<outline>
		<contour>
			<point x="394" y="528" type="curve"/>
			<point x="348" y="528"/>
			<point x="315" y="518"/>
			<point x="286" y="502" type="curve"/>
			<point x="309" y="670"/>
			<point x="368" y="671"/>
			<point x="368" y="671" type="curve"/>
			<point x="368" y="700" type="line"/>
			<point x="10" y="700" type="line"/>
			<point x="10" y="671" type="line"/>
			<point x="10" y="671"/>
			<point x="130" y="670"/>
			<point x="130" y="249" type="curve"/>
			<point x="130" y="-182"/>
			<point x="10" y="-172"/>
			<point x="10" y="-172" type="curve"/>
			<point x="10" y="-201" type="line"/>
			<point x="360" y="-201" type="line"/>
			<point x="360" y="-172" type="line"/>
			<point x="360" y="-172"/>
			<point x="270" y="-172"/>
			<point x="264" y="122" type="curve"/>
			<point x="264" y="134"/>
			<point x="264" y="146"/>
			<point x="264" y="157" type="curve"/>
			<point x="265" y="314"/>
			<point x="296" y="422"/>
			<point x="374" y="422" type="curve"/>
			<point x="449" y="422"/>
			<point x="472" y="355"/>
			<point x="472" y="253" type="curve"/>
			<point x="472" y="166"/>
			<point x="446" y="116"/>
			<point x="394" y="116" type="curve"/>
			<point x="344" y="116"/>
			<point x="321" y="164"/>
			<point x="321" y="215" type="curve"/>
			<point x="291" y="215" type="line"/>
			<point x="291" y="161"/>
			<point x="280" y="-1"/>
			<point x="452" y="-1" type="curve"/>
			<point x="561" y="-1"/>
			<point x="638" y="96"/>
			<point x="638" y="258" type="curve"/>
			<point x="638" y="403"/>
			<point x="569" y="528"/>
		</contour>
	</outline>
</glyph>
<glyph name="dcaron" format="2">
	<advance width="671"/>
	<unicode hex="010F"/>
	<outline>
		<contour>
			<point x="206" y="500" type="curve"/>
			<point x="97" y="500"/>
			<point x="20" y="403"/>
			<point x="20" y="241" type="curve"/>
			<point x="20" y="96"/>
			<point x="89" y="-29"/>
			<point x="264" y="-29" type="curve"/>
			<point x="336" y="-29"/>
			<point x="376" y="-5"/>
			<point x="421" y="30" type="curve"/>
			<point x="421" y="0" type="line"/>
			<point x="648" y="0" type="line"/>
			<point x="648" y="29" type="line"/>
			<point x="648" y="29"/>
			<point x="529" y="29"/>
			<point x="529" y="350" type="curve"/>
			<point x="529" y="671"/>
			<point x="648" y="671"/>
			<point x="648" y="671" type="curve"/>
			<point x="648" y="700" type="line"/>
			<point x="298" y="700" type="line"/>
			<point x="298" y="671" type="line"/>
			<point x="298" y="671"/>
			<point x="388" y="671"/>
			<point x="394" y="377" type="curve"/>
			<point x="394" y="365"/>
			<point x="394" y="353"/>
			<point x="394" y="342" type="curve"/>
			<point x="393" y="185"/>
			<point x="362" y="77"/>
			<point x="284" y="77" type="curve"/>
			<point x="209" y="77"/>
			<point x="186" y="144"/>
			<point x="186" y="246" type="curve"/>
			<point x="186" y="333"/>
			<point x="212" y="383"/>
			<point x="264" y="383" type="curve"/>
			<point x="314" y="383"/>
			<point x="337" y="335"/>
			<point x="337" y="284" type="curve"/>
			<point x="367" y="284" type="line"/>
			<point x="367" y="338"/>
			<point x="378" y="500"/>
		</contour>
		<contour>
			<point x="714" y="700" type="curve"/>
			<point x="686" y="700"/>
			<point x="660" y="676"/>
			<point x="660" y="646" type="curve"/>
			<point x="660" y="600"/>
			<point x="698" y="603"/>
			<point x="698" y="579" type="curve"/>
			<point x="698" y="556"/>
			<point x="674" y="557"/>
			<point x="674" y="556" type="curve" smooth="yes"/>
			<point x="674" y="527" type="line"/>
			<point x="717" y="527"/>
			<point x="771" y="576"/>
			<point x="771" y="636" type="curve"/>
			<point x="771" y="676"/>
			<point x="740" y="700"/>
		</contour>
	</outline>
</glyph>
<glyph name="dcroat" format="2">
	<advance width="648"/>
	<unicode hex="0111"/>
	<anchor x="456" y="562" name="center"/>
	<anchor x="319" y="500" name="top"/>
	<anchor x="628" y="500" name="topright"/>
	<anchor x="319" y="0" name="bottom"/>
	<outline>
		<contour>
			<point x="216" y="482" type="curve"/>
			<point x="97" y="482"/>
			<point x="20" y="378"/>
			<point x="20" y="246" type="curve"/>
			<point x="20" y="91"/>
			<point x="99" y="-19"/>
			<point x="274" y="-19" type="curve"/>
			<point x="326" y="-19"/>
			<point x="376" y="-5"/>
			<point x="411" y="30" type="curve"/>
			<point x="411" y="0" type="line"/>
			<point x="638" y="0" type="line"/>
			<point x="638" y="29" type="line"/>
			<point x="638" y="29"/>
			<point x="519" y="29"/>
			<point x="519" y="350" type="curve" smooth="yes"/>
			<point x="519" y="671"/>
			<point x="638" y="671"/>
			<point x="638" y="671" type="curve"/>
			<point x="638" y="700" type="line"/>
			<point x="288" y="700" type="line"/>
			<point x="288" y="671" type="line"/>
			<point x="288" y="671"/>
			<point x="378" y="671"/>
			<point x="384" y="377" type="curve" smooth="yes"/>
			<point x="384" y="342" type="line" smooth="yes"/>
			<point x="383" y="185"/>
			<point x="352" y="87"/>
			<point x="274" y="87" type="curve"/>
			<point x="199" y="87"/>
			<point x="176" y="184"/>
			<point x="176" y="246" type="curve"/>
			<point x="176" y="323"/>
			<point x="212" y="365"/>
			<point x="254" y="365" type="curve"/>
			<point x="304" y="365"/>
			<point x="327" y="317"/>
			<point x="327" y="266" type="curve"/>
			<point x="357" y="266" type="line"/>
			<point x="357" y="365"/>
			<point x="328" y="482"/>
		</contour>
		<contour>
			<point x="207" y="615" type="curve"/>
			<point x="178" y="615" type="line"/>
			<point x="178" y="500" type="line"/>
			<point x="207" y="500" type="line"/>
			<point x="207" y="500"/>
			<point x="207" y="524"/>
			<point x="413" y="524" type="curve"/>
			<point x="619" y="524"/>
			<point x="619" y="500"/>
			<point x="619" y="500" type="curve"/>
			<point x="648" y="500" type="line"/>
			<point x="648" y="615" type="line"/>
			<point x="619" y="615" type="line"/>
			<point x="619" y="615"/>
			<point x="619" y="591"/>
			<point x="413" y="591" type="curve"/>
			<point x="207" y="591"/>
			<point x="207" y="615"/>
		</contour>
	</outline>
</glyph>
<glyph name="Hbar" format="2">
	<advance width="969"/>
	<unicode hex="0126"/>
	<outline>
		<contour>
			<point x="20" y="29" type="curve"/>
			<point x="20" y="0" type="line"/>
			<point x="473" y="0" type="line"/>
			<point x="473" y="29" type="line"/>
			<point x="473" y="29"/>
			<point x="376" y="29"/>
			<point x="376" y="156" type="curve" smooth="yes"/>
			<point x="376" y="255"/>
			<point x="443" y="281"/>
			<point x="485" y="281" type="curve" smooth="yes"/>
			<point x="527" y="281"/>
			<point x="597" y="255"/>
			<point x="594" y="159" type="curve" smooth="yes"/>
			<point x="594" y="29"/>
			<point x="497" y="29"/>
			<point x="497" y="29" type="curve"/>
			<point x="497" y="0" type="line"/>
			<point x="949" y="0" type="line"/>
			<point x="949" y="29" type="line"/>
			<point x="949" y="29"/>
			<point x="760" y="34"/>
			<point x="760" y="350" type="curve" smooth="yes"/>
			<point x="760" y="407"/>
			<point x="766" y="454"/>
			<point x="776" y="493" type="curve"/>
			<point x="904" y="484"/>
			<point x="904" y="471"/>
			<point x="904" y="471" type="curve"/>
			<point x="933" y="471" type="line"/>
			<point x="933" y="596" type="line"/>
			<point x="904" y="596" type="line" smooth="yes"/>
			<point x="904" y="596"/>
			<point x="904" y="585"/>
			<point x="811" y="577" type="curve"/>
			<point x="867" y="668"/>
			<point x="949" y="671"/>
			<point x="949" y="671" type="curve"/>
			<point x="949" y="700" type="line"/>
			<point x="497" y="700" type="line"/>
			<point x="497" y="671" type="line"/>
			<point x="497" y="671"/>
			<point x="580" y="671"/>
			<point x="592" y="568" type="curve"/>
			<point x="560" y="567"/>
			<point x="524" y="567"/>
			<point x="485" y="567" type="curve" smooth="yes"/>
			<point x="377" y="568" type="line"/>
			<point x="389" y="671"/>
			<point x="473" y="671"/>
			<point x="473" y="671" type="curve"/>
			<point x="473" y="700" type="line"/>
			<point x="20" y="700" type="line"/>
			<point x="20" y="671" type="line"/>
			<point x="20" y="671"/>
			<point x="102" y="668"/>
			<point x="158" y="577" type="curve"/>
			<point x="66" y="585"/>
			<point x="66" y="596"/>
			<point x="66" y="596" type="curve" smooth="yes"/>
			<point x="37" y="596" type="line"/>
			<point x="37" y="471" type="line"/>
			<point x="66" y="471" type="line"/>
			<point x="66" y="471"/>
			<point x="66" y="484"/>
			<point x="194" y="493" type="curve"/>
			<point x="204" y="454"/>
			<point x="210" y="407"/>
			<point x="210" y="350" type="curve" smooth="yes"/>
			<point x="210" y="34"/>
			<point x="20" y="29"/>
		</contour>
		<contour>
			<point x="381" y="499" type="curve"/>
			<point x="413" y="500"/>
			<point x="447" y="500"/>
			<point x="485" y="500" type="curve" smooth="yes"/>
			<point x="589" y="499" type="line"/>
			<point x="573" y="436"/>
			<point x="520" y="418"/>
			<point x="485" y="418" type="curve" smooth="yes"/>
			<point x="450" y="418"/>
			<point x="398" y="437"/>
		</contour>
	</outline>
</glyph>
<glyph name="hbar" format="2">
	<advance width="725"/>
	<unicode hex="0127"/>
	<anchor x="192" y="570" name="center"/>
	<anchor x="363" y="0" name="bottom"/>
	<anchor x="363" y="500" name="top"/>
	<outline>
		<contour>
			<point x="628" y="206" type="curve"/>
			<point x="628" y="368"/>
			<point x="578" y="480"/>
			<point x="428" y="480" type="curve"/>
			<point x="360" y="480"/>
			<point x="302" y="450"/>
			<point x="270" y="413" type="curve"/>
			<point x="288" y="671"/>
			<point x="355" y="671"/>
			<point x="355" y="671" type="curve"/>
			<point x="355" y="700" type="line"/>
			<point x="15" y="700" type="line"/>
			<point x="15" y="671" type="line"/>
			<point x="15" y="671"/>
			<point x="134" y="671"/>
			<point x="134" y="350" type="curve"/>
			<point x="134" y="29"/>
			<point x="15" y="29"/>
			<point x="15" y="29" type="curve"/>
			<point x="15" y="0" type="line"/>
			<point x="365" y="0" type="line"/>
			<point x="365" y="29" type="line"/>
			<point x="365" y="29"/>
			<point x="273" y="29"/>
			<point x="273" y="217" type="curve"/>
			<point x="273" y="368"/>
			<point x="365" y="369"/>
			<point x="378" y="368" type="curve"/>
			<point x="390" y="368"/>
			<point x="482" y="369"/>
			<point x="482" y="206" type="curve"/>
			<point x="482" y="29"/>
			<point x="390" y="29"/>
			<point x="390" y="29" type="curve"/>
			<point x="390" y="0" type="line"/>
			<point x="709" y="0" type="line"/>
			<point x="709" y="29" type="line"/>
			<point x="719" y="29"/>
			<point x="628" y="29"/>
		</contour>
		<contour>
			<point x="29" y="615" type="curve"/>
			<point x="0" y="615" type="line"/>
			<point x="0" y="500" type="line"/>
			<point x="29" y="500" type="line"/>
			<point x="29" y="500"/>
			<point x="29" y="524"/>
			<point x="235" y="524" type="curve"/>
			<point x="441" y="524"/>
			<point x="441" y="500"/>
			<point x="441" y="500" type="curve"/>
			<point x="470" y="500" type="line"/>
			<point x="470" y="615" type="line"/>
			<point x="441" y="615" type="line"/>
			<point x="441" y="615"/>
			<point x="441" y="591"/>
			<point x="235" y="591" type="curve"/>
			<point x="29" y="591"/>
			<point x="29" y="615"/>
		</contour>
	</outline>
</glyph>
<glyph name="dotlessi" format="2">
	<advance width="417"/>
	<unicode hex="0131"/>
	<anchor x="363" y="10" name="ogonek"/>
	<anchor x="204" y="0" name="bottom"/>
	<anchor x="204" y="500" name="top"/>
	<outline>
		<contour>
			<point x="282" y="250" type="curve"/>
			<point x="282" y="471"/>
			<point x="373" y="471"/>
			<point x="373" y="471" type="curve"/>
			<point x="373" y="500" type="line"/>
			<point x="15" y="500" type="line"/>
			<point x="15" y="471" type="line"/>
			<point x="15" y="471"/>
			<point x="135" y="471"/>
			<point x="135" y="250" type="curve"/>
			<point x="135" y="29"/>
			<point x="15" y="29"/>
			<point x="15" y="29" type="curve"/>
			<point x="15" y="0" type="line"/>
			<point x="402" y="0" type="line"/>
			<point x="402" y="29" type="line"/>
			<point x="402" y="29"/>
			<point x="282" y="29"/>
		</contour>
	</outline>
</glyph>
<glyph name="IJ" format="2">
	<advance width="941"/>
	<unicode hex="0132"/>
	<anchor x="168" y="10" name="ogonek"/>
	<anchor x="539" y="700" name="top"/>
	<anchor x="22" y="700" name="topleft"/>
	<anchor x="539" y="0" name="bottom"/>
	<outline>
		<contour>
			<point x="25" y="671" type="line"/>
			<point x="45" y="671"/>
			<point x="159" y="671"/>
			<point x="159" y="515" type="curve"/>
			<point x="159" y="378"/>
			<point x="25" y="378"/>
			<point x="25" y="378" type="curve"/>
			<point x="25" y="349" type="line"/>
			<point x="469" y="349" type="line"/>
			<point x="469" y="378" type="line"/>
			<point x="469" y="378"/>
			<point x="325" y="378"/>
			<point x="325" y="515" type="curve"/>
			<point x="325" y="671"/>
			<point x="439" y="671"/>
			<point x="469" y="671" type="curve"/>
			<point x="469" y="700" type="line"/>
			<point x="25" y="700" type="line"/>
		</contour>
		<contour>
			<point x="469" y="290" type="curve"/>
			<point x="469" y="320" type="line"/>
			<point x="336" y="320"/>
			<point x="159" y="303"/>
			<point x="159" y="155" type="curve"/>
			<point x="159" y="27"/>
			<point x="279" y="-50"/>
			<point x="435" y="-50" type="curve" smooth="yes"/>
			<point x="577" y="-50"/>
			<point x="827" y="39"/>
			<point x="827" y="371" type="curve" smooth="yes"/>
			<point x="827" y="436" type="line" smooth="yes"/>
			<point x="827" y="630"/>
			<point x="874" y="670"/>
			<point x="916" y="670" type="curve"/>
			<point x="916" y="700" type="line"/>
			<point x="494" y="700" type="line"/>
			<point x="494" y="670" type="line"/>
			<point x="494" y="670"/>
			<point x="635" y="670"/>
			<point x="635" y="416" type="curve" smooth="yes"/>
			<point x="635" y="268"/>
			<point x="592" y="155"/>
			<point x="465" y="155" type="curve" smooth="yes"/>
			<point x="385" y="155"/>
			<point x="364" y="192"/>
			<point x="364" y="221" type="curve" smooth="yes"/>
			<point x="364" y="290"/>
			<point x="469" y="290"/>
		</contour>
	</outline>
</glyph>
<glyph name="ij" format="2">
	<advance width="741"/>
	<unicode hex="0133"/>
	<outline>
		<contour>
			<point x="572" y="500" type="line"/>
			<point x="410" y="500" type="line"/>
			<point x="410" y="471" type="line"/>
			<point x="410" y="471"/>
			<point x="499" y="471"/>
			<point x="499" y="345" type="curve"/>
			<point x="499" y="336"/>
			<point x="498" y="124"/>
			<point x="498" y="100" type="curve"/>
			<point x="498" y="0"/>
			<point x="461" y="-122"/>
			<point x="316" y="-122" type="curve"/>
			<point x="228" y="-122"/>
			<point x="157" y="-67"/>
			<point x="157" y="-67" type="curve"/>
			<point x="132" y="-93" type="line"/>
			<point x="132" y="-93"/>
			<point x="223" y="-195"/>
			<point x="365" y="-200" type="curve" smooth="yes"/>
			<point x="480" y="-204"/>
			<point x="656" y="-140"/>
			<point x="656" y="100" type="curve"/>
			<point x="656" y="124"/>
			<point x="656" y="339"/>
			<point x="656" y="345" type="curve"/>
			<point x="656" y="471"/>
			<point x="734" y="471"/>
			<point x="734" y="471" type="curve"/>
			<point x="734" y="500" type="line"/>
		</contour>
		<contour>
			<point x="663" y="659" type="curve"/>
			<point x="663" y="608"/>
			<point x="622" y="567"/>
			<point x="572" y="567" type="curve"/>
			<point x="521" y="567"/>
			<point x="480" y="608"/>
			<point x="480" y="659" type="curve"/>
			<point x="480" y="709"/>
			<point x="521" y="750"/>
			<point x="572" y="750" type="curve"/>
			<point x="622" y="750"/>
			<point x="663" y="709"/>
		</contour>
		<contour>
			<point x="295" y="659" type="curve"/>
			<point x="295" y="608"/>
			<point x="254" y="567"/>
			<point x="204" y="567" type="curve"/>
			<point x="153" y="567"/>
			<point x="112" y="608"/>
			<point x="112" y="659" type="curve"/>
			<point x="112" y="709"/>
			<point x="153" y="750"/>
			<point x="204" y="750" type="curve"/>
			<point x="254" y="750"/>
			<point x="295" y="709"/>
		</contour>
		<contour>
			<point x="277" y="250" type="curve"/>
			<point x="277" y="471"/>
			<point x="368" y="471"/>
			<point x="368" y="471" type="curve"/>
			<point x="368" y="500" type="line"/>
			<point x="10" y="500" type="line"/>
			<point x="10" y="471" type="line"/>
			<point x="10" y="471"/>
			<point x="130" y="471"/>
			<point x="130" y="250" type="curve"/>
			<point x="130" y="29"/>
			<point x="10" y="29"/>
			<point x="10" y="29" type="curve"/>
			<point x="10" y="0" type="line"/>
			<point x="397" y="0" type="line"/>
			<point x="397" y="29" type="line"/>
			<point x="397" y="29"/>
			<point x="277" y="29"/>
		</contour>
	</outline>
</glyph>
<glyph name="Lslash" format="2">
	<advance width="791"/>
	<unicode hex="0141"/>
	<outline>
		<contour>
			<point x="732" y="451" type="line"/>
			<point x="703" y="451" type="line"/>
			<point x="703" y="451"/>
			<point x="703" y="88"/>
			<point x="537" y="88" type="curve"/>
			<point x="417" y="88"/>
			<point x="394" y="255"/>
			<point x="394" y="350" type="curve"/>
			<point x="394" y="665"/>
			<point x="581" y="671"/>
			<point x="581" y="671" type="curve"/>
			<point x="581" y="700" type="line"/>
			<point x="28" y="700" type="line"/>
			<point x="28" y="671" type="line"/>
			<point x="28" y="671"/>
			<point x="217" y="665"/>
			<point x="217" y="350" type="curve"/>
			<point x="217" y="34"/>
			<point x="28" y="29"/>
			<point x="28" y="29" type="curve"/>
			<point x="28" y="0" type="line"/>
			<point x="766" y="0" type="line"/>
		</contour>
		<contour>
			<point x="50" y="302" type="curve"/>
			<point x="25" y="291" type="line"/>
			<point x="85" y="159" type="line"/>
			<point x="112" y="172" type="line"/>
			<point x="112" y="172"/>
			<point x="99" y="197"/>
			<point x="334" y="307" type="curve"/>
			<point x="569" y="416"/>
			<point x="581" y="391"/>
			<point x="581" y="391" type="curve"/>
			<point x="608" y="402" type="line"/>
			<point x="547" y="534" type="line"/>
			<point x="520" y="521" type="line"/>
			<point x="520" y="521"/>
			<point x="532" y="496"/>
			<point x="297" y="386" type="curve"/>
			<point x="63" y="277"/>
			<point x="50" y="302"/>
		</contour>
	</outline>
</glyph>
<glyph name="lslash" format="2">
	<advance width="407"/>
	<unicode hex="0142"/>
	<outline>
		<contour>
			<point x="10" y="327" type="curve"/>
			<point x="-16" y="315" type="line"/>
			<point x="37" y="202" type="line"/>
			<point x="63" y="214" type="line"/>
			<point x="63" y="214"/>
			<point x="56" y="229"/>
			<point x="129" y="273" type="curve"/>
			<point x="112" y="28"/>
			<point x="12" y="28"/>
			<point x="12" y="28" type="curve"/>
			<point x="12" y="-1" type="line"/>
			<point x="399" y="-1" type="line"/>
			<point x="399" y="28" type="line"/>
			<point x="399" y="28"/>
			<point x="280" y="28"/>
			<point x="279" y="345" type="curve"/>
			<point x="391" y="390"/>
			<point x="400" y="371"/>
			<point x="400" y="371" type="curve"/>
			<point x="426" y="383" type="line"/>
			<point x="374" y="497" type="line"/>
			<point x="347" y="484" type="line"/>
			<point x="347" y="484"/>
			<point x="355" y="469"/>
			<point x="281" y="426" type="curve"/>
			<point x="294" y="670"/>
			<point x="370" y="671"/>
			<point x="370" y="671" type="curve"/>
			<point x="370" y="700" type="line"/>
			<point x="12" y="700" type="line"/>
			<point x="12" y="671" type="line"/>
			<point x="12" y="671"/>
			<point x="131" y="670"/>
			<point x="132" y="354" type="curve"/>
			<point x="19" y="307"/>
			<point x="10" y="327"/>
		</contour>
	</outline>
</glyph>
<glyph name="Eng" format="2">
	<advance width="1019"/>
	<unicode hex="014A"/>
	<outline>
		<contour>
			<point x="586" y="700" type="line"/>
			<point x="586" y="671" type="line"/>
			<point x="586" y="671"/>
			<point x="696" y="672"/>
			<point x="658" y="438" type="curve"/>
			<point x="601" y="468"/>
			<point x="512" y="526"/>
			<point x="512" y="612" type="curve"/>
			<point x="512" y="672"/>
			<point x="561" y="671"/>
			<point x="561" y="671" type="curve"/>
			<point x="561" y="700" type="line"/>
			<point x="25" y="700" type="line"/>
			<point x="25" y="671" type="line"/>
			<point x="25" y="671"/>
			<point x="215" y="671"/>
			<point x="215" y="350" type="curve"/>
			<point x="215" y="29"/>
			<point x="25" y="29"/>
			<point x="25" y="29" type="curve"/>
			<point x="25" y="0" type="line"/>
			<point x="487" y="0" type="line"/>
			<point x="487" y="29" type="line"/>
			<point x="487" y="29"/>
			<point x="372" y="29"/>
			<point x="372" y="244" type="curve"/>
			<point x="372" y="302"/>
			<point x="381" y="408"/>
			<point x="452" y="408" type="curve"/>
			<point x="477" y="408"/>
			<point x="506" y="387"/>
			<point x="537" y="349" type="curve"/>
			<point x="576" y="305"/>
			<point x="609" y="221"/>
			<point x="609" y="113" type="curve"/>
			<point x="609" y="-166"/>
			<point x="454" y="-166"/>
			<point x="454" y="-166" type="curve"/>
			<point x="454" y="-195" type="line"/>
			<point x="587" y="-195"/>
			<point x="805" y="-195"/>
			<point x="805" y="125" type="curve"/>
			<point x="805" y="350" type="line"/>
			<point x="805" y="671"/>
			<point x="994" y="671"/>
			<point x="994" y="671" type="curve"/>
			<point x="994" y="700" type="line"/>
		</contour>
	</outline>
</glyph>
<glyph name="eng" format="2">
	<advance width="643"/>
	<unicode hex="014B"/>
	<outline>
		<contour>
			<point x="428" y="519" type="curve"/>
			<point x="312" y="519"/>
			<point x="249" y="439"/>
			<point x="242" y="406" type="curve"/>
			<point x="242" y="500" type="line"/>
			<point x="15" y="500" type="line"/>
			<point x="15" y="471" type="line"/>
			<point x="15" y="471"/>
			<point x="135" y="471"/>
			<point x="135" y="250" type="curve"/>
			<point x="135" y="30"/>
			<point x="15" y="29"/>
			<point x="15" y="29" type="curve"/>
			<point x="15" y="0" type="line"/>
			<point x="365" y="0" type="line"/>
			<point x="365" y="29" type="line"/>
			<point x="365" y="29"/>
			<point x="273" y="29"/>
			<point x="273" y="206" type="curve"/>
			<point x="273" y="398"/>
			<point x="365" y="398"/>
			<point x="378" y="398" type="curve"/>
			<point x="389" y="398"/>
			<point x="479" y="398"/>
			<point x="481" y="215" type="curve"/>
			<point x="482" y="209"/>
			<point x="482" y="158"/>
			<point x="482" y="150" type="curve"/>
			<point x="482" y="-171"/>
			<point x="337" y="-171"/>
			<point x="337" y="-171" type="curve"/>
			<point x="337" y="-200" type="line"/>
			<point x="440" y="-200"/>
			<point x="628" y="-200"/>
			<point x="628" y="120" type="curve"/>
			<point x="628" y="122"/>
			<point x="628" y="206"/>
			<point x="628" y="206" type="curve"/>
			<point x="628" y="407"/>
			<point x="578" y="519"/>
		</contour>
	</outline>
</glyph>
